%TF.GenerationSoftware,KiCad,Pcbnew,9.0.7*%
%TF.CreationDate,2026-02-03T10:56:02-06:00*%
%TF.ProjectId,FocusBeam,466f6375-7342-4656-916d-2e6b69636164,rev?*%
%TF.SameCoordinates,Original*%
%TF.FileFunction,Paste,Top*%
%TF.FilePolarity,Positive*%
%FSLAX46Y46*%
G04 Gerber Fmt 4.6, Leading zero omitted, Abs format (unit mm)*
G04 Created by KiCad (PCBNEW 9.0.7) date 2026-02-03 10:56:02*
%MOMM*%
%LPD*%
G01*
G04 APERTURE LIST*
G04 Aperture macros list*
%AMRoundRect*
0 Rectangle with rounded corners*
0 $1 Rounding radius*
0 $2 $3 $4 $5 $6 $7 $8 $9 X,Y pos of 4 corners*
0 Add a 4 corners polygon primitive as box body*
4,1,4,$2,$3,$4,$5,$6,$7,$8,$9,$2,$3,0*
0 Add four circle primitives for the rounded corners*
1,1,$1+$1,$2,$3*
1,1,$1+$1,$4,$5*
1,1,$1+$1,$6,$7*
1,1,$1+$1,$8,$9*
0 Add four rect primitives between the rounded corners*
20,1,$1+$1,$2,$3,$4,$5,0*
20,1,$1+$1,$4,$5,$6,$7,0*
20,1,$1+$1,$6,$7,$8,$9,0*
20,1,$1+$1,$8,$9,$2,$3,0*%
G04 Aperture macros list end*
%ADD10C,0.010000*%
%ADD11RoundRect,0.225000X0.250000X-0.225000X0.250000X0.225000X-0.250000X0.225000X-0.250000X-0.225000X0*%
%ADD12RoundRect,0.200000X0.275000X-0.200000X0.275000X0.200000X-0.275000X0.200000X-0.275000X-0.200000X0*%
%ADD13R,0.558800X0.558800*%
%ADD14RoundRect,0.225000X-0.225000X-0.250000X0.225000X-0.250000X0.225000X0.250000X-0.225000X0.250000X0*%
%ADD15RoundRect,0.200000X0.200000X0.275000X-0.200000X0.275000X-0.200000X-0.275000X0.200000X-0.275000X0*%
%ADD16R,1.400000X1.050000*%
%ADD17RoundRect,0.200000X-0.200000X-0.275000X0.200000X-0.275000X0.200000X0.275000X-0.200000X0.275000X0*%
%ADD18R,0.320000X0.640000*%
%ADD19R,0.640000X0.320000*%
%ADD20R,1.160000X1.160000*%
%ADD21R,0.560000X0.560000*%
%ADD22RoundRect,0.175000X0.325000X-0.175000X0.325000X0.175000X-0.325000X0.175000X-0.325000X-0.175000X0*%
%ADD23RoundRect,0.150000X-0.587500X-0.150000X0.587500X-0.150000X0.587500X0.150000X-0.587500X0.150000X0*%
%ADD24RoundRect,0.225000X0.225000X0.250000X-0.225000X0.250000X-0.225000X-0.250000X0.225000X-0.250000X0*%
%ADD25R,0.812800X1.422400*%
%ADD26RoundRect,0.200000X-0.275000X0.200000X-0.275000X-0.200000X0.275000X-0.200000X0.275000X0.200000X0*%
%ADD27R,1.450000X4.000000*%
%ADD28RoundRect,0.225000X-0.250000X0.225000X-0.250000X-0.225000X0.250000X-0.225000X0.250000X0.225000X0*%
%ADD29RoundRect,0.150000X0.200000X-0.150000X0.200000X0.150000X-0.200000X0.150000X-0.200000X-0.150000X0*%
%ADD30R,0.920000X0.480000*%
%ADD31R,0.920000X0.240000*%
G04 APERTURE END LIST*
D10*
%TO.C,U7*%
X65150000Y-79700000D02*
X64400000Y-79700000D01*
X63900000Y-79200000D01*
X63900000Y-78450000D01*
X65150000Y-78450000D01*
X65150000Y-79700000D01*
G36*
X65150000Y-79700000D02*
G01*
X64400000Y-79700000D01*
X63900000Y-79200000D01*
X63900000Y-78450000D01*
X65150000Y-78450000D01*
X65150000Y-79700000D01*
G37*
%TD*%
D11*
%TO.C,C32*%
X126620000Y-75735000D03*
X126620000Y-74185000D03*
%TD*%
D12*
%TO.C,R5*%
X67700000Y-87250020D03*
X67700000Y-85600020D03*
%TD*%
%TO.C,R25*%
X109945000Y-75665000D03*
X109945000Y-74015000D03*
%TD*%
D13*
%TO.C,LED2*%
X79525000Y-85550040D03*
X79525000Y-86500000D03*
X80475000Y-86500000D03*
X80475000Y-85550040D03*
%TD*%
D14*
%TO.C,C26*%
X129525000Y-88225020D03*
X131075000Y-88225020D03*
%TD*%
%TO.C,C28*%
X149525000Y-88225020D03*
X151075000Y-88225020D03*
%TD*%
D15*
%TO.C,R29*%
X144850000Y-77400000D03*
X143200000Y-77400000D03*
%TD*%
D12*
%TO.C,R20*%
X83200000Y-75800000D03*
X83200000Y-74150000D03*
%TD*%
D16*
%TO.C,S4*%
X101800000Y-72200000D03*
X98200000Y-72200000D03*
X101800000Y-70750000D03*
X98200000Y-70750000D03*
%TD*%
D13*
%TO.C,LED3*%
X89525000Y-85550040D03*
X89525000Y-86500000D03*
X90475000Y-86500000D03*
X90475000Y-85550040D03*
%TD*%
%TO.C,LED9*%
X149525000Y-85550040D03*
X149525000Y-86500000D03*
X150475000Y-86500000D03*
X150475000Y-85550040D03*
%TD*%
D12*
%TO.C,R19*%
X80000000Y-75800000D03*
X80000000Y-74150000D03*
%TD*%
D11*
%TO.C,C12*%
X79700000Y-81500000D03*
X79700000Y-79950000D03*
%TD*%
%TO.C,C10*%
X78200000Y-81500000D03*
X78200000Y-79950000D03*
%TD*%
D14*
%TO.C,C19*%
X119525000Y-88225020D03*
X121075000Y-88225020D03*
%TD*%
D11*
%TO.C,C31*%
X111545000Y-75615000D03*
X111545000Y-74065000D03*
%TD*%
D12*
%TO.C,R28*%
X128220000Y-75785000D03*
X128220000Y-74135000D03*
%TD*%
D17*
%TO.C,R21*%
X164175000Y-89000000D03*
X165825000Y-89000000D03*
%TD*%
D12*
%TO.C,R26*%
X113145000Y-75665000D03*
X113145000Y-74015000D03*
%TD*%
D13*
%TO.C,LED8*%
X139525000Y-85550040D03*
X139525000Y-86500000D03*
X140475000Y-86500000D03*
X140475000Y-85550040D03*
%TD*%
D18*
%TO.C,U7*%
X62500000Y-83000000D03*
X63300000Y-83000000D03*
X64100000Y-83000000D03*
X64900000Y-83000000D03*
X65700000Y-83000000D03*
X66500000Y-83000000D03*
X67300000Y-83000000D03*
X68100000Y-83000000D03*
X68900000Y-83000000D03*
X69700000Y-83000000D03*
X70500000Y-83000000D03*
D19*
X71400000Y-81900000D03*
X71400000Y-81100000D03*
X71400000Y-80300000D03*
X71400000Y-79500000D03*
X71400000Y-78700000D03*
X71400000Y-77900000D03*
X71400000Y-77100000D03*
X71400000Y-76300000D03*
X71400000Y-75500000D03*
X71400000Y-74700000D03*
X71400000Y-73900000D03*
X71400000Y-73100000D03*
X71400000Y-72300000D03*
D18*
X70500000Y-71200000D03*
X69700000Y-71200000D03*
X68900000Y-71200000D03*
X68100000Y-71200000D03*
X67300000Y-71200000D03*
X66500000Y-71200000D03*
X65700000Y-71200000D03*
X64900000Y-71200000D03*
X64100000Y-71200000D03*
X63300000Y-71200000D03*
X62500000Y-71200000D03*
D19*
X61600000Y-72300000D03*
X61600000Y-73100000D03*
X61600000Y-73900000D03*
X61600000Y-74700000D03*
X61600000Y-75500000D03*
X61600000Y-76300000D03*
X61600000Y-77100000D03*
X61600000Y-77900000D03*
X61600000Y-78700000D03*
X61600000Y-79500000D03*
X61600000Y-80300000D03*
X61600000Y-81100000D03*
X61600000Y-81900000D03*
D20*
X66500000Y-79075000D03*
X68475000Y-79075000D03*
X64525000Y-77100000D03*
X66500000Y-77100000D03*
X68475000Y-77100000D03*
X64525000Y-75125000D03*
X66500000Y-75125000D03*
X68475000Y-75125000D03*
D21*
X61550000Y-71150000D03*
X71450000Y-71150000D03*
X71450000Y-83050000D03*
X61550000Y-83050000D03*
%TD*%
D16*
%TO.C,S6*%
X131800000Y-72200000D03*
X128200000Y-72200000D03*
X131800000Y-70750000D03*
X128200000Y-70750000D03*
%TD*%
D22*
%TO.C,U6*%
X153465000Y-80685000D03*
X153465000Y-79735000D03*
X153465000Y-78785000D03*
X150865000Y-78785000D03*
X150865000Y-80685000D03*
%TD*%
D16*
%TO.C,S3*%
X86800000Y-72200000D03*
X83200000Y-72200000D03*
X86800000Y-70750000D03*
X83200000Y-70750000D03*
%TD*%
D13*
%TO.C,LED1*%
X69525000Y-85550040D03*
X69525000Y-86500000D03*
X70475000Y-86500000D03*
X70475000Y-85550040D03*
%TD*%
D23*
%TO.C,Q1*%
X63925000Y-90350000D03*
X63925000Y-92250000D03*
X65800000Y-91300000D03*
%TD*%
D14*
%TO.C,C20*%
X139525000Y-88225020D03*
X141075000Y-88225020D03*
%TD*%
D16*
%TO.C,S7*%
X146800000Y-72200000D03*
X143200000Y-72200000D03*
X146800000Y-70750000D03*
X143200000Y-70750000D03*
%TD*%
D24*
%TO.C,C9*%
X63775000Y-87000000D03*
X62225000Y-87000000D03*
%TD*%
D12*
%TO.C,R1*%
X62100000Y-92025000D03*
X62100000Y-90375000D03*
%TD*%
D11*
%TO.C,C22*%
X149050000Y-80735000D03*
X149050000Y-79185000D03*
%TD*%
D25*
%TO.C,S2*%
X76325000Y-71399800D03*
X74675000Y-71399800D03*
X74675000Y-74600200D03*
X76325000Y-74600200D03*
%TD*%
D26*
%TO.C,R31*%
X157502187Y-76207486D03*
X157502187Y-77857486D03*
%TD*%
D17*
%TO.C,R12*%
X74675000Y-77000000D03*
X76325000Y-77000000D03*
%TD*%
D16*
%TO.C,S5*%
X116800000Y-72125000D03*
X113200000Y-72125000D03*
X116800000Y-70675000D03*
X113200000Y-70675000D03*
%TD*%
D15*
%TO.C,R16*%
X163965000Y-93460000D03*
X162315000Y-93460000D03*
%TD*%
D14*
%TO.C,C24*%
X89525000Y-88225020D03*
X91075000Y-88225020D03*
%TD*%
%TO.C,C16*%
X69525000Y-88225020D03*
X71075000Y-88225020D03*
%TD*%
D24*
%TO.C,C33*%
X144800000Y-75800000D03*
X143250000Y-75800000D03*
%TD*%
D13*
%TO.C,LED6*%
X119525000Y-85550040D03*
X119525000Y-86500000D03*
X120475000Y-86500000D03*
X120475000Y-85550040D03*
%TD*%
D14*
%TO.C,C17*%
X79525000Y-88225020D03*
X81075000Y-88225020D03*
%TD*%
D11*
%TO.C,C27*%
X81600000Y-75750000D03*
X81600000Y-74200000D03*
%TD*%
D15*
%TO.C,R24*%
X99850000Y-74200000D03*
X98200000Y-74200000D03*
%TD*%
%TO.C,R18*%
X165825000Y-90500000D03*
X164175000Y-90500000D03*
%TD*%
D11*
%TO.C,C21*%
X155050000Y-80735000D03*
X155050000Y-79185000D03*
%TD*%
D15*
%TO.C,R22*%
X165825000Y-87500000D03*
X164175000Y-87500000D03*
%TD*%
D24*
%TO.C,C11*%
X63775000Y-85500000D03*
X62225000Y-85500000D03*
%TD*%
D13*
%TO.C,LED4*%
X99525000Y-85550040D03*
X99525000Y-86500000D03*
X100475000Y-86500000D03*
X100475000Y-85550040D03*
%TD*%
D15*
%TO.C,R23*%
X99850000Y-77400000D03*
X98200000Y-77400000D03*
%TD*%
D26*
%TO.C,R4*%
X67700000Y-89000020D03*
X67700000Y-90650020D03*
%TD*%
D24*
%TO.C,C30*%
X99800000Y-75800000D03*
X98250000Y-75800000D03*
%TD*%
D27*
%TO.C,LS1*%
X172455000Y-76740000D03*
X161505000Y-76740000D03*
%TD*%
D13*
%TO.C,LED7*%
X129525000Y-85550040D03*
X129525000Y-86500000D03*
X130475000Y-86500000D03*
X130475000Y-85550040D03*
%TD*%
D15*
%TO.C,R17*%
X165825000Y-86000000D03*
X164175000Y-86000000D03*
%TD*%
D12*
%TO.C,R27*%
X125020000Y-75785000D03*
X125020000Y-74135000D03*
%TD*%
D28*
%TO.C,C13*%
X74100000Y-79525000D03*
X74100000Y-81075000D03*
%TD*%
D14*
%TO.C,C25*%
X109525000Y-88225020D03*
X111075000Y-88225020D03*
%TD*%
%TO.C,C18*%
X99525000Y-88225020D03*
X101075000Y-88225020D03*
%TD*%
D13*
%TO.C,LED5*%
X109525000Y-85550040D03*
X109525000Y-86500000D03*
X110475000Y-86500000D03*
X110475000Y-85550040D03*
%TD*%
D29*
%TO.C,D5*%
X166480000Y-92210000D03*
X166480000Y-93610000D03*
%TD*%
D12*
%TO.C,R11*%
X76890000Y-84515000D03*
X76890000Y-82865000D03*
%TD*%
D30*
%TO.C,P1*%
X168725000Y-92110000D03*
X168725000Y-91310000D03*
D31*
X168725000Y-90160000D03*
X168725000Y-89160000D03*
X168725000Y-88660000D03*
X168725000Y-87660000D03*
D30*
X168725000Y-86510000D03*
X168725000Y-85710000D03*
D31*
X168725000Y-87160000D03*
X168725000Y-88160000D03*
X168725000Y-89660000D03*
X168725000Y-90660000D03*
%TD*%
D13*
%TO.C,LED10*%
X159525000Y-85550040D03*
X159525000Y-86500000D03*
X160475000Y-86500000D03*
X160475000Y-85550040D03*
%TD*%
D15*
%TO.C,R32*%
X155927187Y-76207486D03*
X154277187Y-76207486D03*
%TD*%
D14*
%TO.C,C29*%
X159525000Y-88225020D03*
X161075000Y-88225020D03*
%TD*%
D15*
%TO.C,R30*%
X144850000Y-74200000D03*
X143200000Y-74200000D03*
%TD*%
M02*
