M48
; DRILL file {KiCad 9.0.7} date 2026-02-03T10:56:04-0600
; FORMAT={-:-/ absolute / inch / decimal}
; #@! TF.CreationDate,2026-02-03T10:56:04-06:00
; #@! TF.GenerationSoftware,Kicad,Pcbnew,9.0.7
; #@! TF.FileFunction,Plated,1,2,PTH
FMAT,2
INCH
; #@! TA.AperFunction,Plated,PTH,ViaDrill
T1C0.0100
; #@! TA.AperFunction,Plated,PTH,ComponentDrill
T2C0.0100
; #@! TA.AperFunction,Plated,PTH,ComponentDrill
T3C0.0236
%
G90
G05
T1
X2.437Y-3.3228
X2.5157Y-3.6024
X2.5827Y-3.4272
X2.6811Y-3.311
X2.7126Y-2.8386
X2.7441Y-2.8386
X2.7559Y-3.1457
X2.8465Y-3.1929
X2.8465Y-3.2244
X2.8504Y-2.9724
X2.8504Y-3.0039
X2.8504Y-3.0354
X2.854Y-2.8465
X2.8583Y-3.4734
X2.8622Y-2.7874
X2.9173Y-3.2402
X2.9724Y-3.3642
X3.0276Y-3.2087
X3.0551Y-2.7835
X3.0709Y-3.3278
X3.0709Y-3.4459
X3.0709Y-3.6033
X3.1102Y-2.9843
X3.1214Y-3.0945
X3.1459Y-3.0745
X3.1732Y-3.0554
X3.1811Y-2.874
X3.1811Y-3.1181
X3.1969Y-3.0354
X3.2677Y-3.3278
X3.2677Y-3.4459
X3.2677Y-3.6033
X3.3238Y-3.2183
X3.3516Y-3.2177
X3.3543Y-3.1614
X3.4646Y-3.3278
X3.4646Y-3.4459
X3.4646Y-3.6033
X3.563Y-3.2874
X3.6614Y-3.3278
X3.6614Y-3.4459
X3.6614Y-3.6033
X3.815Y-2.9843
X3.8583Y-3.3278
X3.8583Y-3.4459
X3.8583Y-3.6033
X4.0551Y-3.3278
X4.0551Y-3.4459
X4.0551Y-3.6033
X4.0681Y-3.2157
X4.2327Y-3.1441
X4.252Y-3.3278
X4.252Y-3.4459
X4.252Y-3.6033
X4.3386Y-2.8622
X4.4488Y-3.3278
X4.4488Y-3.4459
X4.4488Y-3.6033
X4.6457Y-3.3278
X4.6457Y-3.4459
X4.6457Y-3.6033
X4.8425Y-3.3278
X4.8425Y-3.4459
X4.8425Y-3.6033
X4.9567Y-2.8661
X5.0394Y-3.3278
X5.0394Y-3.4459
X5.0394Y-3.6033
X5.2362Y-3.3278
X5.2362Y-3.4459
X5.2362Y-3.6033
X5.4331Y-3.3278
X5.4331Y-3.4459
X5.4331Y-3.6033
X5.5827Y-2.9843
X5.6299Y-3.3278
X5.6299Y-3.4459
X5.6299Y-3.6033
X5.7102Y-3.1626
X5.748Y-3.189
X5.8268Y-3.3278
X5.8268Y-3.4459
X5.8268Y-3.6033
X5.8681Y-3.0683
X6.0028Y-3.0
X6.0236Y-3.3278
X6.0236Y-3.4459
X6.0236Y-3.6033
X6.2717Y-3.0736
X6.4087Y-3.5185
X6.4579Y-3.2681
X6.5138Y-3.6724
X6.5945Y-3.6693
X6.6063Y-3.2874
X6.7244Y-3.026
X6.7638Y-3.6299
T2
X2.5404Y-2.9966
X2.5404Y-3.0743
X2.5792Y-2.9577
X2.5792Y-3.0354
X2.5792Y-3.1132
X2.6181Y-2.9966
X2.6181Y-3.0743
X2.657Y-2.9577
X2.657Y-3.0354
X2.657Y-3.1132
X2.6959Y-2.9966
X2.6959Y-3.0743
T3
G00X6.6437Y-3.3303
M15
G01X6.687Y-3.3303
M16
G05
G00X6.6437Y-3.6705
M15
G01X6.687Y-3.6705
M16
G05
G00X6.8142Y-3.3303
M15
G01X6.8457Y-3.3303
M16
G05
G00X6.8142Y-3.6705
M15
G01X6.8457Y-3.6705
M16
G05
M30
