%TF.GenerationSoftware,KiCad,Pcbnew,9.0.7*%
%TF.CreationDate,2026-02-03T10:56:02-06:00*%
%TF.ProjectId,FocusBeam,466f6375-7342-4656-916d-2e6b69636164,rev?*%
%TF.SameCoordinates,Original*%
%TF.FileFunction,Copper,L2,Bot*%
%TF.FilePolarity,Positive*%
%FSLAX46Y46*%
G04 Gerber Fmt 4.6, Leading zero omitted, Abs format (unit mm)*
G04 Created by KiCad (PCBNEW 9.0.7) date 2026-02-03 10:56:02*
%MOMM*%
%LPD*%
G01*
G04 APERTURE LIST*
G04 Aperture macros list*
%AMRoundRect*
0 Rectangle with rounded corners*
0 $1 Rounding radius*
0 $2 $3 $4 $5 $6 $7 $8 $9 X,Y pos of 4 corners*
0 Add a 4 corners polygon primitive as box body*
4,1,4,$2,$3,$4,$5,$6,$7,$8,$9,$2,$3,0*
0 Add four circle primitives for the rounded corners*
1,1,$1+$1,$2,$3*
1,1,$1+$1,$4,$5*
1,1,$1+$1,$6,$7*
1,1,$1+$1,$8,$9*
0 Add four rect primitives between the rounded corners*
20,1,$1+$1,$2,$3,$4,$5,0*
20,1,$1+$1,$4,$5,$6,$7,0*
20,1,$1+$1,$6,$7,$8,$9,0*
20,1,$1+$1,$8,$9,$2,$3,0*%
G04 Aperture macros list end*
%TA.AperFunction,ComponentPad*%
%ADD10C,0.508000*%
%TD*%
%TA.AperFunction,ComponentPad*%
%ADD11O,2.100000X1.000000*%
%TD*%
%TA.AperFunction,ComponentPad*%
%ADD12RoundRect,0.250000X0.650000X-0.250000X0.650000X0.250000X-0.650000X0.250000X-0.650000X-0.250000X0*%
%TD*%
%TA.AperFunction,ViaPad*%
%ADD13C,0.508000*%
%TD*%
%TA.AperFunction,Conductor*%
%ADD14C,0.762000*%
%TD*%
%TA.AperFunction,Conductor*%
%ADD15C,0.203200*%
%TD*%
G04 APERTURE END LIST*
D10*
%TO.P,U7,49,EPAD*%
%TO.N,GND*%
X65512500Y-79075000D03*
X67487500Y-79075000D03*
X64525000Y-78087500D03*
X66500000Y-78087500D03*
X68475000Y-78087500D03*
X65512500Y-77100000D03*
X67487500Y-77100000D03*
X64525000Y-76112500D03*
X66500000Y-76112500D03*
X68475000Y-76112500D03*
X65512500Y-75125000D03*
X67487500Y-75125000D03*
%TD*%
D11*
%TO.P,P1,S1,SHIELD*%
%TO.N,Net-(P1-SHIELD)*%
X169300000Y-93230000D03*
%TO.P,P1,SH2*%
%TO.N,N/C*%
X169300000Y-84590000D03*
D12*
%TO.P,P1,SH3*%
X173480000Y-93230000D03*
%TO.P,P1,SH4*%
X173480000Y-84590000D03*
%TD*%
D13*
%TO.N,GND*%
X61900000Y-84400000D03*
X103000000Y-84525020D03*
X108000000Y-87525020D03*
X103330000Y-81680000D03*
X149050000Y-77935000D03*
X103000000Y-91525020D03*
X148000000Y-91525020D03*
X133000000Y-84525020D03*
X123000000Y-91525020D03*
X159300000Y-78070000D03*
X123000000Y-87525020D03*
X93000000Y-91525020D03*
X98000000Y-87525020D03*
X128000000Y-87525020D03*
X128000000Y-84525020D03*
X153000000Y-87525020D03*
X77600000Y-70700000D03*
X148000000Y-87525020D03*
X125900000Y-72800000D03*
X88000000Y-84525020D03*
X138000000Y-84525020D03*
X118000000Y-87525020D03*
X98000000Y-84525020D03*
X83000000Y-91525020D03*
X88000000Y-87525020D03*
X164030000Y-83010000D03*
X78000000Y-84525020D03*
X165450000Y-93280000D03*
X143000000Y-91525020D03*
X167500000Y-93200000D03*
X133000000Y-87525020D03*
X93000000Y-84525020D03*
X78000000Y-87525020D03*
X138000000Y-91525020D03*
X83000000Y-84525020D03*
X107510000Y-79860000D03*
X83000000Y-87525020D03*
X118000000Y-84525020D03*
X72600000Y-88225020D03*
X148000000Y-84525020D03*
X96900000Y-75800000D03*
X108000000Y-84525020D03*
X90500000Y-83500000D03*
X146000000Y-81000000D03*
X128000000Y-91525020D03*
X167800000Y-83500000D03*
X143000000Y-87525020D03*
X78000000Y-91525020D03*
X80800000Y-73000000D03*
X138000000Y-87525020D03*
X74100000Y-82300000D03*
X153000000Y-84525020D03*
X118000000Y-91525020D03*
X171800000Y-92200000D03*
X113000000Y-87525020D03*
X123000000Y-84525020D03*
X113000000Y-91525020D03*
X103000000Y-87525020D03*
X133000000Y-91525020D03*
X88000000Y-91525020D03*
X80800000Y-79200000D03*
X170800000Y-76860000D03*
X110200000Y-72700000D03*
X98000000Y-91525020D03*
X153000000Y-91525020D03*
X93000000Y-87525020D03*
X113000000Y-84525020D03*
X141800000Y-75800000D03*
X162780000Y-89370000D03*
X108000000Y-91525020D03*
X72700000Y-70800000D03*
X143000000Y-84525020D03*
%TO.N,+3V3*%
X75500000Y-85450000D03*
X65600000Y-87050000D03*
%TO.N,/CP_EN*%
X76900000Y-81500000D03*
X68100000Y-84100000D03*
%TO.N,Net-(Q1-S)*%
X63900000Y-91500000D03*
X70000000Y-79900000D03*
%TO.N,/USB_D+*%
X68900000Y-72100000D03*
X84425789Y-81744211D03*
%TO.N,/USB_D-*%
X85130000Y-81730000D03*
X69700000Y-72100000D03*
%TO.N,/SW_0*%
X79000000Y-75800000D03*
X72400000Y-75500000D03*
%TO.N,/SW_1*%
X81200000Y-77100000D03*
X72400000Y-76300000D03*
%TO.N,/SW_2*%
X80600000Y-77608000D03*
X72400000Y-77100000D03*
%TO.N,/SW_3*%
X79904699Y-78092000D03*
X72300000Y-81100000D03*
%TO.N,/SW_4*%
X72300000Y-81900000D03*
X79284540Y-78600000D03*
%TO.N,Net-(U7-IO22)*%
X145040000Y-80330000D03*
X85200000Y-80300000D03*
X72492000Y-72300000D03*
X152470000Y-76200000D03*
%TD*%
D14*
%TO.N,+3V3*%
X75500000Y-85450000D02*
X73900000Y-87050000D01*
X73900000Y-87050000D02*
X65600000Y-87050000D01*
D15*
%TO.N,/CP_EN*%
X75900000Y-84100000D02*
X68100000Y-84100000D01*
X76900000Y-83100000D02*
X75900000Y-84100000D01*
X76900000Y-81500000D02*
X76900000Y-83100000D01*
%TO.N,Net-(Q1-S)*%
X63900000Y-82300000D02*
X63900000Y-91500000D01*
X64900000Y-81300000D02*
X63900000Y-82300000D01*
X70000000Y-79900000D02*
X70000000Y-80000000D01*
X68700000Y-81300000D02*
X64900000Y-81300000D01*
X70000000Y-80000000D02*
X68700000Y-81300000D01*
%TO.N,/USB_D+*%
X70300000Y-74200000D02*
X68900000Y-72800000D01*
X68900000Y-72800000D02*
X68900000Y-72100000D01*
X84425789Y-81744211D02*
X83343400Y-80661822D01*
X83343400Y-80661822D02*
X83343400Y-76447708D01*
X81095692Y-74200000D02*
X70300000Y-74200000D01*
X83343400Y-76447708D02*
X81095692Y-74200000D01*
%TO.N,/USB_D-*%
X70543400Y-73843400D02*
X69700000Y-73000000D01*
X85130000Y-81730000D02*
X83700000Y-80300000D01*
X83700000Y-76300000D02*
X81243401Y-73843400D01*
X69700000Y-73000000D02*
X69700000Y-72100000D01*
X83700000Y-80300000D02*
X83700000Y-76300000D01*
X81243401Y-73843400D02*
X70543400Y-73843400D01*
%TO.N,/SW_0*%
X78700000Y-75500000D02*
X79000000Y-75800000D01*
X72400000Y-75500000D02*
X78700000Y-75500000D01*
%TO.N,/SW_1*%
X78400000Y-76300000D02*
X72400000Y-76300000D01*
X79200000Y-77100000D02*
X78400000Y-76300000D01*
X81200000Y-77100000D02*
X79200000Y-77100000D01*
%TO.N,/SW_2*%
X78600000Y-77100000D02*
X72400000Y-77100000D01*
X80600000Y-77608000D02*
X80546000Y-77554000D01*
X80546000Y-77554000D02*
X80354000Y-77554000D01*
X79000000Y-77500000D02*
X78600000Y-77100000D01*
X80300000Y-77500000D02*
X79000000Y-77500000D01*
X80354000Y-77554000D02*
X80300000Y-77500000D01*
%TO.N,/SW_3*%
X74800000Y-77900000D02*
X74300000Y-78400000D01*
X74300000Y-80195692D02*
X73395692Y-81100000D01*
X79592000Y-77900000D02*
X74800000Y-77900000D01*
X79904699Y-78092000D02*
X79784000Y-78092000D01*
X74300000Y-78400000D02*
X74300000Y-80195692D01*
X79784000Y-78092000D02*
X79592000Y-77900000D01*
X73395692Y-81100000D02*
X72300000Y-81100000D01*
%TO.N,/SW_4*%
X79284540Y-78600000D02*
X78984540Y-78300000D01*
X74700000Y-80300000D02*
X73100000Y-81900000D01*
X73100000Y-81900000D02*
X72300000Y-81900000D01*
X75000000Y-78300000D02*
X74700000Y-78600000D01*
X74700000Y-78600000D02*
X74700000Y-80300000D01*
X78984540Y-78300000D02*
X75000000Y-78300000D01*
%TO.N,Net-(U7-IO22)*%
X81700000Y-72300000D02*
X72492000Y-72300000D01*
X85200000Y-75800000D02*
X81700000Y-72300000D01*
X85200000Y-80300000D02*
X85200000Y-75800000D01*
X148270000Y-76200000D02*
X152470000Y-76200000D01*
X145040000Y-79430000D02*
X148270000Y-76200000D01*
X145040000Y-80330000D02*
X145040000Y-79430000D01*
%TD*%
%TA.AperFunction,Conductor*%
%TO.N,GND*%
G36*
X173003280Y-70000715D02*
G01*
X173232526Y-70015740D01*
X173240193Y-70016542D01*
X173293285Y-70024175D01*
X173298524Y-70025072D01*
X173496816Y-70064515D01*
X173505499Y-70066648D01*
X173549225Y-70079488D01*
X173553159Y-70080732D01*
X173753123Y-70148611D01*
X173762533Y-70152346D01*
X173787198Y-70163611D01*
X173789805Y-70164849D01*
X173993829Y-70265462D01*
X174005225Y-70272041D01*
X174211739Y-70410029D01*
X174222172Y-70418035D01*
X174398611Y-70572767D01*
X174408902Y-70581792D01*
X174418207Y-70591097D01*
X174581962Y-70777824D01*
X174589970Y-70788260D01*
X174727958Y-70994774D01*
X174734534Y-71006163D01*
X174787370Y-71113303D01*
X174835127Y-71210146D01*
X174836408Y-71212845D01*
X174843276Y-71227882D01*
X174847645Y-71237449D01*
X174851396Y-71246899D01*
X174919254Y-71446803D01*
X174920518Y-71450798D01*
X174933346Y-71494486D01*
X174935488Y-71503202D01*
X174974920Y-71701442D01*
X174975829Y-71706751D01*
X174983452Y-71759768D01*
X174984261Y-71767505D01*
X174999285Y-71996719D01*
X174999500Y-72003299D01*
X174999500Y-92996700D01*
X174999285Y-93003280D01*
X174984261Y-93232493D01*
X174983452Y-93240230D01*
X174975829Y-93293247D01*
X174974920Y-93298556D01*
X174935488Y-93496796D01*
X174933346Y-93505512D01*
X174920518Y-93549200D01*
X174919254Y-93553195D01*
X174851396Y-93753099D01*
X174847643Y-93762555D01*
X174836422Y-93787124D01*
X174835140Y-93789825D01*
X174734534Y-93993835D01*
X174727954Y-94005231D01*
X174589970Y-94211739D01*
X174581959Y-94222179D01*
X174418207Y-94408902D01*
X174408902Y-94418207D01*
X174222179Y-94581959D01*
X174211739Y-94589970D01*
X174005231Y-94727954D01*
X173993835Y-94734534D01*
X173789825Y-94835140D01*
X173787124Y-94836422D01*
X173762555Y-94847643D01*
X173753099Y-94851396D01*
X173553195Y-94919254D01*
X173549200Y-94920518D01*
X173505512Y-94933346D01*
X173496796Y-94935488D01*
X173298556Y-94974920D01*
X173293247Y-94975829D01*
X173240230Y-94983452D01*
X173232493Y-94984261D01*
X173003280Y-94999285D01*
X172996700Y-94999500D01*
X61300600Y-94999500D01*
X61241469Y-94980287D01*
X61204924Y-94929987D01*
X61200000Y-94898900D01*
X61200000Y-91439740D01*
X63442300Y-91439740D01*
X63442300Y-91560259D01*
X63473493Y-91676668D01*
X63513653Y-91746227D01*
X63533749Y-91781034D01*
X63618966Y-91866251D01*
X63618968Y-91866252D01*
X63723331Y-91926506D01*
X63723335Y-91926508D01*
X63839743Y-91957700D01*
X63960257Y-91957700D01*
X64076665Y-91926508D01*
X64120171Y-91901390D01*
X71747100Y-91901390D01*
X71747100Y-92098609D01*
X71777950Y-92293383D01*
X71777953Y-92293397D01*
X71838891Y-92480947D01*
X71928424Y-92656663D01*
X72044340Y-92816207D01*
X72044342Y-92816209D01*
X72183791Y-92955658D01*
X72343337Y-93071576D01*
X72429520Y-93115488D01*
X72519052Y-93161108D01*
X72706602Y-93222046D01*
X72706604Y-93222046D01*
X72706612Y-93222049D01*
X72901390Y-93252899D01*
X72901392Y-93252900D01*
X72901395Y-93252900D01*
X73098608Y-93252900D01*
X73098608Y-93252899D01*
X73293388Y-93222049D01*
X73480947Y-93161108D01*
X73656663Y-93071576D01*
X73816209Y-92955658D01*
X73955658Y-92816209D01*
X74071576Y-92656663D01*
X74161108Y-92480947D01*
X74222049Y-92293388D01*
X74252900Y-92098605D01*
X74252900Y-91901395D01*
X74252900Y-91901391D01*
X74252899Y-91901390D01*
X155747100Y-91901390D01*
X155747100Y-92098609D01*
X155777950Y-92293383D01*
X155777953Y-92293397D01*
X155838891Y-92480947D01*
X155928424Y-92656663D01*
X156044340Y-92816207D01*
X156044342Y-92816209D01*
X156183791Y-92955658D01*
X156343337Y-93071576D01*
X156429520Y-93115488D01*
X156519052Y-93161108D01*
X156706602Y-93222046D01*
X156706604Y-93222046D01*
X156706612Y-93222049D01*
X156901390Y-93252899D01*
X156901392Y-93252900D01*
X156901395Y-93252900D01*
X157098608Y-93252900D01*
X157098608Y-93252899D01*
X157293388Y-93222049D01*
X157480947Y-93161108D01*
X157481763Y-93160692D01*
X168046300Y-93160692D01*
X168046300Y-93299307D01*
X168073343Y-93435264D01*
X168126387Y-93563323D01*
X168126388Y-93563326D01*
X168127708Y-93565301D01*
X168203400Y-93678583D01*
X168301417Y-93776600D01*
X168416673Y-93853611D01*
X168480705Y-93880134D01*
X168544735Y-93906656D01*
X168544736Y-93906656D01*
X168544738Y-93906657D01*
X168680692Y-93933700D01*
X168680693Y-93933700D01*
X169919307Y-93933700D01*
X169919308Y-93933700D01*
X170055262Y-93906657D01*
X170183327Y-93853611D01*
X170298583Y-93776600D01*
X170396600Y-93678583D01*
X170473611Y-93563327D01*
X170526657Y-93435262D01*
X170553700Y-93299308D01*
X170553700Y-93160692D01*
X170526657Y-93024738D01*
X170517769Y-93003280D01*
X170500461Y-92961493D01*
X170485491Y-92925352D01*
X172376300Y-92925352D01*
X172376300Y-93534644D01*
X172376301Y-93534655D01*
X172379173Y-93565298D01*
X172424346Y-93694395D01*
X172492783Y-93787124D01*
X172505562Y-93804438D01*
X172615605Y-93885654D01*
X172744699Y-93930826D01*
X172775347Y-93933700D01*
X174184652Y-93933699D01*
X174215301Y-93930826D01*
X174344395Y-93885654D01*
X174454438Y-93804438D01*
X174535654Y-93694395D01*
X174580826Y-93565301D01*
X174583700Y-93534653D01*
X174583699Y-92925348D01*
X174580826Y-92894699D01*
X174535654Y-92765605D01*
X174454438Y-92655562D01*
X174387811Y-92606389D01*
X174344395Y-92574346D01*
X174215301Y-92529174D01*
X174184653Y-92526300D01*
X174184647Y-92526300D01*
X172775355Y-92526300D01*
X172775344Y-92526301D01*
X172744701Y-92529173D01*
X172615604Y-92574346D01*
X172505562Y-92655561D01*
X172505561Y-92655562D01*
X172424346Y-92765604D01*
X172406639Y-92816209D01*
X172379174Y-92894699D01*
X172376301Y-92925344D01*
X172376300Y-92925352D01*
X170485491Y-92925352D01*
X170473613Y-92896677D01*
X170473611Y-92896673D01*
X170472292Y-92894699D01*
X170396600Y-92781417D01*
X170298583Y-92683400D01*
X170183327Y-92606389D01*
X170183328Y-92606389D01*
X170183326Y-92606388D01*
X170183323Y-92606387D01*
X170055264Y-92553343D01*
X169964626Y-92535314D01*
X169919308Y-92526300D01*
X168680692Y-92526300D01*
X168646703Y-92533060D01*
X168544735Y-92553343D01*
X168416676Y-92606387D01*
X168416673Y-92606388D01*
X168301413Y-92683403D01*
X168203403Y-92781413D01*
X168126388Y-92896673D01*
X168126387Y-92896676D01*
X168073343Y-93024735D01*
X168046300Y-93160692D01*
X157481763Y-93160692D01*
X157656663Y-93071576D01*
X157816209Y-92955658D01*
X157955658Y-92816209D01*
X158071576Y-92656663D01*
X158161108Y-92480947D01*
X158222049Y-92293388D01*
X158252900Y-92098605D01*
X158252900Y-91901395D01*
X158252900Y-91901391D01*
X158252899Y-91901390D01*
X158228324Y-91746227D01*
X158226874Y-91737077D01*
X169322100Y-91737077D01*
X169322100Y-91862922D01*
X169354666Y-91984459D01*
X169354668Y-91984464D01*
X169417585Y-92093438D01*
X169506561Y-92182414D01*
X169506560Y-92182414D01*
X169506562Y-92182415D01*
X169615537Y-92245332D01*
X169615538Y-92245332D01*
X169615540Y-92245333D01*
X169737077Y-92277899D01*
X169737081Y-92277899D01*
X169737083Y-92277900D01*
X169737085Y-92277900D01*
X169862915Y-92277900D01*
X169862917Y-92277900D01*
X169862919Y-92277899D01*
X169862922Y-92277899D01*
X169984459Y-92245333D01*
X169984458Y-92245333D01*
X169984463Y-92245332D01*
X170093438Y-92182415D01*
X170182415Y-92093438D01*
X170245332Y-91984463D01*
X170260861Y-91926508D01*
X170277899Y-91862922D01*
X170277900Y-91862915D01*
X170277900Y-91737084D01*
X170277899Y-91737077D01*
X170245333Y-91615540D01*
X170245331Y-91615535D01*
X170213415Y-91560256D01*
X170182415Y-91506562D01*
X170093438Y-91417585D01*
X170093439Y-91417585D01*
X169984464Y-91354668D01*
X169984459Y-91354666D01*
X169862922Y-91322100D01*
X169862917Y-91322100D01*
X169737083Y-91322100D01*
X169737077Y-91322100D01*
X169615540Y-91354666D01*
X169615535Y-91354668D01*
X169506561Y-91417585D01*
X169417585Y-91506561D01*
X169354668Y-91615535D01*
X169354666Y-91615540D01*
X169322100Y-91737077D01*
X158226874Y-91737077D01*
X158225500Y-91728402D01*
X158222049Y-91706612D01*
X158192458Y-91615540D01*
X158161108Y-91519052D01*
X158071575Y-91343336D01*
X158057043Y-91323335D01*
X157981216Y-91218968D01*
X157955659Y-91183792D01*
X157816207Y-91044340D01*
X157656663Y-90928424D01*
X157480947Y-90838891D01*
X157293397Y-90777953D01*
X157293383Y-90777950D01*
X157098609Y-90747100D01*
X157098605Y-90747100D01*
X156901395Y-90747100D01*
X156901391Y-90747100D01*
X156706616Y-90777950D01*
X156706602Y-90777953D01*
X156519052Y-90838891D01*
X156343336Y-90928424D01*
X156183792Y-91044340D01*
X156044340Y-91183792D01*
X155928424Y-91343336D01*
X155838891Y-91519052D01*
X155777953Y-91706602D01*
X155777950Y-91706616D01*
X155747100Y-91901390D01*
X74252899Y-91901390D01*
X74247334Y-91866252D01*
X74222049Y-91706612D01*
X74192458Y-91615540D01*
X74161108Y-91519052D01*
X74071575Y-91343336D01*
X74057043Y-91323335D01*
X73981216Y-91218968D01*
X73955659Y-91183792D01*
X73816207Y-91044340D01*
X73656663Y-90928424D01*
X73480947Y-90838891D01*
X73293397Y-90777953D01*
X73293383Y-90777950D01*
X73098609Y-90747100D01*
X73098605Y-90747100D01*
X72901395Y-90747100D01*
X72901391Y-90747100D01*
X72706616Y-90777950D01*
X72706602Y-90777953D01*
X72519052Y-90838891D01*
X72343336Y-90928424D01*
X72183792Y-91044340D01*
X72044340Y-91183792D01*
X71928424Y-91343336D01*
X71838891Y-91519052D01*
X71777953Y-91706602D01*
X71777950Y-91706616D01*
X71747100Y-91901390D01*
X64120171Y-91901390D01*
X64181034Y-91866251D01*
X64266251Y-91781034D01*
X64326508Y-91676665D01*
X64357700Y-91560257D01*
X64357700Y-91439743D01*
X64326508Y-91323335D01*
X64266251Y-91218966D01*
X64234764Y-91187479D01*
X64206538Y-91132081D01*
X64205300Y-91116345D01*
X64205300Y-86973020D01*
X65015300Y-86973020D01*
X65015300Y-87126979D01*
X65055148Y-87275689D01*
X65132124Y-87409014D01*
X65240985Y-87517875D01*
X65240984Y-87517875D01*
X65374310Y-87594851D01*
X65374311Y-87594851D01*
X65374314Y-87594853D01*
X65523023Y-87634700D01*
X65523025Y-87634700D01*
X73976975Y-87634700D01*
X73976977Y-87634700D01*
X74125686Y-87594853D01*
X74259014Y-87517876D01*
X74367876Y-87409014D01*
X74367875Y-87409014D01*
X75819814Y-85957077D01*
X169322100Y-85957077D01*
X169322100Y-86082922D01*
X169354666Y-86204459D01*
X169354668Y-86204464D01*
X169417585Y-86313438D01*
X169506561Y-86402414D01*
X169506560Y-86402414D01*
X169615482Y-86465300D01*
X169615537Y-86465332D01*
X169615538Y-86465332D01*
X169615540Y-86465333D01*
X169737077Y-86497899D01*
X169737081Y-86497899D01*
X169737083Y-86497900D01*
X169737085Y-86497900D01*
X169862915Y-86497900D01*
X169862917Y-86497900D01*
X169862919Y-86497899D01*
X169862922Y-86497899D01*
X169984459Y-86465333D01*
X169984458Y-86465333D01*
X169984463Y-86465332D01*
X170093438Y-86402415D01*
X170182415Y-86313438D01*
X170245332Y-86204463D01*
X170277900Y-86082917D01*
X170277900Y-85957083D01*
X170277899Y-85957081D01*
X170277899Y-85957077D01*
X170245333Y-85835540D01*
X170245331Y-85835535D01*
X170182414Y-85726561D01*
X170093438Y-85637585D01*
X170093439Y-85637585D01*
X169984464Y-85574668D01*
X169984459Y-85574666D01*
X169862922Y-85542100D01*
X169862917Y-85542100D01*
X169737083Y-85542100D01*
X169737077Y-85542100D01*
X169615540Y-85574666D01*
X169615535Y-85574668D01*
X169506561Y-85637585D01*
X169417585Y-85726561D01*
X169354668Y-85835535D01*
X169354666Y-85835540D01*
X169322100Y-85957077D01*
X75819814Y-85957077D01*
X75967877Y-85809014D01*
X76044854Y-85675685D01*
X76084700Y-85526977D01*
X76084700Y-85373023D01*
X76063446Y-85293700D01*
X76044856Y-85224321D01*
X76044854Y-85224316D01*
X76044854Y-85224315D01*
X75967877Y-85090985D01*
X75859015Y-84982123D01*
X75725685Y-84905146D01*
X75725684Y-84905145D01*
X75725683Y-84905145D01*
X75725678Y-84905143D01*
X75576981Y-84865300D01*
X75576977Y-84865300D01*
X75423023Y-84865300D01*
X75423018Y-84865300D01*
X75274321Y-84905143D01*
X75274314Y-84905146D01*
X75239405Y-84925301D01*
X75140986Y-84982123D01*
X74396549Y-85726561D01*
X73687275Y-86435835D01*
X73631877Y-86464061D01*
X73616140Y-86465300D01*
X65523020Y-86465300D01*
X65374310Y-86505148D01*
X65240985Y-86582124D01*
X65132124Y-86690985D01*
X65055148Y-86824310D01*
X65015300Y-86973020D01*
X64205300Y-86973020D01*
X64205300Y-84039740D01*
X67642300Y-84039740D01*
X67642300Y-84160259D01*
X67673493Y-84276668D01*
X67712541Y-84344301D01*
X67733749Y-84381034D01*
X67818966Y-84466251D01*
X67818968Y-84466252D01*
X67923331Y-84526506D01*
X67923335Y-84526508D01*
X68039743Y-84557700D01*
X68160257Y-84557700D01*
X68276665Y-84526508D01*
X68286739Y-84520692D01*
X168046300Y-84520692D01*
X168046300Y-84659307D01*
X168073343Y-84795264D01*
X168126387Y-84923323D01*
X168126388Y-84923326D01*
X168127708Y-84925301D01*
X168203400Y-85038583D01*
X168301417Y-85136600D01*
X168416673Y-85213611D01*
X168480705Y-85240134D01*
X168544735Y-85266656D01*
X168544736Y-85266656D01*
X168544738Y-85266657D01*
X168680692Y-85293700D01*
X168680693Y-85293700D01*
X169919307Y-85293700D01*
X169919308Y-85293700D01*
X170055262Y-85266657D01*
X170183327Y-85213611D01*
X170298583Y-85136600D01*
X170396600Y-85038583D01*
X170473611Y-84923327D01*
X170526657Y-84795262D01*
X170553700Y-84659308D01*
X170553700Y-84520692D01*
X170526657Y-84384738D01*
X170525122Y-84381031D01*
X170500461Y-84321493D01*
X170485491Y-84285352D01*
X172376300Y-84285352D01*
X172376300Y-84894644D01*
X172376301Y-84894655D01*
X172379173Y-84925298D01*
X172424346Y-85054395D01*
X172485013Y-85136596D01*
X172505562Y-85164438D01*
X172615605Y-85245654D01*
X172744699Y-85290826D01*
X172775347Y-85293700D01*
X174184652Y-85293699D01*
X174215301Y-85290826D01*
X174344395Y-85245654D01*
X174454438Y-85164438D01*
X174535654Y-85054395D01*
X174580826Y-84925301D01*
X174583700Y-84894653D01*
X174583699Y-84285348D01*
X174580826Y-84254699D01*
X174535654Y-84125605D01*
X174454438Y-84015562D01*
X174387811Y-83966389D01*
X174344395Y-83934346D01*
X174312927Y-83923335D01*
X174215301Y-83889174D01*
X174184653Y-83886300D01*
X174184647Y-83886300D01*
X172775355Y-83886300D01*
X172775344Y-83886301D01*
X172744701Y-83889173D01*
X172615604Y-83934346D01*
X172505562Y-84015561D01*
X172505561Y-84015562D01*
X172424346Y-84125604D01*
X172418813Y-84141417D01*
X172379174Y-84254699D01*
X172376301Y-84285344D01*
X172376300Y-84285352D01*
X170485491Y-84285352D01*
X170473613Y-84256677D01*
X170473611Y-84256673D01*
X170472292Y-84254699D01*
X170396600Y-84141417D01*
X170298583Y-84043400D01*
X170183327Y-83966389D01*
X170183328Y-83966389D01*
X170183326Y-83966388D01*
X170183323Y-83966387D01*
X170055264Y-83913343D01*
X169964626Y-83895314D01*
X169919308Y-83886300D01*
X168680692Y-83886300D01*
X168646703Y-83893060D01*
X168544735Y-83913343D01*
X168416676Y-83966387D01*
X168416673Y-83966388D01*
X168343081Y-84015561D01*
X168306891Y-84039743D01*
X168301413Y-84043403D01*
X168203403Y-84141413D01*
X168126388Y-84256673D01*
X168126387Y-84256676D01*
X168073343Y-84384735D01*
X168046300Y-84520692D01*
X68286739Y-84520692D01*
X68381034Y-84466251D01*
X68412520Y-84434765D01*
X68467918Y-84406539D01*
X68483655Y-84405300D01*
X75940191Y-84405300D01*
X75940193Y-84405300D01*
X76017841Y-84384494D01*
X76052253Y-84364626D01*
X76087459Y-84344300D01*
X77144301Y-83287459D01*
X77184494Y-83217841D01*
X77205300Y-83140193D01*
X77205300Y-81883654D01*
X77224513Y-81824523D01*
X77234759Y-81812525D01*
X77266251Y-81781034D01*
X77326508Y-81676665D01*
X77357700Y-81560257D01*
X77357700Y-81439743D01*
X77326508Y-81323335D01*
X77315052Y-81303493D01*
X77266252Y-81218968D01*
X77266251Y-81218966D01*
X77181034Y-81133749D01*
X77181031Y-81133747D01*
X77076668Y-81073493D01*
X77076665Y-81073492D01*
X77045478Y-81065135D01*
X76960259Y-81042300D01*
X76960257Y-81042300D01*
X76839743Y-81042300D01*
X76839740Y-81042300D01*
X76723331Y-81073493D01*
X76618968Y-81133747D01*
X76618967Y-81133748D01*
X76618966Y-81133749D01*
X76533749Y-81218966D01*
X76533748Y-81218967D01*
X76533747Y-81218968D01*
X76473493Y-81323331D01*
X76442300Y-81439740D01*
X76442300Y-81560259D01*
X76448794Y-81584493D01*
X76471636Y-81669740D01*
X76473493Y-81676668D01*
X76521570Y-81759940D01*
X76533749Y-81781034D01*
X76565236Y-81812521D01*
X76593461Y-81867917D01*
X76594700Y-81883654D01*
X76594700Y-82931870D01*
X76575487Y-82991001D01*
X76565235Y-83003005D01*
X75803006Y-83765235D01*
X75747608Y-83793461D01*
X75731871Y-83794700D01*
X68483655Y-83794700D01*
X68424524Y-83775487D01*
X68412521Y-83765236D01*
X68412520Y-83765235D01*
X68381034Y-83733749D01*
X68381031Y-83733747D01*
X68276668Y-83673493D01*
X68276665Y-83673492D01*
X68245478Y-83665135D01*
X68160259Y-83642300D01*
X68160257Y-83642300D01*
X68039743Y-83642300D01*
X68039740Y-83642300D01*
X67923331Y-83673493D01*
X67818968Y-83733747D01*
X67818967Y-83733748D01*
X67818966Y-83733749D01*
X67733749Y-83818966D01*
X67733748Y-83818967D01*
X67733747Y-83818968D01*
X67673493Y-83923331D01*
X67642300Y-84039740D01*
X64205300Y-84039740D01*
X64205300Y-82468129D01*
X64224513Y-82408998D01*
X64234765Y-82396994D01*
X64996995Y-81634765D01*
X65052393Y-81606539D01*
X65068130Y-81605300D01*
X68740191Y-81605300D01*
X68740193Y-81605300D01*
X68817841Y-81584494D01*
X68887459Y-81544300D01*
X69392019Y-81039740D01*
X71842300Y-81039740D01*
X71842300Y-81160259D01*
X71858032Y-81218968D01*
X71872322Y-81272300D01*
X71873493Y-81276668D01*
X71933747Y-81381031D01*
X71933749Y-81381034D01*
X71958015Y-81405300D01*
X71981581Y-81428866D01*
X72009807Y-81484264D01*
X72000080Y-81545672D01*
X71981581Y-81571134D01*
X71933747Y-81618968D01*
X71873493Y-81723331D01*
X71842300Y-81839740D01*
X71842300Y-81960259D01*
X71873493Y-82076668D01*
X71933747Y-82181031D01*
X71933749Y-82181034D01*
X72018966Y-82266251D01*
X72018968Y-82266252D01*
X72123331Y-82326506D01*
X72123335Y-82326508D01*
X72239743Y-82357700D01*
X72360257Y-82357700D01*
X72476665Y-82326508D01*
X72581034Y-82266251D01*
X72612521Y-82234764D01*
X72667919Y-82206538D01*
X72683655Y-82205300D01*
X73140191Y-82205300D01*
X73140193Y-82205300D01*
X73217841Y-82184494D01*
X73252253Y-82164626D01*
X73287459Y-82144300D01*
X74944301Y-80487459D01*
X74984494Y-80417841D01*
X74986459Y-80410505D01*
X74993789Y-80383153D01*
X74993789Y-80383150D01*
X75005300Y-80340193D01*
X75005300Y-78768129D01*
X75007808Y-78760408D01*
X75006539Y-78752392D01*
X75017233Y-78731403D01*
X75024513Y-78708998D01*
X75034765Y-78696994D01*
X75096994Y-78634765D01*
X75152392Y-78606539D01*
X75168129Y-78605300D01*
X78734921Y-78605300D01*
X78794052Y-78624513D01*
X78830597Y-78674813D01*
X78832093Y-78679862D01*
X78858033Y-78776668D01*
X78918287Y-78881031D01*
X78918289Y-78881034D01*
X79003506Y-78966251D01*
X79003508Y-78966252D01*
X79107871Y-79026506D01*
X79107875Y-79026508D01*
X79224283Y-79057700D01*
X79344797Y-79057700D01*
X79461205Y-79026508D01*
X79565574Y-78966251D01*
X79650791Y-78881034D01*
X79711048Y-78776665D01*
X79742240Y-78660257D01*
X79742240Y-78650300D01*
X79761453Y-78591169D01*
X79811753Y-78554624D01*
X79842840Y-78549700D01*
X79964956Y-78549700D01*
X80081364Y-78518508D01*
X80185733Y-78458251D01*
X80270950Y-78373034D01*
X80331207Y-78268665D01*
X80362399Y-78152257D01*
X80362399Y-78149285D01*
X80363056Y-78147261D01*
X80363259Y-78145723D01*
X80363544Y-78145760D01*
X80381612Y-78090154D01*
X80431912Y-78053609D01*
X80489037Y-78052113D01*
X80539743Y-78065700D01*
X80660257Y-78065700D01*
X80776665Y-78034508D01*
X80881034Y-77974251D01*
X80966251Y-77889034D01*
X81026508Y-77784665D01*
X81057700Y-77668257D01*
X81057700Y-77658300D01*
X81076913Y-77599169D01*
X81127213Y-77562624D01*
X81158300Y-77557700D01*
X81260257Y-77557700D01*
X81376665Y-77526508D01*
X81481034Y-77466251D01*
X81566251Y-77381034D01*
X81626508Y-77276665D01*
X81657700Y-77160257D01*
X81657700Y-77039743D01*
X81626508Y-76923335D01*
X81566251Y-76818966D01*
X81481034Y-76733749D01*
X81481031Y-76733747D01*
X81376668Y-76673493D01*
X81376665Y-76673492D01*
X81317726Y-76657699D01*
X81260259Y-76642300D01*
X81260257Y-76642300D01*
X81139743Y-76642300D01*
X81139740Y-76642300D01*
X81023331Y-76673493D01*
X80918968Y-76733747D01*
X80887479Y-76765236D01*
X80832081Y-76793462D01*
X80816345Y-76794700D01*
X79368130Y-76794700D01*
X79308999Y-76775487D01*
X79296995Y-76765235D01*
X79131860Y-76600100D01*
X78961193Y-76429433D01*
X78932968Y-76374037D01*
X78942694Y-76312629D01*
X78986657Y-76268665D01*
X79032329Y-76257700D01*
X79060257Y-76257700D01*
X79176665Y-76226508D01*
X79281034Y-76166251D01*
X79366251Y-76081034D01*
X79426508Y-75976665D01*
X79457700Y-75860257D01*
X79457700Y-75739743D01*
X79426508Y-75623335D01*
X79366251Y-75518966D01*
X79281034Y-75433749D01*
X79281031Y-75433747D01*
X79176668Y-75373493D01*
X79176665Y-75373492D01*
X79145478Y-75365135D01*
X79060259Y-75342300D01*
X79060257Y-75342300D01*
X79015729Y-75342300D01*
X78956598Y-75323087D01*
X78944594Y-75312835D01*
X78887461Y-75255702D01*
X78887459Y-75255700D01*
X78829169Y-75222046D01*
X78817842Y-75215506D01*
X78740195Y-75194700D01*
X78740193Y-75194700D01*
X72783655Y-75194700D01*
X72724524Y-75175487D01*
X72712521Y-75165236D01*
X72697547Y-75150262D01*
X72681034Y-75133749D01*
X72681031Y-75133747D01*
X72576668Y-75073493D01*
X72576665Y-75073492D01*
X72544242Y-75064804D01*
X72460259Y-75042300D01*
X72460257Y-75042300D01*
X72339743Y-75042300D01*
X72339740Y-75042300D01*
X72223331Y-75073493D01*
X72118968Y-75133747D01*
X72118967Y-75133748D01*
X72118966Y-75133749D01*
X72033749Y-75218966D01*
X72033748Y-75218967D01*
X72033747Y-75218968D01*
X71973493Y-75323331D01*
X71942300Y-75439740D01*
X71942300Y-75560259D01*
X71973493Y-75676668D01*
X72029395Y-75773493D01*
X72033749Y-75781034D01*
X72058015Y-75805300D01*
X72081581Y-75828866D01*
X72109807Y-75884264D01*
X72100080Y-75945672D01*
X72081581Y-75971134D01*
X72033747Y-76018968D01*
X71973493Y-76123331D01*
X71942300Y-76239740D01*
X71942300Y-76360259D01*
X71973493Y-76476668D01*
X72027205Y-76569700D01*
X72033749Y-76581034D01*
X72058015Y-76605300D01*
X72081581Y-76628866D01*
X72109807Y-76684264D01*
X72100080Y-76745672D01*
X72081581Y-76771134D01*
X72033747Y-76818968D01*
X71973493Y-76923331D01*
X71942300Y-77039740D01*
X71942300Y-77160259D01*
X71955003Y-77207665D01*
X71973441Y-77276476D01*
X71973493Y-77276668D01*
X72033747Y-77381031D01*
X72033749Y-77381034D01*
X72118966Y-77466251D01*
X72118968Y-77466252D01*
X72223331Y-77526506D01*
X72223335Y-77526508D01*
X72339743Y-77557700D01*
X72460257Y-77557700D01*
X72576665Y-77526508D01*
X72681034Y-77466251D01*
X72712521Y-77434764D01*
X72767919Y-77406538D01*
X72783655Y-77405300D01*
X74702524Y-77405300D01*
X74761655Y-77424513D01*
X74798200Y-77474813D01*
X74798200Y-77536987D01*
X74761655Y-77587287D01*
X74728561Y-77603072D01*
X74682165Y-77615503D01*
X74682156Y-77615507D01*
X74612543Y-77655696D01*
X74612542Y-77655697D01*
X74055699Y-78212541D01*
X74055698Y-78212543D01*
X74051600Y-78219642D01*
X74051598Y-78219646D01*
X74015507Y-78282156D01*
X73994700Y-78359804D01*
X73994700Y-80027562D01*
X73975487Y-80086693D01*
X73965235Y-80098697D01*
X73298698Y-80765235D01*
X73243300Y-80793461D01*
X73227563Y-80794700D01*
X72683655Y-80794700D01*
X72624524Y-80775487D01*
X72612521Y-80765236D01*
X72603789Y-80756504D01*
X72581034Y-80733749D01*
X72581031Y-80733747D01*
X72476668Y-80673493D01*
X72476665Y-80673492D01*
X72445478Y-80665135D01*
X72360259Y-80642300D01*
X72360257Y-80642300D01*
X72239743Y-80642300D01*
X72239740Y-80642300D01*
X72123331Y-80673493D01*
X72018968Y-80733747D01*
X72018967Y-80733748D01*
X72018966Y-80733749D01*
X71933749Y-80818966D01*
X71933748Y-80818967D01*
X71933747Y-80818968D01*
X71873493Y-80923331D01*
X71842300Y-81039740D01*
X69392019Y-81039740D01*
X70060053Y-80371705D01*
X70105146Y-80345671D01*
X70176665Y-80326508D01*
X70281034Y-80266251D01*
X70366251Y-80181034D01*
X70426508Y-80076665D01*
X70457700Y-79960257D01*
X70457700Y-79839743D01*
X70426508Y-79723335D01*
X70366251Y-79618966D01*
X70281034Y-79533749D01*
X70281031Y-79533747D01*
X70176668Y-79473493D01*
X70176665Y-79473492D01*
X70134837Y-79462284D01*
X70060259Y-79442300D01*
X70060257Y-79442300D01*
X69939743Y-79442300D01*
X69939740Y-79442300D01*
X69823331Y-79473493D01*
X69718968Y-79533747D01*
X69718967Y-79533748D01*
X69718966Y-79533749D01*
X69633749Y-79618966D01*
X69633748Y-79618967D01*
X69633747Y-79618968D01*
X69573493Y-79723331D01*
X69542300Y-79839740D01*
X69542300Y-79960255D01*
X69543161Y-79966796D01*
X69540562Y-79967138D01*
X69537891Y-80018050D01*
X69515110Y-80053128D01*
X68603006Y-80965235D01*
X68547608Y-80993461D01*
X68531871Y-80994700D01*
X64859802Y-80994700D01*
X64782165Y-81015503D01*
X64782156Y-81015507D01*
X64712543Y-81055696D01*
X64712542Y-81055697D01*
X63655700Y-82112541D01*
X63655698Y-82112543D01*
X63637364Y-82144300D01*
X63630317Y-82156506D01*
X63615506Y-82182157D01*
X63594700Y-82259804D01*
X63594700Y-91116345D01*
X63575487Y-91175476D01*
X63565236Y-91187479D01*
X63533747Y-91218968D01*
X63473493Y-91323331D01*
X63442300Y-91439740D01*
X61200000Y-91439740D01*
X61200000Y-79462285D01*
X65268897Y-79462285D01*
X65336024Y-79501041D01*
X65452305Y-79532199D01*
X65452308Y-79532200D01*
X65572692Y-79532200D01*
X65572694Y-79532199D01*
X65688973Y-79501041D01*
X65756098Y-79462285D01*
X67243897Y-79462285D01*
X67311024Y-79501041D01*
X67427305Y-79532199D01*
X67427308Y-79532200D01*
X67547692Y-79532200D01*
X67547694Y-79532199D01*
X67663973Y-79501041D01*
X67731100Y-79462284D01*
X67487500Y-79218684D01*
X67243897Y-79462285D01*
X65756098Y-79462285D01*
X65756100Y-79462284D01*
X65512500Y-79218684D01*
X65268897Y-79462285D01*
X61200000Y-79462285D01*
X61200000Y-79014804D01*
X65055300Y-79014804D01*
X65055300Y-79135194D01*
X65086459Y-79251476D01*
X65125213Y-79318600D01*
X65368815Y-79074999D01*
X65343554Y-79049738D01*
X65385500Y-79049738D01*
X65385500Y-79100262D01*
X65404835Y-79146940D01*
X65440560Y-79182665D01*
X65487238Y-79202000D01*
X65537762Y-79202000D01*
X65584440Y-79182665D01*
X65620165Y-79146940D01*
X65639500Y-79100262D01*
X65639500Y-79074999D01*
X65656184Y-79074999D01*
X65656184Y-79075000D01*
X65899784Y-79318600D01*
X65938541Y-79251473D01*
X65969699Y-79135194D01*
X65969700Y-79135191D01*
X65969700Y-79014808D01*
X65969699Y-79014805D01*
X65969699Y-79014804D01*
X67030300Y-79014804D01*
X67030300Y-79135194D01*
X67061459Y-79251476D01*
X67100213Y-79318600D01*
X67343815Y-79074999D01*
X67318554Y-79049738D01*
X67360500Y-79049738D01*
X67360500Y-79100262D01*
X67379835Y-79146940D01*
X67415560Y-79182665D01*
X67462238Y-79202000D01*
X67512762Y-79202000D01*
X67559440Y-79182665D01*
X67595165Y-79146940D01*
X67614500Y-79100262D01*
X67614500Y-79074999D01*
X67631184Y-79074999D01*
X67631184Y-79075000D01*
X67874784Y-79318600D01*
X67913541Y-79251473D01*
X67944699Y-79135194D01*
X67944700Y-79135191D01*
X67944700Y-79014808D01*
X67944699Y-79014805D01*
X67913541Y-78898524D01*
X67874785Y-78831397D01*
X67631184Y-79074999D01*
X67614500Y-79074999D01*
X67614500Y-79049738D01*
X67595165Y-79003060D01*
X67559440Y-78967335D01*
X67512762Y-78948000D01*
X67462238Y-78948000D01*
X67415560Y-78967335D01*
X67379835Y-79003060D01*
X67360500Y-79049738D01*
X67318554Y-79049738D01*
X67100214Y-78831398D01*
X67061457Y-78898528D01*
X67061456Y-78898531D01*
X67030300Y-79014804D01*
X65969699Y-79014804D01*
X65938541Y-78898524D01*
X65899785Y-78831397D01*
X65656184Y-79074999D01*
X65639500Y-79074999D01*
X65639500Y-79049738D01*
X65620165Y-79003060D01*
X65584440Y-78967335D01*
X65537762Y-78948000D01*
X65487238Y-78948000D01*
X65440560Y-78967335D01*
X65404835Y-79003060D01*
X65385500Y-79049738D01*
X65343554Y-79049738D01*
X65125214Y-78831398D01*
X65086457Y-78898528D01*
X65086456Y-78898531D01*
X65055300Y-79014804D01*
X61200000Y-79014804D01*
X61200000Y-78687714D01*
X65268898Y-78687714D01*
X65512499Y-78931315D01*
X65756100Y-78687714D01*
X67243898Y-78687714D01*
X67487499Y-78931315D01*
X67731101Y-78687713D01*
X67663976Y-78648959D01*
X67547694Y-78617800D01*
X67427304Y-78617800D01*
X67311031Y-78648956D01*
X67311028Y-78648957D01*
X67243898Y-78687714D01*
X65756100Y-78687714D01*
X65756101Y-78687713D01*
X65688976Y-78648959D01*
X65572694Y-78617800D01*
X65452304Y-78617800D01*
X65336031Y-78648956D01*
X65336028Y-78648957D01*
X65268898Y-78687714D01*
X61200000Y-78687714D01*
X61200000Y-78474785D01*
X64281397Y-78474785D01*
X64348524Y-78513541D01*
X64464805Y-78544699D01*
X64464808Y-78544700D01*
X64585192Y-78544700D01*
X64585194Y-78544699D01*
X64701473Y-78513541D01*
X64768598Y-78474785D01*
X66256397Y-78474785D01*
X66323524Y-78513541D01*
X66439805Y-78544699D01*
X66439808Y-78544700D01*
X66560192Y-78544700D01*
X66560194Y-78544699D01*
X66676473Y-78513541D01*
X66743598Y-78474785D01*
X68231397Y-78474785D01*
X68298524Y-78513541D01*
X68414805Y-78544699D01*
X68414808Y-78544700D01*
X68535192Y-78544700D01*
X68535194Y-78544699D01*
X68651473Y-78513541D01*
X68718600Y-78474784D01*
X68475000Y-78231184D01*
X68231397Y-78474785D01*
X66743598Y-78474785D01*
X66743600Y-78474784D01*
X66500000Y-78231184D01*
X66256397Y-78474785D01*
X64768598Y-78474785D01*
X64768600Y-78474784D01*
X64525000Y-78231184D01*
X64281397Y-78474785D01*
X61200000Y-78474785D01*
X61200000Y-78027304D01*
X64067800Y-78027304D01*
X64067800Y-78147694D01*
X64098959Y-78263976D01*
X64137713Y-78331100D01*
X64381315Y-78087499D01*
X64356054Y-78062238D01*
X64398000Y-78062238D01*
X64398000Y-78112762D01*
X64417335Y-78159440D01*
X64453060Y-78195165D01*
X64499738Y-78214500D01*
X64550262Y-78214500D01*
X64596940Y-78195165D01*
X64632665Y-78159440D01*
X64652000Y-78112762D01*
X64652000Y-78087499D01*
X64668684Y-78087499D01*
X64668684Y-78087500D01*
X64912284Y-78331100D01*
X64951041Y-78263973D01*
X64982199Y-78147694D01*
X64982200Y-78147691D01*
X64982200Y-78027308D01*
X64982199Y-78027305D01*
X64982199Y-78027304D01*
X66042800Y-78027304D01*
X66042800Y-78147694D01*
X66073959Y-78263976D01*
X66112713Y-78331100D01*
X66356315Y-78087499D01*
X66331054Y-78062238D01*
X66373000Y-78062238D01*
X66373000Y-78112762D01*
X66392335Y-78159440D01*
X66428060Y-78195165D01*
X66474738Y-78214500D01*
X66525262Y-78214500D01*
X66571940Y-78195165D01*
X66607665Y-78159440D01*
X66627000Y-78112762D01*
X66627000Y-78087499D01*
X66643684Y-78087499D01*
X66643684Y-78087500D01*
X66887284Y-78331100D01*
X66926041Y-78263973D01*
X66957199Y-78147694D01*
X66957200Y-78147691D01*
X66957200Y-78027308D01*
X66957199Y-78027305D01*
X66957199Y-78027304D01*
X68017800Y-78027304D01*
X68017800Y-78147694D01*
X68048959Y-78263976D01*
X68087713Y-78331100D01*
X68331315Y-78087499D01*
X68306054Y-78062238D01*
X68348000Y-78062238D01*
X68348000Y-78112762D01*
X68367335Y-78159440D01*
X68403060Y-78195165D01*
X68449738Y-78214500D01*
X68500262Y-78214500D01*
X68546940Y-78195165D01*
X68582665Y-78159440D01*
X68602000Y-78112762D01*
X68602000Y-78087499D01*
X68618684Y-78087499D01*
X68618684Y-78087500D01*
X68862284Y-78331100D01*
X68901041Y-78263973D01*
X68932199Y-78147694D01*
X68932200Y-78147691D01*
X68932200Y-78027308D01*
X68932199Y-78027305D01*
X68901041Y-77911024D01*
X68862285Y-77843897D01*
X68618684Y-78087499D01*
X68602000Y-78087499D01*
X68602000Y-78062238D01*
X68582665Y-78015560D01*
X68546940Y-77979835D01*
X68500262Y-77960500D01*
X68449738Y-77960500D01*
X68403060Y-77979835D01*
X68367335Y-78015560D01*
X68348000Y-78062238D01*
X68306054Y-78062238D01*
X68087714Y-77843898D01*
X68048957Y-77911028D01*
X68048956Y-77911031D01*
X68017800Y-78027304D01*
X66957199Y-78027304D01*
X66926041Y-77911024D01*
X66887285Y-77843897D01*
X66643684Y-78087499D01*
X66627000Y-78087499D01*
X66627000Y-78062238D01*
X66607665Y-78015560D01*
X66571940Y-77979835D01*
X66525262Y-77960500D01*
X66474738Y-77960500D01*
X66428060Y-77979835D01*
X66392335Y-78015560D01*
X66373000Y-78062238D01*
X66331054Y-78062238D01*
X66112714Y-77843898D01*
X66073957Y-77911028D01*
X66073956Y-77911031D01*
X66042800Y-78027304D01*
X64982199Y-78027304D01*
X64951041Y-77911024D01*
X64912285Y-77843897D01*
X64668684Y-78087499D01*
X64652000Y-78087499D01*
X64652000Y-78062238D01*
X64632665Y-78015560D01*
X64596940Y-77979835D01*
X64550262Y-77960500D01*
X64499738Y-77960500D01*
X64453060Y-77979835D01*
X64417335Y-78015560D01*
X64398000Y-78062238D01*
X64356054Y-78062238D01*
X64137714Y-77843898D01*
X64098957Y-77911028D01*
X64098956Y-77911031D01*
X64067800Y-78027304D01*
X61200000Y-78027304D01*
X61200000Y-77700214D01*
X64281398Y-77700214D01*
X64524999Y-77943815D01*
X64768600Y-77700214D01*
X66256398Y-77700214D01*
X66499999Y-77943815D01*
X66743600Y-77700214D01*
X68231398Y-77700214D01*
X68474999Y-77943815D01*
X68718601Y-77700213D01*
X68651476Y-77661459D01*
X68535194Y-77630300D01*
X68414804Y-77630300D01*
X68298531Y-77661456D01*
X68298528Y-77661457D01*
X68231398Y-77700214D01*
X66743600Y-77700214D01*
X66743601Y-77700213D01*
X66676476Y-77661459D01*
X66560194Y-77630300D01*
X66439804Y-77630300D01*
X66323531Y-77661456D01*
X66323528Y-77661457D01*
X66256398Y-77700214D01*
X64768600Y-77700214D01*
X64768601Y-77700213D01*
X64701476Y-77661459D01*
X64585194Y-77630300D01*
X64464804Y-77630300D01*
X64348531Y-77661456D01*
X64348528Y-77661457D01*
X64281398Y-77700214D01*
X61200000Y-77700214D01*
X61200000Y-77487285D01*
X65268897Y-77487285D01*
X65336024Y-77526041D01*
X65452305Y-77557199D01*
X65452308Y-77557200D01*
X65572692Y-77557200D01*
X65572694Y-77557199D01*
X65688973Y-77526041D01*
X65756098Y-77487285D01*
X67243897Y-77487285D01*
X67311024Y-77526041D01*
X67427305Y-77557199D01*
X67427308Y-77557200D01*
X67547692Y-77557200D01*
X67547694Y-77557199D01*
X67663973Y-77526041D01*
X67731100Y-77487284D01*
X67487500Y-77243684D01*
X67243897Y-77487285D01*
X65756098Y-77487285D01*
X65756100Y-77487284D01*
X65512500Y-77243684D01*
X65268897Y-77487285D01*
X61200000Y-77487285D01*
X61200000Y-77039804D01*
X65055300Y-77039804D01*
X65055300Y-77160194D01*
X65086459Y-77276476D01*
X65125213Y-77343600D01*
X65368815Y-77099999D01*
X65343554Y-77074738D01*
X65385500Y-77074738D01*
X65385500Y-77125262D01*
X65404835Y-77171940D01*
X65440560Y-77207665D01*
X65487238Y-77227000D01*
X65537762Y-77227000D01*
X65584440Y-77207665D01*
X65620165Y-77171940D01*
X65639500Y-77125262D01*
X65639500Y-77099999D01*
X65656184Y-77099999D01*
X65656184Y-77100000D01*
X65899784Y-77343600D01*
X65938541Y-77276473D01*
X65969699Y-77160194D01*
X65969700Y-77160191D01*
X65969700Y-77039808D01*
X65969699Y-77039805D01*
X65969699Y-77039804D01*
X67030300Y-77039804D01*
X67030300Y-77160194D01*
X67061459Y-77276476D01*
X67100213Y-77343600D01*
X67343815Y-77099999D01*
X67318554Y-77074738D01*
X67360500Y-77074738D01*
X67360500Y-77125262D01*
X67379835Y-77171940D01*
X67415560Y-77207665D01*
X67462238Y-77227000D01*
X67512762Y-77227000D01*
X67559440Y-77207665D01*
X67595165Y-77171940D01*
X67614500Y-77125262D01*
X67614500Y-77099999D01*
X67631184Y-77099999D01*
X67631184Y-77100000D01*
X67874784Y-77343600D01*
X67913541Y-77276473D01*
X67944699Y-77160194D01*
X67944700Y-77160191D01*
X67944700Y-77039808D01*
X67944699Y-77039805D01*
X67913541Y-76923524D01*
X67874785Y-76856397D01*
X67631184Y-77099999D01*
X67614500Y-77099999D01*
X67614500Y-77074738D01*
X67595165Y-77028060D01*
X67559440Y-76992335D01*
X67512762Y-76973000D01*
X67462238Y-76973000D01*
X67415560Y-76992335D01*
X67379835Y-77028060D01*
X67360500Y-77074738D01*
X67318554Y-77074738D01*
X67100214Y-76856398D01*
X67061457Y-76923528D01*
X67061456Y-76923531D01*
X67030300Y-77039804D01*
X65969699Y-77039804D01*
X65938541Y-76923524D01*
X65899785Y-76856397D01*
X65656184Y-77099999D01*
X65639500Y-77099999D01*
X65639500Y-77074738D01*
X65620165Y-77028060D01*
X65584440Y-76992335D01*
X65537762Y-76973000D01*
X65487238Y-76973000D01*
X65440560Y-76992335D01*
X65404835Y-77028060D01*
X65385500Y-77074738D01*
X65343554Y-77074738D01*
X65125214Y-76856398D01*
X65086457Y-76923528D01*
X65086456Y-76923531D01*
X65055300Y-77039804D01*
X61200000Y-77039804D01*
X61200000Y-76712714D01*
X65268898Y-76712714D01*
X65512499Y-76956315D01*
X65756100Y-76712714D01*
X67243898Y-76712714D01*
X67487499Y-76956315D01*
X67731101Y-76712713D01*
X67663976Y-76673959D01*
X67547694Y-76642800D01*
X67427304Y-76642800D01*
X67311031Y-76673956D01*
X67311028Y-76673957D01*
X67243898Y-76712714D01*
X65756100Y-76712714D01*
X65756101Y-76712713D01*
X65688976Y-76673959D01*
X65572694Y-76642800D01*
X65452304Y-76642800D01*
X65336031Y-76673956D01*
X65336028Y-76673957D01*
X65268898Y-76712714D01*
X61200000Y-76712714D01*
X61200000Y-76499785D01*
X64281397Y-76499785D01*
X64348524Y-76538541D01*
X64464805Y-76569699D01*
X64464808Y-76569700D01*
X64585192Y-76569700D01*
X64585194Y-76569699D01*
X64701473Y-76538541D01*
X64768598Y-76499785D01*
X66256397Y-76499785D01*
X66323524Y-76538541D01*
X66439805Y-76569699D01*
X66439808Y-76569700D01*
X66560192Y-76569700D01*
X66560194Y-76569699D01*
X66676473Y-76538541D01*
X66743598Y-76499785D01*
X68231397Y-76499785D01*
X68298524Y-76538541D01*
X68414805Y-76569699D01*
X68414808Y-76569700D01*
X68535192Y-76569700D01*
X68535194Y-76569699D01*
X68651473Y-76538541D01*
X68718600Y-76499784D01*
X68475000Y-76256184D01*
X68231397Y-76499785D01*
X66743598Y-76499785D01*
X66743600Y-76499784D01*
X66500000Y-76256184D01*
X66256397Y-76499785D01*
X64768598Y-76499785D01*
X64768600Y-76499784D01*
X64525000Y-76256184D01*
X64281397Y-76499785D01*
X61200000Y-76499785D01*
X61200000Y-76052304D01*
X64067800Y-76052304D01*
X64067800Y-76172694D01*
X64098959Y-76288976D01*
X64137713Y-76356100D01*
X64381315Y-76112499D01*
X64356054Y-76087238D01*
X64398000Y-76087238D01*
X64398000Y-76137762D01*
X64417335Y-76184440D01*
X64453060Y-76220165D01*
X64499738Y-76239500D01*
X64550262Y-76239500D01*
X64596940Y-76220165D01*
X64632665Y-76184440D01*
X64652000Y-76137762D01*
X64652000Y-76112499D01*
X64668684Y-76112499D01*
X64668684Y-76112500D01*
X64912284Y-76356100D01*
X64951041Y-76288973D01*
X64982199Y-76172694D01*
X64982200Y-76172691D01*
X64982200Y-76052308D01*
X64982199Y-76052305D01*
X64982199Y-76052304D01*
X66042800Y-76052304D01*
X66042800Y-76172694D01*
X66073959Y-76288976D01*
X66112713Y-76356100D01*
X66356315Y-76112499D01*
X66331054Y-76087238D01*
X66373000Y-76087238D01*
X66373000Y-76137762D01*
X66392335Y-76184440D01*
X66428060Y-76220165D01*
X66474738Y-76239500D01*
X66525262Y-76239500D01*
X66571940Y-76220165D01*
X66607665Y-76184440D01*
X66627000Y-76137762D01*
X66627000Y-76112499D01*
X66643684Y-76112499D01*
X66643684Y-76112500D01*
X66887284Y-76356100D01*
X66926041Y-76288973D01*
X66957199Y-76172694D01*
X66957200Y-76172691D01*
X66957200Y-76052308D01*
X66957199Y-76052305D01*
X66957199Y-76052304D01*
X68017800Y-76052304D01*
X68017800Y-76172694D01*
X68048959Y-76288976D01*
X68087713Y-76356100D01*
X68331315Y-76112499D01*
X68306054Y-76087238D01*
X68348000Y-76087238D01*
X68348000Y-76137762D01*
X68367335Y-76184440D01*
X68403060Y-76220165D01*
X68449738Y-76239500D01*
X68500262Y-76239500D01*
X68546940Y-76220165D01*
X68582665Y-76184440D01*
X68602000Y-76137762D01*
X68602000Y-76112499D01*
X68618684Y-76112499D01*
X68618684Y-76112500D01*
X68862284Y-76356100D01*
X68901041Y-76288973D01*
X68932199Y-76172694D01*
X68932200Y-76172691D01*
X68932200Y-76052308D01*
X68932199Y-76052305D01*
X68901041Y-75936024D01*
X68862285Y-75868897D01*
X68618684Y-76112499D01*
X68602000Y-76112499D01*
X68602000Y-76087238D01*
X68582665Y-76040560D01*
X68546940Y-76004835D01*
X68500262Y-75985500D01*
X68449738Y-75985500D01*
X68403060Y-76004835D01*
X68367335Y-76040560D01*
X68348000Y-76087238D01*
X68306054Y-76087238D01*
X68087714Y-75868898D01*
X68048957Y-75936028D01*
X68048956Y-75936031D01*
X68017800Y-76052304D01*
X66957199Y-76052304D01*
X66926041Y-75936024D01*
X66887285Y-75868897D01*
X66643684Y-76112499D01*
X66627000Y-76112499D01*
X66627000Y-76087238D01*
X66607665Y-76040560D01*
X66571940Y-76004835D01*
X66525262Y-75985500D01*
X66474738Y-75985500D01*
X66428060Y-76004835D01*
X66392335Y-76040560D01*
X66373000Y-76087238D01*
X66331054Y-76087238D01*
X66112714Y-75868898D01*
X66073957Y-75936028D01*
X66073956Y-75936031D01*
X66042800Y-76052304D01*
X64982199Y-76052304D01*
X64951041Y-75936024D01*
X64912285Y-75868897D01*
X64668684Y-76112499D01*
X64652000Y-76112499D01*
X64652000Y-76087238D01*
X64632665Y-76040560D01*
X64596940Y-76004835D01*
X64550262Y-75985500D01*
X64499738Y-75985500D01*
X64453060Y-76004835D01*
X64417335Y-76040560D01*
X64398000Y-76087238D01*
X64356054Y-76087238D01*
X64137714Y-75868898D01*
X64098957Y-75936028D01*
X64098956Y-75936031D01*
X64067800Y-76052304D01*
X61200000Y-76052304D01*
X61200000Y-75725214D01*
X64281398Y-75725214D01*
X64524999Y-75968815D01*
X64768600Y-75725214D01*
X66256398Y-75725214D01*
X66499999Y-75968815D01*
X66743600Y-75725214D01*
X68231398Y-75725214D01*
X68474999Y-75968815D01*
X68718601Y-75725213D01*
X68651476Y-75686459D01*
X68535194Y-75655300D01*
X68414804Y-75655300D01*
X68298531Y-75686456D01*
X68298528Y-75686457D01*
X68231398Y-75725214D01*
X66743600Y-75725214D01*
X66743601Y-75725213D01*
X66676476Y-75686459D01*
X66560194Y-75655300D01*
X66439804Y-75655300D01*
X66323531Y-75686456D01*
X66323528Y-75686457D01*
X66256398Y-75725214D01*
X64768600Y-75725214D01*
X64768601Y-75725213D01*
X64701476Y-75686459D01*
X64585194Y-75655300D01*
X64464804Y-75655300D01*
X64348531Y-75686456D01*
X64348528Y-75686457D01*
X64281398Y-75725214D01*
X61200000Y-75725214D01*
X61200000Y-75512285D01*
X65268897Y-75512285D01*
X65336024Y-75551041D01*
X65452305Y-75582199D01*
X65452308Y-75582200D01*
X65572692Y-75582200D01*
X65572694Y-75582199D01*
X65688973Y-75551041D01*
X65756098Y-75512285D01*
X67243897Y-75512285D01*
X67311024Y-75551041D01*
X67427305Y-75582199D01*
X67427308Y-75582200D01*
X67547692Y-75582200D01*
X67547694Y-75582199D01*
X67663973Y-75551041D01*
X67731100Y-75512284D01*
X67487500Y-75268684D01*
X67243897Y-75512285D01*
X65756098Y-75512285D01*
X65756100Y-75512284D01*
X65512500Y-75268684D01*
X65268897Y-75512285D01*
X61200000Y-75512285D01*
X61200000Y-75064804D01*
X65055300Y-75064804D01*
X65055300Y-75185194D01*
X65086459Y-75301476D01*
X65125213Y-75368600D01*
X65368815Y-75124999D01*
X65343554Y-75099738D01*
X65385500Y-75099738D01*
X65385500Y-75150262D01*
X65404835Y-75196940D01*
X65440560Y-75232665D01*
X65487238Y-75252000D01*
X65537762Y-75252000D01*
X65584440Y-75232665D01*
X65620165Y-75196940D01*
X65639500Y-75150262D01*
X65639500Y-75124999D01*
X65656184Y-75124999D01*
X65656184Y-75125000D01*
X65899784Y-75368600D01*
X65938541Y-75301473D01*
X65969699Y-75185194D01*
X65969700Y-75185191D01*
X65969700Y-75064808D01*
X65969699Y-75064805D01*
X65969699Y-75064804D01*
X67030300Y-75064804D01*
X67030300Y-75185194D01*
X67061459Y-75301476D01*
X67100213Y-75368600D01*
X67343815Y-75124999D01*
X67318554Y-75099738D01*
X67360500Y-75099738D01*
X67360500Y-75150262D01*
X67379835Y-75196940D01*
X67415560Y-75232665D01*
X67462238Y-75252000D01*
X67512762Y-75252000D01*
X67559440Y-75232665D01*
X67595165Y-75196940D01*
X67614500Y-75150262D01*
X67614500Y-75124999D01*
X67631184Y-75124999D01*
X67631184Y-75125000D01*
X67874784Y-75368600D01*
X67913541Y-75301473D01*
X67944699Y-75185194D01*
X67944700Y-75185191D01*
X67944700Y-75064808D01*
X67944699Y-75064805D01*
X67913541Y-74948524D01*
X67874785Y-74881397D01*
X67631184Y-75124999D01*
X67614500Y-75124999D01*
X67614500Y-75099738D01*
X67595165Y-75053060D01*
X67559440Y-75017335D01*
X67512762Y-74998000D01*
X67462238Y-74998000D01*
X67415560Y-75017335D01*
X67379835Y-75053060D01*
X67360500Y-75099738D01*
X67318554Y-75099738D01*
X67100214Y-74881398D01*
X67061457Y-74948528D01*
X67061456Y-74948531D01*
X67030300Y-75064804D01*
X65969699Y-75064804D01*
X65938541Y-74948524D01*
X65899785Y-74881397D01*
X65656184Y-75124999D01*
X65639500Y-75124999D01*
X65639500Y-75099738D01*
X65620165Y-75053060D01*
X65584440Y-75017335D01*
X65537762Y-74998000D01*
X65487238Y-74998000D01*
X65440560Y-75017335D01*
X65404835Y-75053060D01*
X65385500Y-75099738D01*
X65343554Y-75099738D01*
X65125214Y-74881398D01*
X65086457Y-74948528D01*
X65086456Y-74948531D01*
X65055300Y-75064804D01*
X61200000Y-75064804D01*
X61200000Y-74737714D01*
X65268898Y-74737714D01*
X65512499Y-74981315D01*
X65756100Y-74737714D01*
X67243898Y-74737714D01*
X67487499Y-74981315D01*
X67731101Y-74737713D01*
X67663976Y-74698959D01*
X67547694Y-74667800D01*
X67427304Y-74667800D01*
X67311031Y-74698956D01*
X67311028Y-74698957D01*
X67243898Y-74737714D01*
X65756100Y-74737714D01*
X65756101Y-74737713D01*
X65688976Y-74698959D01*
X65572694Y-74667800D01*
X65452304Y-74667800D01*
X65336031Y-74698956D01*
X65336028Y-74698957D01*
X65268898Y-74737714D01*
X61200000Y-74737714D01*
X61200000Y-72039740D01*
X68442300Y-72039740D01*
X68442300Y-72160259D01*
X68473493Y-72276668D01*
X68533747Y-72381031D01*
X68533749Y-72381034D01*
X68565236Y-72412521D01*
X68593461Y-72467917D01*
X68594700Y-72483654D01*
X68594700Y-72840195D01*
X68605945Y-72882159D01*
X68605945Y-72882160D01*
X68615504Y-72917837D01*
X68615504Y-72917838D01*
X68615506Y-72917841D01*
X68655700Y-72987459D01*
X70112541Y-74444300D01*
X70182159Y-74484494D01*
X70259807Y-74505300D01*
X80927563Y-74505300D01*
X80986694Y-74524513D01*
X80998698Y-74534765D01*
X83008635Y-76544702D01*
X83036861Y-76600100D01*
X83038100Y-76615837D01*
X83038100Y-80702015D01*
X83046603Y-80733749D01*
X83052701Y-80756504D01*
X83052701Y-80756507D01*
X83058904Y-80779658D01*
X83058906Y-80779663D01*
X83099100Y-80849281D01*
X83938624Y-81688805D01*
X83966850Y-81744203D01*
X83968089Y-81759940D01*
X83968089Y-81804470D01*
X83999282Y-81920879D01*
X84051333Y-82011034D01*
X84059538Y-82025245D01*
X84144755Y-82110462D01*
X84179544Y-82130547D01*
X84249120Y-82170717D01*
X84249124Y-82170719D01*
X84365532Y-82201911D01*
X84486046Y-82201911D01*
X84602454Y-82170719D01*
X84706823Y-82110462D01*
X84714195Y-82103089D01*
X84769588Y-82074863D01*
X84830997Y-82084587D01*
X84846568Y-82094411D01*
X84848964Y-82096249D01*
X84848966Y-82096251D01*
X84925367Y-82140361D01*
X84953331Y-82156506D01*
X84953335Y-82156508D01*
X85069743Y-82187700D01*
X85190257Y-82187700D01*
X85306665Y-82156508D01*
X85411034Y-82096251D01*
X85496251Y-82011034D01*
X85556508Y-81906665D01*
X85587700Y-81790257D01*
X85587700Y-81669743D01*
X85556508Y-81553335D01*
X85496251Y-81448966D01*
X85411034Y-81363749D01*
X85411031Y-81363747D01*
X85306668Y-81303493D01*
X85306665Y-81303492D01*
X85275478Y-81295135D01*
X85190259Y-81272300D01*
X85190257Y-81272300D01*
X85145729Y-81272300D01*
X85086598Y-81253087D01*
X85074594Y-81242835D01*
X84034765Y-80203006D01*
X84006539Y-80147608D01*
X84005300Y-80131871D01*
X84005300Y-76259808D01*
X84005299Y-76259804D01*
X83984494Y-76182159D01*
X83984494Y-76182158D01*
X83979028Y-76172691D01*
X83944300Y-76112541D01*
X81430860Y-73599100D01*
X81361242Y-73558905D01*
X81351200Y-73556215D01*
X81344833Y-73554509D01*
X81324420Y-73549039D01*
X81283596Y-73538100D01*
X81283594Y-73538100D01*
X70711530Y-73538100D01*
X70652399Y-73518887D01*
X70640395Y-73508635D01*
X70034765Y-72903005D01*
X70006539Y-72847607D01*
X70005300Y-72831870D01*
X70005300Y-72483654D01*
X70024513Y-72424523D01*
X70034759Y-72412525D01*
X70066251Y-72381034D01*
X70126508Y-72276665D01*
X70136402Y-72239740D01*
X72034300Y-72239740D01*
X72034300Y-72360259D01*
X72065493Y-72476668D01*
X72125747Y-72581031D01*
X72125749Y-72581034D01*
X72210966Y-72666251D01*
X72210968Y-72666252D01*
X72315331Y-72726506D01*
X72315335Y-72726508D01*
X72431743Y-72757700D01*
X72552257Y-72757700D01*
X72668665Y-72726508D01*
X72773034Y-72666251D01*
X72804521Y-72634764D01*
X72859919Y-72606538D01*
X72875655Y-72605300D01*
X81531871Y-72605300D01*
X81591002Y-72624513D01*
X81603006Y-72634765D01*
X84865235Y-75896994D01*
X84893461Y-75952392D01*
X84894700Y-75968129D01*
X84894700Y-79916345D01*
X84875487Y-79975476D01*
X84865236Y-79987479D01*
X84833747Y-80018968D01*
X84773493Y-80123331D01*
X84742300Y-80239740D01*
X84742300Y-80360259D01*
X84773493Y-80476668D01*
X84790812Y-80506665D01*
X84833749Y-80581034D01*
X84918966Y-80666251D01*
X84918968Y-80666252D01*
X85023331Y-80726506D01*
X85023335Y-80726508D01*
X85139743Y-80757700D01*
X85260257Y-80757700D01*
X85376665Y-80726508D01*
X85481034Y-80666251D01*
X85566251Y-80581034D01*
X85626508Y-80476665D01*
X85657700Y-80360257D01*
X85657700Y-80269740D01*
X144582300Y-80269740D01*
X144582300Y-80390259D01*
X144613493Y-80506668D01*
X144673747Y-80611031D01*
X144673749Y-80611034D01*
X144758966Y-80696251D01*
X144758968Y-80696252D01*
X144863331Y-80756506D01*
X144863335Y-80756508D01*
X144979743Y-80787700D01*
X145100257Y-80787700D01*
X145216665Y-80756508D01*
X145321034Y-80696251D01*
X145406251Y-80611034D01*
X145466508Y-80506665D01*
X145497700Y-80390257D01*
X145497700Y-80269743D01*
X145466508Y-80153335D01*
X145406251Y-80048966D01*
X145374764Y-80017479D01*
X145346538Y-79962081D01*
X145345300Y-79946345D01*
X145345300Y-79598129D01*
X145364513Y-79538998D01*
X145374765Y-79526994D01*
X148366995Y-76534765D01*
X148422393Y-76506539D01*
X148438130Y-76505300D01*
X152086345Y-76505300D01*
X152145476Y-76524513D01*
X152157479Y-76534764D01*
X152188966Y-76566251D01*
X152188968Y-76566252D01*
X152293331Y-76626506D01*
X152293335Y-76626508D01*
X152409743Y-76657700D01*
X152530257Y-76657700D01*
X152646665Y-76626508D01*
X152751034Y-76566251D01*
X152836251Y-76481034D01*
X152896508Y-76376665D01*
X152927700Y-76260257D01*
X152927700Y-76139743D01*
X152896508Y-76023335D01*
X152836251Y-75918966D01*
X152751034Y-75833749D01*
X152751031Y-75833747D01*
X152646668Y-75773493D01*
X152646665Y-75773492D01*
X152595582Y-75759804D01*
X152530259Y-75742300D01*
X152530257Y-75742300D01*
X152409743Y-75742300D01*
X152409740Y-75742300D01*
X152293331Y-75773493D01*
X152188968Y-75833747D01*
X152157479Y-75865236D01*
X152102081Y-75893462D01*
X152086345Y-75894700D01*
X148229802Y-75894700D01*
X148152165Y-75915503D01*
X148152156Y-75915507D01*
X148082543Y-75955696D01*
X148082542Y-75955697D01*
X144795702Y-79242538D01*
X144755506Y-79312157D01*
X144734700Y-79389804D01*
X144734700Y-79946345D01*
X144715487Y-80005476D01*
X144705236Y-80017479D01*
X144673747Y-80048968D01*
X144613493Y-80153331D01*
X144582300Y-80269740D01*
X85657700Y-80269740D01*
X85657700Y-80239743D01*
X85626508Y-80123335D01*
X85612283Y-80098697D01*
X85566252Y-80018968D01*
X85566251Y-80018966D01*
X85534764Y-79987479D01*
X85506538Y-79932081D01*
X85505300Y-79916345D01*
X85505300Y-75759808D01*
X85505299Y-75759804D01*
X85500609Y-75742300D01*
X85484494Y-75682159D01*
X85467505Y-75652735D01*
X85444300Y-75612541D01*
X83733149Y-73901390D01*
X91747100Y-73901390D01*
X91747100Y-74098609D01*
X91777950Y-74293383D01*
X91777953Y-74293397D01*
X91838891Y-74480947D01*
X91928424Y-74656663D01*
X92044340Y-74816207D01*
X92183792Y-74955659D01*
X92242069Y-74998000D01*
X92343337Y-75071576D01*
X92398608Y-75099738D01*
X92519052Y-75161108D01*
X92706602Y-75222046D01*
X92706604Y-75222046D01*
X92706612Y-75222049D01*
X92901390Y-75252899D01*
X92901392Y-75252900D01*
X92901395Y-75252900D01*
X93098608Y-75252900D01*
X93098608Y-75252899D01*
X93293388Y-75222049D01*
X93480947Y-75161108D01*
X93656663Y-75071576D01*
X93816209Y-74955658D01*
X93955658Y-74816209D01*
X94071576Y-74656663D01*
X94161108Y-74480947D01*
X94222049Y-74293388D01*
X94252900Y-74098605D01*
X94252900Y-73901395D01*
X94252900Y-73901391D01*
X94252899Y-73901390D01*
X135747100Y-73901390D01*
X135747100Y-74098609D01*
X135777950Y-74293383D01*
X135777953Y-74293397D01*
X135838891Y-74480947D01*
X135928424Y-74656663D01*
X136044340Y-74816207D01*
X136183792Y-74955659D01*
X136242069Y-74998000D01*
X136343337Y-75071576D01*
X136398608Y-75099738D01*
X136519052Y-75161108D01*
X136706602Y-75222046D01*
X136706604Y-75222046D01*
X136706612Y-75222049D01*
X136901390Y-75252899D01*
X136901392Y-75252900D01*
X136901395Y-75252900D01*
X137098608Y-75252900D01*
X137098608Y-75252899D01*
X137293388Y-75222049D01*
X137480947Y-75161108D01*
X137656663Y-75071576D01*
X137816209Y-74955658D01*
X137955658Y-74816209D01*
X138071576Y-74656663D01*
X138161108Y-74480947D01*
X138222049Y-74293388D01*
X138252900Y-74098605D01*
X138252900Y-73901395D01*
X138252900Y-73901391D01*
X138252899Y-73901390D01*
X138243425Y-73841575D01*
X138222049Y-73706612D01*
X138182928Y-73586209D01*
X138161108Y-73519052D01*
X138071575Y-73343336D01*
X137955659Y-73183792D01*
X137816207Y-73044340D01*
X137656663Y-72928424D01*
X137480947Y-72838891D01*
X137293397Y-72777953D01*
X137293383Y-72777950D01*
X137223005Y-72766803D01*
X137098609Y-72747100D01*
X137098605Y-72747100D01*
X136901395Y-72747100D01*
X136901391Y-72747100D01*
X136706616Y-72777950D01*
X136706602Y-72777953D01*
X136519052Y-72838891D01*
X136343336Y-72928424D01*
X136183792Y-73044340D01*
X136044340Y-73183792D01*
X135928424Y-73343336D01*
X135838891Y-73519052D01*
X135777953Y-73706602D01*
X135777950Y-73706616D01*
X135747100Y-73901390D01*
X94252899Y-73901390D01*
X94243425Y-73841575D01*
X94222049Y-73706612D01*
X94182928Y-73586209D01*
X94161108Y-73519052D01*
X94071575Y-73343336D01*
X93955659Y-73183792D01*
X93816207Y-73044340D01*
X93656663Y-72928424D01*
X93480947Y-72838891D01*
X93293397Y-72777953D01*
X93293383Y-72777950D01*
X93098609Y-72747100D01*
X93098605Y-72747100D01*
X92901395Y-72747100D01*
X92901391Y-72747100D01*
X92706616Y-72777950D01*
X92706602Y-72777953D01*
X92519052Y-72838891D01*
X92343336Y-72928424D01*
X92183792Y-73044340D01*
X92044340Y-73183792D01*
X91928424Y-73343336D01*
X91838891Y-73519052D01*
X91777953Y-73706602D01*
X91777950Y-73706616D01*
X91747100Y-73901390D01*
X83733149Y-73901390D01*
X82503149Y-72671390D01*
X155517100Y-72671390D01*
X155517100Y-72868609D01*
X155547950Y-73063383D01*
X155547953Y-73063397D01*
X155608891Y-73250947D01*
X155698424Y-73426663D01*
X155814340Y-73586207D01*
X155814342Y-73586209D01*
X155953791Y-73725658D01*
X156113337Y-73841576D01*
X156199520Y-73885488D01*
X156289052Y-73931108D01*
X156476602Y-73992046D01*
X156476604Y-73992046D01*
X156476612Y-73992049D01*
X156671390Y-74022899D01*
X156671392Y-74022900D01*
X156671395Y-74022900D01*
X156868608Y-74022900D01*
X156868608Y-74022899D01*
X157063388Y-73992049D01*
X157250947Y-73931108D01*
X157426663Y-73841576D01*
X157586209Y-73725658D01*
X157725658Y-73586209D01*
X157841576Y-73426663D01*
X157931108Y-73250947D01*
X157992049Y-73063388D01*
X158022900Y-72868605D01*
X158022900Y-72671395D01*
X158022900Y-72671391D01*
X158022899Y-72671390D01*
X158017098Y-72634764D01*
X157992049Y-72476612D01*
X157980798Y-72441985D01*
X157931108Y-72289052D01*
X157841575Y-72113336D01*
X157725659Y-71953792D01*
X157586207Y-71814340D01*
X157426663Y-71698424D01*
X157250947Y-71608891D01*
X157063397Y-71547953D01*
X157063383Y-71547950D01*
X156868609Y-71517100D01*
X156868605Y-71517100D01*
X156671395Y-71517100D01*
X156671391Y-71517100D01*
X156476616Y-71547950D01*
X156476602Y-71547953D01*
X156289052Y-71608891D01*
X156113336Y-71698424D01*
X155953792Y-71814340D01*
X155814340Y-71953792D01*
X155698424Y-72113336D01*
X155608891Y-72289052D01*
X155547953Y-72476602D01*
X155547950Y-72476616D01*
X155517100Y-72671390D01*
X82503149Y-72671390D01*
X81887459Y-72055700D01*
X81846095Y-72031818D01*
X81817842Y-72015506D01*
X81740195Y-71994700D01*
X81740193Y-71994700D01*
X72875655Y-71994700D01*
X72816524Y-71975487D01*
X72804521Y-71965236D01*
X72793076Y-71953791D01*
X72773034Y-71933749D01*
X72773031Y-71933747D01*
X72668668Y-71873493D01*
X72668665Y-71873492D01*
X72637478Y-71865135D01*
X72552259Y-71842300D01*
X72552257Y-71842300D01*
X72431743Y-71842300D01*
X72431740Y-71842300D01*
X72315331Y-71873493D01*
X72210968Y-71933747D01*
X72210967Y-71933748D01*
X72210966Y-71933749D01*
X72125749Y-72018966D01*
X72125748Y-72018967D01*
X72125747Y-72018968D01*
X72065493Y-72123331D01*
X72034300Y-72239740D01*
X70136402Y-72239740D01*
X70157700Y-72160257D01*
X70157700Y-72039743D01*
X70126508Y-71923335D01*
X70066251Y-71818966D01*
X69981034Y-71733749D01*
X69981031Y-71733747D01*
X69876668Y-71673493D01*
X69876665Y-71673492D01*
X69845478Y-71665135D01*
X69760259Y-71642300D01*
X69760257Y-71642300D01*
X69639743Y-71642300D01*
X69639740Y-71642300D01*
X69523331Y-71673493D01*
X69418968Y-71733747D01*
X69371134Y-71781581D01*
X69315736Y-71809807D01*
X69254328Y-71800080D01*
X69228866Y-71781581D01*
X69207053Y-71759768D01*
X69181034Y-71733749D01*
X69181031Y-71733747D01*
X69076668Y-71673493D01*
X69076665Y-71673492D01*
X69045478Y-71665135D01*
X68960259Y-71642300D01*
X68960257Y-71642300D01*
X68839743Y-71642300D01*
X68839740Y-71642300D01*
X68723331Y-71673493D01*
X68618968Y-71733747D01*
X68618967Y-71733748D01*
X68618966Y-71733749D01*
X68533749Y-71818966D01*
X68533748Y-71818967D01*
X68533747Y-71818968D01*
X68473493Y-71923331D01*
X68442300Y-72039740D01*
X61200000Y-72039740D01*
X61200000Y-70101100D01*
X61219213Y-70041969D01*
X61269513Y-70005424D01*
X61300600Y-70000500D01*
X172996701Y-70000500D01*
X173003280Y-70000715D01*
G37*
%TD.AperFunction*%
%TD*%
M02*
