%TF.GenerationSoftware,KiCad,Pcbnew,9.0.1*%
%TF.CreationDate,2025-12-04T09:13:59-06:00*%
%TF.ProjectId,focus_bar_panel_v1,666f6375-735f-4626-9172-5f70616e656c,rev?*%
%TF.SameCoordinates,Original*%
%TF.FileFunction,Soldermask,Bot*%
%TF.FilePolarity,Negative*%
%FSLAX46Y46*%
G04 Gerber Fmt 4.6, Leading zero omitted, Abs format (unit mm)*
G04 Created by KiCad (PCBNEW 9.0.1) date 2025-12-04 09:13:59*
%MOMM*%
%LPD*%
G01*
G04 APERTURE LIST*
G04 Aperture macros list*
%AMRoundRect*
0 Rectangle with rounded corners*
0 $1 Rounding radius*
0 $2 $3 $4 $5 $6 $7 $8 $9 X,Y pos of 4 corners*
0 Add a 4 corners polygon primitive as box body*
4,1,4,$2,$3,$4,$5,$6,$7,$8,$9,$2,$3,0*
0 Add four circle primitives for the rounded corners*
1,1,$1+$1,$2,$3*
1,1,$1+$1,$4,$5*
1,1,$1+$1,$6,$7*
1,1,$1+$1,$8,$9*
0 Add four rect primitives between the rounded corners*
20,1,$1+$1,$2,$3,$4,$5,0*
20,1,$1+$1,$4,$5,$6,$7,0*
20,1,$1+$1,$6,$7,$8,$9,0*
20,1,$1+$1,$8,$9,$2,$3,0*%
G04 Aperture macros list end*
%ADD10C,2.200000*%
%ADD11C,2.000000*%
%ADD12C,0.650000*%
%ADD13O,2.304000X1.204000*%
%ADD14RoundRect,0.301000X0.701000X-0.301000X0.701000X0.301000X-0.701000X0.301000X-0.701000X-0.301000X0*%
%ADD15C,1.000000*%
G04 APERTURE END LIST*
D10*
%TO.C,REF\u002A\u002A*%
X106500000Y-77000500D03*
%TD*%
D11*
%TO.C,KiKit_TO_3*%
X88500000Y-115001500D03*
%TD*%
D12*
%TO.C,P1*%
X203300000Y-76800500D03*
X203300000Y-71020500D03*
D13*
X202800000Y-78230500D03*
X202800000Y-69590500D03*
D14*
X206980000Y-78230500D03*
X206980000Y-69590500D03*
%TD*%
D10*
%TO.C,REF\u002A\u002A*%
X126500000Y-59000500D03*
%TD*%
%TO.C,REF\u002A\u002A*%
X190270000Y-57770500D03*
%TD*%
%TO.C,REF\u002A\u002A*%
X190500000Y-48000500D03*
%TD*%
%TO.C,REF\u002A\u002A*%
X170500000Y-88000500D03*
%TD*%
D12*
%TO.C,P1*%
X203300000Y-105800500D03*
X203300000Y-100020500D03*
D13*
X202800000Y-107230500D03*
X202800000Y-98590500D03*
D14*
X206980000Y-107230500D03*
X206980000Y-98590500D03*
%TD*%
D10*
%TO.C,REF\u002A\u002A*%
X170500000Y-59000500D03*
%TD*%
%TO.C,REF\u002A\u002A*%
X190500000Y-106000500D03*
%TD*%
%TO.C,REF\u002A\u002A*%
X126500000Y-30000500D03*
%TD*%
%TO.C,REF\u002A\u002A*%
X126500000Y-88000500D03*
%TD*%
%TO.C,REF\u002A\u002A*%
X190500000Y-77000500D03*
%TD*%
D11*
%TO.C,KiKit_TO_1*%
X88500000Y-20000000D03*
%TD*%
D10*
%TO.C,REF\u002A\u002A*%
X106500000Y-48000500D03*
%TD*%
D11*
%TO.C,KiKit_TO_2*%
X208500000Y-20000000D03*
%TD*%
D10*
%TO.C,REF\u002A\u002A*%
X190270000Y-86770500D03*
%TD*%
%TO.C,REF\u002A\u002A*%
X190270000Y-28770500D03*
%TD*%
%TO.C,REF\u002A\u002A*%
X106500000Y-106000500D03*
%TD*%
D12*
%TO.C,P1*%
X203300000Y-47800500D03*
X203300000Y-42020500D03*
D13*
X202800000Y-49230500D03*
X202800000Y-40590500D03*
D14*
X206980000Y-49230500D03*
X206980000Y-40590500D03*
%TD*%
D10*
%TO.C,REF\u002A\u002A*%
X170500000Y-30000500D03*
%TD*%
D15*
%TO.C,KiKit_FID_B_1*%
X90500000Y-22000000D03*
%TD*%
%TO.C,KiKit_FID_B_3*%
X90500000Y-113001500D03*
%TD*%
%TO.C,KiKit_FID_B_2*%
X206500000Y-22000000D03*
%TD*%
%TO.C,KiKit_FID_B_4*%
X206500000Y-113001500D03*
%TD*%
M02*
