M48
; DRILL file {KiCad 9.0.1} date 2025-12-04T09:14:01-0600
; FORMAT={-:-/ absolute / inch / decimal}
; #@! TF.CreationDate,2025-12-04T09:14:01-06:00
; #@! TF.GenerationSoftware,Kicad,Pcbnew,9.0.1
; #@! TF.FileFunction,NonPlated,1,2,NPTH
FMAT,2
INCH
; #@! TA.AperFunction,NonPlated,NPTH,ComponentDrill
T1C0.0256
; #@! TA.AperFunction,NonPlated,NPTH,ComponentDrill
T2C0.0787
; #@! TA.AperFunction,NonPlated,NPTH,ComponentDrill
T3C0.0866
%
G90
G05
T1
X8.0039Y-1.6544
X8.0039Y-1.8819
X8.0039Y-2.7961
X8.0039Y-3.0236
X8.0039Y-3.9378
X8.0039Y-4.1654
T2
X3.4843Y-0.7874
X3.4843Y-4.5276
X8.2087Y-0.7874
T3
X4.1929Y-1.8898
X4.1929Y-3.0315
X4.1929Y-4.1732
X4.9803Y-1.1811
X4.9803Y-2.3229
X4.9803Y-3.4646
X6.7126Y-1.1811
X6.7126Y-2.3229
X6.7126Y-3.4646
X7.4909Y-1.1327
X7.4909Y-2.2744
X7.4909Y-3.4162
X7.5Y-1.8898
X7.5Y-3.0315
X7.5Y-4.1732
M30
