M48
; DRILL file {KiCad 9.0.1} date 2025-12-04T09:14:01-0600
; FORMAT={-:-/ absolute / inch / decimal}
; #@! TF.CreationDate,2025-12-04T09:14:01-06:00
; #@! TF.GenerationSoftware,Kicad,Pcbnew,9.0.1
; #@! TF.FileFunction,Plated,1,2,PTH
FMAT,2
INCH
; #@! TA.AperFunction,Plated,PTH,ViaDrill
T1C0.0100
; #@! TA.AperFunction,Plated,PTH,ComponentDrill
T2C0.0100
; #@! TA.AperFunction,Plated,PTH,ComponentDrill
T3C0.0236
%
G90
G05
T1
X3.7559Y-1.5906
X3.7559Y-2.7323
X3.7559Y-3.874
X3.8346Y-1.8701
X3.8346Y-3.0118
X3.8346Y-4.1536
X3.9016Y-1.6949
X3.9016Y-2.8366
X3.9016Y-3.9784
X4.0Y-1.5788
X4.0Y-2.7205
X4.0Y-3.8622
X4.0315Y-1.1063
X4.0315Y-2.2481
X4.0315Y-3.3898
X4.063Y-1.1063
X4.063Y-2.2481
X4.063Y-3.3898
X4.0748Y-1.4134
X4.0748Y-2.5551
X4.0748Y-3.6969
X4.1654Y-1.4606
X4.1654Y-1.4921
X4.1654Y-2.6024
X4.1654Y-2.6339
X4.1654Y-3.7441
X4.1654Y-3.7756
X4.1693Y-1.2402
X4.1693Y-1.2717
X4.1693Y-1.3032
X4.1693Y-2.3819
X4.1693Y-2.4134
X4.1693Y-2.4449
X4.1693Y-3.5236
X4.1693Y-3.5551
X4.1693Y-3.5866
X4.1729Y-1.1142
X4.1729Y-2.2559
X4.1729Y-3.3977
X4.1772Y-1.7412
X4.1772Y-2.8829
X4.1772Y-4.0246
X4.1811Y-1.0551
X4.1811Y-2.1969
X4.1811Y-3.3386
X4.2362Y-1.5079
X4.2362Y-2.6496
X4.2362Y-3.7914
X4.2913Y-1.6319
X4.2913Y-2.7736
X4.2913Y-3.9154
X4.3465Y-1.4764
X4.3465Y-2.6181
X4.3465Y-3.7599
X4.374Y-1.0512
X4.374Y-2.1929
X4.374Y-3.3347
X4.3898Y-1.5955
X4.3898Y-1.7136
X4.3898Y-1.8711
X4.3898Y-2.7372
X4.3898Y-2.8553
X4.3898Y-3.0128
X4.3898Y-3.879
X4.3898Y-3.9971
X4.3898Y-4.1545
X4.4291Y-1.252
X4.4291Y-2.3937
X4.4291Y-3.5355
X4.4403Y-1.3622
X4.4403Y-2.504
X4.4403Y-3.6457
X4.4648Y-1.3422
X4.4648Y-2.484
X4.4648Y-3.6257
X4.4921Y-1.3232
X4.4921Y-2.4649
X4.4921Y-3.6066
X4.5Y-1.1418
X4.5Y-1.3858
X4.5Y-2.2835
X4.5Y-2.5276
X4.5Y-3.4252
X4.5Y-3.6693
X4.5157Y-1.3032
X4.5157Y-2.4449
X4.5157Y-3.5866
X4.5866Y-1.5955
X4.5866Y-1.7136
X4.5866Y-1.8711
X4.5866Y-2.7372
X4.5866Y-2.8553
X4.5866Y-3.0128
X4.5866Y-3.879
X4.5866Y-3.9971
X4.5866Y-4.1545
X4.6427Y-1.486
X4.6427Y-2.6277
X4.6427Y-3.7695
X4.6705Y-1.4855
X4.6705Y-2.6272
X4.6705Y-3.7689
X4.6732Y-1.4292
X4.6732Y-2.5709
X4.6732Y-3.7126
X4.7835Y-1.5955
X4.7835Y-1.7136
X4.7835Y-1.8711
X4.7835Y-2.7372
X4.7835Y-2.8553
X4.7835Y-3.0128
X4.7835Y-3.879
X4.7835Y-3.9971
X4.7835Y-4.1545
X4.8819Y-1.5551
X4.8819Y-2.6969
X4.8819Y-3.8386
X4.9803Y-1.5955
X4.9803Y-1.7136
X4.9803Y-1.8711
X4.9803Y-2.7372
X4.9803Y-2.8553
X4.9803Y-3.0128
X4.9803Y-3.879
X4.9803Y-3.9971
X4.9803Y-4.1545
X5.1339Y-1.252
X5.1339Y-2.3937
X5.1339Y-3.5355
X5.1772Y-1.5955
X5.1772Y-1.7136
X5.1772Y-1.8711
X5.1772Y-2.7372
X5.1772Y-2.8553
X5.1772Y-3.0128
X5.1772Y-3.879
X5.1772Y-3.9971
X5.1772Y-4.1545
X5.374Y-1.5955
X5.374Y-1.7136
X5.374Y-1.8711
X5.374Y-2.7372
X5.374Y-2.8553
X5.374Y-3.0128
X5.374Y-3.879
X5.374Y-3.9971
X5.374Y-4.1545
X5.387Y-1.4835
X5.387Y-2.6252
X5.387Y-3.7669
X5.5516Y-1.4118
X5.5516Y-2.5536
X5.5516Y-3.6953
X5.5709Y-1.5955
X5.5709Y-1.7136
X5.5709Y-1.8711
X5.5709Y-2.7372
X5.5709Y-2.8553
X5.5709Y-3.0128
X5.5709Y-3.879
X5.5709Y-3.9971
X5.5709Y-4.1545
X5.6575Y-1.1299
X5.6575Y-2.2717
X5.6575Y-3.4134
X5.7677Y-1.5955
X5.7677Y-1.7136
X5.7677Y-1.8711
X5.7677Y-2.7372
X5.7677Y-2.8553
X5.7677Y-3.0128
X5.7677Y-3.879
X5.7677Y-3.9971
X5.7677Y-4.1545
X5.9646Y-1.5955
X5.9646Y-1.7136
X5.9646Y-1.8711
X5.9646Y-2.7372
X5.9646Y-2.8553
X5.9646Y-3.0128
X5.9646Y-3.879
X5.9646Y-3.9971
X5.9646Y-4.1545
X6.1614Y-1.5955
X6.1614Y-1.7136
X6.1614Y-1.8711
X6.1614Y-2.7372
X6.1614Y-2.8553
X6.1614Y-3.0128
X6.1614Y-3.879
X6.1614Y-3.9971
X6.1614Y-4.1545
X6.2756Y-1.1339
X6.2756Y-2.2756
X6.2756Y-3.4173
X6.3583Y-1.5955
X6.3583Y-1.7136
X6.3583Y-1.8711
X6.3583Y-2.7372
X6.3583Y-2.8553
X6.3583Y-3.0128
X6.3583Y-3.879
X6.3583Y-3.9971
X6.3583Y-4.1545
X6.5551Y-1.5955
X6.5551Y-1.7136
X6.5551Y-1.8711
X6.5551Y-2.7372
X6.5551Y-2.8553
X6.5551Y-3.0128
X6.5551Y-3.879
X6.5551Y-3.9971
X6.5551Y-4.1545
X6.752Y-1.5955
X6.752Y-1.7136
X6.752Y-1.8711
X6.752Y-2.7372
X6.752Y-2.8553
X6.752Y-3.0128
X6.752Y-3.879
X6.752Y-3.9971
X6.752Y-4.1545
X6.9016Y-1.252
X6.9016Y-2.3937
X6.9016Y-3.5355
X6.9488Y-1.5955
X6.9488Y-1.7136
X6.9488Y-1.8711
X6.9488Y-2.7372
X6.9488Y-2.8553
X6.9488Y-3.0128
X6.9488Y-3.879
X6.9488Y-3.9971
X6.9488Y-4.1545
X7.0291Y-1.4303
X7.0291Y-2.5721
X7.0291Y-3.7138
X7.0669Y-1.4567
X7.0669Y-2.5984
X7.0669Y-3.7402
X7.1457Y-1.5955
X7.1457Y-1.7136
X7.1457Y-1.8711
X7.1457Y-2.7372
X7.1457Y-2.8553
X7.1457Y-3.0128
X7.1457Y-3.879
X7.1457Y-3.9971
X7.1457Y-4.1545
X7.187Y-1.336
X7.187Y-2.4778
X7.187Y-3.6195
X7.3217Y-1.2677
X7.3217Y-2.4095
X7.3217Y-3.5512
X7.3425Y-1.5955
X7.3425Y-1.7136
X7.3425Y-1.8711
X7.3425Y-2.7372
X7.3425Y-2.8553
X7.3425Y-3.0128
X7.3425Y-3.879
X7.3425Y-3.9971
X7.3425Y-4.1545
X7.5906Y-1.3414
X7.5906Y-2.4831
X7.5906Y-3.6248
X7.7276Y-1.7862
X7.7276Y-2.928
X7.7276Y-4.0697
X7.7768Y-1.5358
X7.7768Y-2.6776
X7.7768Y-3.8193
X7.8327Y-1.9402
X7.8327Y-3.0819
X7.8327Y-4.2236
X7.9134Y-1.937
X7.9134Y-3.0788
X7.9134Y-4.2205
X7.9252Y-1.5551
X7.9252Y-2.6969
X7.9252Y-3.8386
X8.0433Y-1.2937
X8.0433Y-2.4355
X8.0433Y-3.5772
X8.0827Y-1.8977
X8.0827Y-3.0394
X8.0827Y-4.1811
T2
X3.8593Y-1.2643
X3.8593Y-1.342
X3.8593Y-2.406
X3.8593Y-2.4838
X3.8593Y-3.5478
X3.8593Y-3.6255
X3.8981Y-1.2254
X3.8981Y-1.3032
X3.8981Y-1.3809
X3.8981Y-2.3671
X3.8981Y-2.4449
X3.8981Y-2.5227
X3.8981Y-3.5089
X3.8981Y-3.5866
X3.8981Y-3.6644
X3.937Y-1.2643
X3.937Y-1.342
X3.937Y-2.406
X3.937Y-2.4838
X3.937Y-3.5478
X3.937Y-3.6255
X3.9759Y-1.2254
X3.9759Y-1.3032
X3.9759Y-1.3809
X3.9759Y-2.3671
X3.9759Y-2.4449
X3.9759Y-2.5227
X3.9759Y-3.5089
X3.9759Y-3.5866
X3.9759Y-3.6644
X4.0148Y-1.2643
X4.0148Y-1.342
X4.0148Y-2.406
X4.0148Y-2.4838
X4.0148Y-3.5478
X4.0148Y-3.6255
T3
G00X7.9626Y-1.5981
M15
G01X8.0059Y-1.5981
M16
G05
G00X7.9626Y-1.9382
M15
G01X8.0059Y-1.9382
M16
G05
G00X7.9626Y-2.7398
M15
G01X8.0059Y-2.7398
M16
G05
G00X7.9626Y-3.0799
M15
G01X8.0059Y-3.0799
M16
G05
G00X7.9626Y-3.8815
M15
G01X8.0059Y-3.8815
M16
G05
G00X7.9626Y-4.2217
M15
G01X8.0059Y-4.2217
M16
G05
G00X8.1331Y-1.5981
M15
G01X8.1646Y-1.5981
M16
G05
G00X8.1331Y-1.9382
M15
G01X8.1646Y-1.9382
M16
G05
G00X8.1331Y-2.7398
M15
G01X8.1646Y-2.7398
M16
G05
G00X8.1331Y-3.0799
M15
G01X8.1646Y-3.0799
M16
G05
G00X8.1331Y-3.8815
M15
G01X8.1646Y-3.8815
M16
G05
G00X8.1331Y-4.2217
M15
G01X8.1646Y-4.2217
M16
G05
M30
