%TF.GenerationSoftware,KiCad,Pcbnew,9.0.1*%
%TF.CreationDate,2025-12-04T09:13:59-06:00*%
%TF.ProjectId,focus_bar_panel_v1,666f6375-735f-4626-9172-5f70616e656c,rev?*%
%TF.SameCoordinates,Original*%
%TF.FileFunction,Soldermask,Top*%
%TF.FilePolarity,Negative*%
%FSLAX46Y46*%
G04 Gerber Fmt 4.6, Leading zero omitted, Abs format (unit mm)*
G04 Created by KiCad (PCBNEW 9.0.1) date 2025-12-04 09:13:59*
%MOMM*%
%LPD*%
G01*
G04 APERTURE LIST*
G04 Aperture macros list*
%AMRoundRect*
0 Rectangle with rounded corners*
0 $1 Rounding radius*
0 $2 $3 $4 $5 $6 $7 $8 $9 X,Y pos of 4 corners*
0 Add a 4 corners polygon primitive as box body*
4,1,4,$2,$3,$4,$5,$6,$7,$8,$9,$2,$3,0*
0 Add four circle primitives for the rounded corners*
1,1,$1+$1,$2,$3*
1,1,$1+$1,$4,$5*
1,1,$1+$1,$6,$7*
1,1,$1+$1,$8,$9*
0 Add four rect primitives between the rounded corners*
20,1,$1+$1,$2,$3,$4,$5,0*
20,1,$1+$1,$4,$5,$6,$7,0*
20,1,$1+$1,$6,$7,$8,$9,0*
20,1,$1+$1,$8,$9,$2,$3,0*%
G04 Aperture macros list end*
%ADD10C,0.000000*%
%ADD11C,0.010000*%
%ADD12RoundRect,0.200000X0.200000X0.275000X-0.200000X0.275000X-0.200000X-0.275000X0.200000X-0.275000X0*%
%ADD13RoundRect,0.200000X0.275000X-0.200000X0.275000X0.200000X-0.275000X0.200000X-0.275000X-0.200000X0*%
%ADD14R,1.400000X1.050000*%
%ADD15RoundRect,0.225000X-0.225000X-0.250000X0.225000X-0.250000X0.225000X0.250000X-0.225000X0.250000X0*%
%ADD16RoundRect,0.225000X0.250000X-0.225000X0.250000X0.225000X-0.250000X0.225000X-0.250000X-0.225000X0*%
%ADD17R,0.558800X0.558800*%
%ADD18C,2.200000*%
%ADD19RoundRect,0.200000X-0.200000X-0.275000X0.200000X-0.275000X0.200000X0.275000X-0.200000X0.275000X0*%
%ADD20R,0.812800X1.422400*%
%ADD21C,2.000000*%
%ADD22RoundRect,0.225000X-0.250000X0.225000X-0.250000X-0.225000X0.250000X-0.225000X0.250000X0.225000X0*%
%ADD23RoundRect,0.150000X0.200000X-0.150000X0.200000X0.150000X-0.200000X0.150000X-0.200000X-0.150000X0*%
%ADD24RoundRect,0.225000X0.225000X0.250000X-0.225000X0.250000X-0.225000X-0.250000X0.225000X-0.250000X0*%
%ADD25C,1.000000*%
%ADD26RoundRect,0.102000X0.200000X-0.400000X0.200000X0.400000X-0.200000X0.400000X-0.200000X-0.400000X0*%
%ADD27RoundRect,0.102000X0.400000X-0.200000X0.400000X0.200000X-0.400000X0.200000X-0.400000X-0.200000X0*%
%ADD28RoundRect,0.102000X0.725000X-0.725000X0.725000X0.725000X-0.725000X0.725000X-0.725000X-0.725000X0*%
%ADD29RoundRect,0.102000X0.350000X-0.350000X0.350000X0.350000X-0.350000X0.350000X-0.350000X-0.350000X0*%
%ADD30C,0.650000*%
%ADD31RoundRect,0.025400X0.575000X-0.300000X0.575000X0.300000X-0.575000X0.300000X-0.575000X-0.300000X0*%
%ADD32RoundRect,0.025400X0.575000X-0.150000X0.575000X0.150000X-0.575000X0.150000X-0.575000X-0.150000X0*%
%ADD33O,2.304000X1.204000*%
%ADD34RoundRect,0.301000X0.701000X-0.301000X0.701000X0.301000X-0.701000X0.301000X-0.701000X-0.301000X0*%
%ADD35RoundRect,0.200000X-0.275000X0.200000X-0.275000X-0.200000X0.275000X-0.200000X0.275000X0.200000X0*%
%ADD36R,1.450000X4.000000*%
%ADD37RoundRect,0.175000X0.325000X-0.175000X0.325000X0.175000X-0.325000X0.175000X-0.325000X-0.175000X0*%
%ADD38RoundRect,0.150000X-0.587500X-0.150000X0.587500X-0.150000X0.587500X0.150000X-0.587500X0.150000X0*%
%ADD39R,1.500000X1.500000*%
G04 APERTURE END LIST*
D10*
%TO.C,G\u002A\u002A\u002A*%
G36*
X121104666Y-59972975D02*
G01*
X121069034Y-59972270D01*
X121041777Y-59970275D01*
X121008459Y-59965856D01*
X120984643Y-59961602D01*
X120893158Y-59935534D01*
X120808784Y-59896517D01*
X120732413Y-59845254D01*
X120664932Y-59782446D01*
X120607232Y-59708796D01*
X120561251Y-59627241D01*
X120535493Y-59565078D01*
X120518607Y-59504556D01*
X120508896Y-59438976D01*
X120506811Y-59412570D01*
X120508122Y-59319139D01*
X120523703Y-59228446D01*
X120552883Y-59141882D01*
X120594990Y-59060836D01*
X120649353Y-58986698D01*
X120715299Y-58920859D01*
X120761915Y-58884671D01*
X120823754Y-58847314D01*
X120891666Y-58816866D01*
X120961463Y-58794766D01*
X121028953Y-58782457D01*
X121065284Y-58780371D01*
X121104666Y-58780240D01*
X121104666Y-59972975D01*
G37*
G36*
X124422194Y-58780293D02*
G01*
X124458240Y-58783172D01*
X124502430Y-58790874D01*
X124549202Y-58802112D01*
X124592996Y-58815603D01*
X124619108Y-58825789D01*
X124658589Y-58845803D01*
X124702847Y-58872361D01*
X124746024Y-58901675D01*
X124782260Y-58929956D01*
X124787991Y-58935003D01*
X124847102Y-58998190D01*
X124896489Y-59071079D01*
X124935269Y-59151248D01*
X124962556Y-59236278D01*
X124977468Y-59323748D01*
X124979121Y-59411236D01*
X124975499Y-59448523D01*
X124955814Y-59541426D01*
X124923122Y-59628174D01*
X124878417Y-59707692D01*
X124822694Y-59778907D01*
X124756946Y-59840746D01*
X124682168Y-59892135D01*
X124599353Y-59932000D01*
X124509497Y-59959269D01*
X124500804Y-59961129D01*
X124468401Y-59966995D01*
X124437360Y-59971232D01*
X124414115Y-59972969D01*
X124413134Y-59972975D01*
X124382812Y-59972975D01*
X124382812Y-58780240D01*
X124422194Y-58780293D01*
G37*
G36*
X122743739Y-58889485D02*
G01*
X122787013Y-58889890D01*
X122819083Y-58891055D01*
X122843747Y-58893489D01*
X122864804Y-58897700D01*
X122886050Y-58904196D01*
X122904863Y-58911050D01*
X122981955Y-58947591D01*
X123051464Y-58995543D01*
X123111911Y-59053350D01*
X123161811Y-59119453D01*
X123199683Y-59192295D01*
X123215794Y-59237830D01*
X123229601Y-59307178D01*
X123232964Y-59382204D01*
X123226195Y-59458127D01*
X123209606Y-59530165D01*
X123193993Y-59571991D01*
X123153380Y-59646057D01*
X123101966Y-59710809D01*
X123041293Y-59765463D01*
X122972902Y-59809234D01*
X122898336Y-59841339D01*
X122819134Y-59860993D01*
X122736839Y-59867414D01*
X122652991Y-59859817D01*
X122634968Y-59856289D01*
X122561879Y-59833239D01*
X122491938Y-59797127D01*
X122427248Y-59749861D01*
X122369912Y-59693346D01*
X122322035Y-59629488D01*
X122285719Y-59560192D01*
X122274265Y-59529456D01*
X122266536Y-59503774D01*
X122261343Y-59479902D01*
X122258219Y-59453751D01*
X122256695Y-59421228D01*
X122256300Y-59378243D01*
X122256305Y-59372857D01*
X122256670Y-59329780D01*
X122257945Y-59297729D01*
X122260642Y-59272734D01*
X122265271Y-59250822D01*
X122272343Y-59228022D01*
X122276403Y-59216567D01*
X122305601Y-59148892D01*
X122341790Y-59090412D01*
X122388376Y-59035754D01*
X122395577Y-59028445D01*
X122449816Y-58980454D01*
X122507171Y-58943151D01*
X122572998Y-58913140D01*
X122583698Y-58909143D01*
X122607362Y-58900981D01*
X122628196Y-58895398D01*
X122649984Y-58891929D01*
X122676511Y-58890109D01*
X122711561Y-58889472D01*
X122743739Y-58889485D01*
G37*
G36*
X122775381Y-57348487D02*
G01*
X122856061Y-57351893D01*
X122931936Y-57358501D01*
X122998366Y-57368198D01*
X123006291Y-57369724D01*
X123146729Y-57405131D01*
X123281536Y-57453954D01*
X123409844Y-57515535D01*
X123530783Y-57589215D01*
X123643483Y-57674335D01*
X123747076Y-57770237D01*
X123840693Y-57876262D01*
X123923464Y-57991752D01*
X123994520Y-58116047D01*
X123996555Y-58120092D01*
X124045524Y-58227485D01*
X124083228Y-58332555D01*
X124101256Y-58396676D01*
X124108421Y-58424975D01*
X124114749Y-58450610D01*
X124120297Y-58474665D01*
X124125121Y-58498225D01*
X124129278Y-58522374D01*
X124132825Y-58548196D01*
X124135819Y-58576776D01*
X124138317Y-58609198D01*
X124140375Y-58646547D01*
X124142050Y-58689906D01*
X124143399Y-58740360D01*
X124144479Y-58798994D01*
X124145346Y-58866891D01*
X124146058Y-58945136D01*
X124146670Y-59034814D01*
X124147241Y-59137009D01*
X124147826Y-59252804D01*
X124148008Y-59289414D01*
X124148638Y-59426921D01*
X124149042Y-59550432D01*
X124149159Y-59660953D01*
X124148926Y-59759492D01*
X124148283Y-59847054D01*
X124147166Y-59924646D01*
X124145514Y-59993274D01*
X124143266Y-60053944D01*
X124140360Y-60107663D01*
X124136734Y-60155438D01*
X124132325Y-60198273D01*
X124127073Y-60237177D01*
X124120916Y-60273155D01*
X124113791Y-60307214D01*
X124105638Y-60340359D01*
X124096393Y-60373598D01*
X124085996Y-60407936D01*
X124077730Y-60434004D01*
X124029257Y-60561225D01*
X123967369Y-60684379D01*
X123893306Y-60801887D01*
X123808312Y-60912170D01*
X123713629Y-61013648D01*
X123610501Y-61104741D01*
X123500169Y-61183869D01*
X123475953Y-61198969D01*
X123430845Y-61226370D01*
X123460791Y-61265429D01*
X123488621Y-61306914D01*
X123516719Y-61357801D01*
X123542516Y-61412760D01*
X123563444Y-61466458D01*
X123573581Y-61499526D01*
X123584335Y-61556278D01*
X123589907Y-61621416D01*
X123590225Y-61689216D01*
X123585216Y-61753957D01*
X123577354Y-61799585D01*
X123558546Y-61865401D01*
X123532332Y-61934647D01*
X123501665Y-61999897D01*
X123487636Y-62025230D01*
X123465947Y-62060931D01*
X123442587Y-62096533D01*
X123416404Y-62133485D01*
X123386251Y-62173238D01*
X123350977Y-62217243D01*
X123309432Y-62266950D01*
X123260466Y-62323809D01*
X123202931Y-62389271D01*
X123167002Y-62429709D01*
X123098171Y-62507919D01*
X123039053Y-62577375D01*
X122988487Y-62639659D01*
X122945314Y-62696357D01*
X122908375Y-62749053D01*
X122876511Y-62799333D01*
X122848564Y-62848779D01*
X122823373Y-62898978D01*
X122822728Y-62900342D01*
X122786667Y-62976720D01*
X122763302Y-62939877D01*
X122739602Y-62899404D01*
X122723357Y-62862692D01*
X122713313Y-62825076D01*
X122708216Y-62781890D01*
X122706812Y-62729768D01*
X122708209Y-62677394D01*
X122713290Y-62633086D01*
X122723307Y-62592535D01*
X122739509Y-62551435D01*
X122763147Y-62505475D01*
X122780863Y-62474718D01*
X122814350Y-62412505D01*
X122836728Y-62356884D01*
X122848664Y-62305153D01*
X122850827Y-62254610D01*
X122845777Y-62212166D01*
X122826215Y-62145412D01*
X122793880Y-62083852D01*
X122750474Y-62029759D01*
X122697698Y-61985405D01*
X122659047Y-61962811D01*
X122630157Y-61949097D01*
X122607702Y-61940732D01*
X122585879Y-61936405D01*
X122558886Y-61934807D01*
X122534087Y-61934611D01*
X122497860Y-61935335D01*
X122471609Y-61938076D01*
X122450352Y-61943690D01*
X122430327Y-61952422D01*
X122386012Y-61980145D01*
X122345504Y-62016047D01*
X122313129Y-62055953D01*
X122300507Y-62077785D01*
X122283720Y-62127308D01*
X122276966Y-62183870D01*
X122280073Y-62243516D01*
X122292866Y-62302289D01*
X122312486Y-62351103D01*
X122320018Y-62368933D01*
X122321447Y-62379560D01*
X122319719Y-62380949D01*
X122307677Y-62376415D01*
X122286864Y-62364100D01*
X122259942Y-62345934D01*
X122229577Y-62323848D01*
X122198432Y-62299771D01*
X122169173Y-62275634D01*
X122147136Y-62255911D01*
X122074519Y-62177435D01*
X122013983Y-62090994D01*
X121966035Y-61997950D01*
X121931184Y-61899661D01*
X121909937Y-61797488D01*
X121902802Y-61692789D01*
X121907038Y-61613238D01*
X121922679Y-61512780D01*
X121947658Y-61422202D01*
X121982803Y-61339027D01*
X122021235Y-61272382D01*
X122035551Y-61249589D01*
X122045458Y-61232245D01*
X122049141Y-61223564D01*
X122049004Y-61223170D01*
X122041597Y-61218434D01*
X122025104Y-61208133D01*
X122004844Y-61195579D01*
X121886278Y-61113689D01*
X121777754Y-61021065D01*
X121679828Y-60918597D01*
X121593054Y-60807174D01*
X121517989Y-60687688D01*
X121455188Y-60561027D01*
X121405207Y-60428081D01*
X121368601Y-60289739D01*
X121345926Y-60146893D01*
X121345111Y-60139088D01*
X121343726Y-60117582D01*
X121342471Y-60082508D01*
X121341348Y-60035219D01*
X121340357Y-59977063D01*
X121339496Y-59909391D01*
X121338767Y-59833554D01*
X121338169Y-59750902D01*
X121337702Y-59662785D01*
X121337367Y-59570554D01*
X121337162Y-59475559D01*
X121337089Y-59379151D01*
X121337146Y-59282679D01*
X121337335Y-59187494D01*
X121337654Y-59094947D01*
X121337903Y-59046029D01*
X121945339Y-59046029D01*
X121945432Y-59139680D01*
X121945698Y-59245947D01*
X121946093Y-59365825D01*
X121946278Y-59417866D01*
X121948786Y-60119254D01*
X121969284Y-60194269D01*
X122005429Y-60299810D01*
X122053710Y-60397662D01*
X122113325Y-60486942D01*
X122183473Y-60566767D01*
X122263354Y-60636255D01*
X122352166Y-60694525D01*
X122449109Y-60740694D01*
X122473862Y-60750006D01*
X122577472Y-60779625D01*
X122682744Y-60795370D01*
X122787637Y-60797054D01*
X122875908Y-60787127D01*
X122981140Y-60761178D01*
X123081386Y-60721360D01*
X123175359Y-60668344D01*
X123261771Y-60602800D01*
X123302442Y-60564840D01*
X123375526Y-60481488D01*
X123435613Y-60390819D01*
X123482396Y-60293472D01*
X123515566Y-60190089D01*
X123534627Y-60082989D01*
X123536098Y-60061883D01*
X123537422Y-60027193D01*
X123538601Y-59980336D01*
X123539634Y-59922731D01*
X123540521Y-59855794D01*
X123541262Y-59780944D01*
X123541857Y-59699598D01*
X123542307Y-59613175D01*
X123542610Y-59523091D01*
X123542768Y-59430766D01*
X123542780Y-59337615D01*
X123542646Y-59245059D01*
X123542366Y-59154513D01*
X123541941Y-59067396D01*
X123541369Y-58985126D01*
X123540652Y-58909120D01*
X123539788Y-58840797D01*
X123538779Y-58781573D01*
X123537624Y-58732868D01*
X123536324Y-58696098D01*
X123534877Y-58672681D01*
X123534627Y-58670226D01*
X123515576Y-58563226D01*
X123483503Y-58462026D01*
X123439367Y-58367496D01*
X123384122Y-58280501D01*
X123318726Y-58201912D01*
X123244136Y-58132594D01*
X123161307Y-58073416D01*
X123071196Y-58025245D01*
X122974759Y-57988950D01*
X122872953Y-57965397D01*
X122766735Y-57955455D01*
X122746443Y-57955176D01*
X122635442Y-57961910D01*
X122530375Y-57982415D01*
X122431062Y-58016764D01*
X122337323Y-58065029D01*
X122248978Y-58127281D01*
X122195189Y-58174491D01*
X122123911Y-58250496D01*
X122065777Y-58331327D01*
X122019078Y-58419676D01*
X121987104Y-58502686D01*
X121980109Y-58524131D01*
X121973909Y-58544270D01*
X121968459Y-58564098D01*
X121963716Y-58584608D01*
X121959633Y-58606795D01*
X121956168Y-58631654D01*
X121953275Y-58660178D01*
X121950911Y-58693363D01*
X121949031Y-58732203D01*
X121947591Y-58777692D01*
X121946546Y-58830825D01*
X121945852Y-58892595D01*
X121945464Y-58963999D01*
X121945339Y-59046029D01*
X121337903Y-59046029D01*
X121338105Y-59006387D01*
X121338686Y-58923166D01*
X121339398Y-58846633D01*
X121340241Y-58778139D01*
X121341215Y-58719035D01*
X121342320Y-58670669D01*
X121343555Y-58634394D01*
X121344921Y-58611559D01*
X121345147Y-58609286D01*
X121367208Y-58467279D01*
X121401854Y-58332505D01*
X121449539Y-58203369D01*
X121479174Y-58138864D01*
X121549939Y-58011188D01*
X121631996Y-57892888D01*
X121724565Y-57784534D01*
X121826862Y-57686695D01*
X121938107Y-57599941D01*
X122057515Y-57524840D01*
X122184306Y-57461963D01*
X122317698Y-57411878D01*
X122456907Y-57375156D01*
X122550918Y-57358611D01*
X122618168Y-57351733D01*
X122694536Y-57348396D01*
X122775381Y-57348487D01*
G37*
D11*
%TO.C,U7*%
X98850000Y-64900500D02*
X97850000Y-64900500D01*
X97200000Y-64250500D01*
X97200000Y-63250500D01*
X98850000Y-63250500D01*
X98850000Y-64900500D01*
G36*
X98850000Y-64900500D02*
G01*
X97850000Y-64900500D01*
X97200000Y-64250500D01*
X97200000Y-63250500D01*
X98850000Y-63250500D01*
X98850000Y-64900500D01*
G37*
D10*
%TO.C,G\u002A\u002A\u002A*%
G36*
X121104666Y-30972975D02*
G01*
X121069034Y-30972270D01*
X121041777Y-30970275D01*
X121008459Y-30965856D01*
X120984643Y-30961602D01*
X120893158Y-30935534D01*
X120808784Y-30896517D01*
X120732413Y-30845254D01*
X120664932Y-30782446D01*
X120607232Y-30708796D01*
X120561251Y-30627241D01*
X120535493Y-30565078D01*
X120518607Y-30504556D01*
X120508896Y-30438976D01*
X120506811Y-30412570D01*
X120508122Y-30319139D01*
X120523703Y-30228446D01*
X120552883Y-30141882D01*
X120594990Y-30060836D01*
X120649353Y-29986698D01*
X120715299Y-29920859D01*
X120761915Y-29884671D01*
X120823754Y-29847314D01*
X120891666Y-29816866D01*
X120961463Y-29794766D01*
X121028953Y-29782457D01*
X121065284Y-29780371D01*
X121104666Y-29780240D01*
X121104666Y-30972975D01*
G37*
G36*
X124422194Y-29780293D02*
G01*
X124458240Y-29783172D01*
X124502430Y-29790874D01*
X124549202Y-29802112D01*
X124592996Y-29815603D01*
X124619108Y-29825789D01*
X124658589Y-29845803D01*
X124702847Y-29872361D01*
X124746024Y-29901675D01*
X124782260Y-29929956D01*
X124787991Y-29935003D01*
X124847102Y-29998190D01*
X124896489Y-30071079D01*
X124935269Y-30151248D01*
X124962556Y-30236278D01*
X124977468Y-30323748D01*
X124979121Y-30411236D01*
X124975499Y-30448523D01*
X124955814Y-30541426D01*
X124923122Y-30628174D01*
X124878417Y-30707692D01*
X124822694Y-30778907D01*
X124756946Y-30840746D01*
X124682168Y-30892135D01*
X124599353Y-30932000D01*
X124509497Y-30959269D01*
X124500804Y-30961129D01*
X124468401Y-30966995D01*
X124437360Y-30971232D01*
X124414115Y-30972969D01*
X124413134Y-30972975D01*
X124382812Y-30972975D01*
X124382812Y-29780240D01*
X124422194Y-29780293D01*
G37*
G36*
X122743739Y-29889485D02*
G01*
X122787013Y-29889890D01*
X122819083Y-29891055D01*
X122843747Y-29893489D01*
X122864804Y-29897700D01*
X122886050Y-29904196D01*
X122904863Y-29911050D01*
X122981955Y-29947591D01*
X123051464Y-29995543D01*
X123111911Y-30053350D01*
X123161811Y-30119453D01*
X123199683Y-30192295D01*
X123215794Y-30237830D01*
X123229601Y-30307178D01*
X123232964Y-30382204D01*
X123226195Y-30458127D01*
X123209606Y-30530165D01*
X123193993Y-30571991D01*
X123153380Y-30646057D01*
X123101966Y-30710809D01*
X123041293Y-30765463D01*
X122972902Y-30809234D01*
X122898336Y-30841339D01*
X122819134Y-30860993D01*
X122736839Y-30867414D01*
X122652991Y-30859817D01*
X122634968Y-30856289D01*
X122561879Y-30833239D01*
X122491938Y-30797127D01*
X122427248Y-30749861D01*
X122369912Y-30693346D01*
X122322035Y-30629488D01*
X122285719Y-30560192D01*
X122274265Y-30529456D01*
X122266536Y-30503774D01*
X122261343Y-30479902D01*
X122258219Y-30453751D01*
X122256695Y-30421228D01*
X122256300Y-30378243D01*
X122256305Y-30372857D01*
X122256670Y-30329780D01*
X122257945Y-30297729D01*
X122260642Y-30272734D01*
X122265271Y-30250822D01*
X122272343Y-30228022D01*
X122276403Y-30216567D01*
X122305601Y-30148892D01*
X122341790Y-30090412D01*
X122388376Y-30035754D01*
X122395577Y-30028445D01*
X122449816Y-29980454D01*
X122507171Y-29943151D01*
X122572998Y-29913140D01*
X122583698Y-29909143D01*
X122607362Y-29900981D01*
X122628196Y-29895398D01*
X122649984Y-29891929D01*
X122676511Y-29890109D01*
X122711561Y-29889472D01*
X122743739Y-29889485D01*
G37*
G36*
X122775381Y-28348487D02*
G01*
X122856061Y-28351893D01*
X122931936Y-28358501D01*
X122998366Y-28368198D01*
X123006291Y-28369724D01*
X123146729Y-28405131D01*
X123281536Y-28453954D01*
X123409844Y-28515535D01*
X123530783Y-28589215D01*
X123643483Y-28674335D01*
X123747076Y-28770237D01*
X123840693Y-28876262D01*
X123923464Y-28991752D01*
X123994520Y-29116047D01*
X123996555Y-29120092D01*
X124045524Y-29227485D01*
X124083228Y-29332555D01*
X124101256Y-29396676D01*
X124108421Y-29424975D01*
X124114749Y-29450610D01*
X124120297Y-29474665D01*
X124125121Y-29498225D01*
X124129278Y-29522374D01*
X124132825Y-29548196D01*
X124135819Y-29576776D01*
X124138317Y-29609198D01*
X124140375Y-29646547D01*
X124142050Y-29689906D01*
X124143399Y-29740360D01*
X124144479Y-29798994D01*
X124145346Y-29866891D01*
X124146058Y-29945136D01*
X124146670Y-30034814D01*
X124147241Y-30137009D01*
X124147826Y-30252804D01*
X124148008Y-30289414D01*
X124148638Y-30426921D01*
X124149042Y-30550432D01*
X124149159Y-30660953D01*
X124148926Y-30759492D01*
X124148283Y-30847054D01*
X124147166Y-30924646D01*
X124145514Y-30993274D01*
X124143266Y-31053944D01*
X124140360Y-31107663D01*
X124136734Y-31155438D01*
X124132325Y-31198273D01*
X124127073Y-31237177D01*
X124120916Y-31273155D01*
X124113791Y-31307214D01*
X124105638Y-31340359D01*
X124096393Y-31373598D01*
X124085996Y-31407936D01*
X124077730Y-31434004D01*
X124029257Y-31561225D01*
X123967369Y-31684379D01*
X123893306Y-31801887D01*
X123808312Y-31912170D01*
X123713629Y-32013648D01*
X123610501Y-32104741D01*
X123500169Y-32183869D01*
X123475953Y-32198969D01*
X123430845Y-32226370D01*
X123460791Y-32265429D01*
X123488621Y-32306914D01*
X123516719Y-32357801D01*
X123542516Y-32412760D01*
X123563444Y-32466458D01*
X123573581Y-32499526D01*
X123584335Y-32556278D01*
X123589907Y-32621416D01*
X123590225Y-32689216D01*
X123585216Y-32753957D01*
X123577354Y-32799585D01*
X123558546Y-32865401D01*
X123532332Y-32934647D01*
X123501665Y-32999897D01*
X123487636Y-33025230D01*
X123465947Y-33060931D01*
X123442587Y-33096533D01*
X123416404Y-33133485D01*
X123386251Y-33173238D01*
X123350977Y-33217243D01*
X123309432Y-33266950D01*
X123260466Y-33323809D01*
X123202931Y-33389271D01*
X123167002Y-33429709D01*
X123098171Y-33507919D01*
X123039053Y-33577375D01*
X122988487Y-33639659D01*
X122945314Y-33696357D01*
X122908375Y-33749053D01*
X122876511Y-33799333D01*
X122848564Y-33848779D01*
X122823373Y-33898978D01*
X122822728Y-33900342D01*
X122786667Y-33976720D01*
X122763302Y-33939877D01*
X122739602Y-33899404D01*
X122723357Y-33862692D01*
X122713313Y-33825076D01*
X122708216Y-33781890D01*
X122706812Y-33729768D01*
X122708209Y-33677394D01*
X122713290Y-33633086D01*
X122723307Y-33592535D01*
X122739509Y-33551435D01*
X122763147Y-33505475D01*
X122780863Y-33474718D01*
X122814350Y-33412505D01*
X122836728Y-33356884D01*
X122848664Y-33305153D01*
X122850827Y-33254610D01*
X122845777Y-33212166D01*
X122826215Y-33145412D01*
X122793880Y-33083852D01*
X122750474Y-33029759D01*
X122697698Y-32985405D01*
X122659047Y-32962811D01*
X122630157Y-32949097D01*
X122607702Y-32940732D01*
X122585879Y-32936405D01*
X122558886Y-32934807D01*
X122534087Y-32934611D01*
X122497860Y-32935335D01*
X122471609Y-32938076D01*
X122450352Y-32943690D01*
X122430327Y-32952422D01*
X122386012Y-32980145D01*
X122345504Y-33016047D01*
X122313129Y-33055953D01*
X122300507Y-33077785D01*
X122283720Y-33127308D01*
X122276966Y-33183870D01*
X122280073Y-33243516D01*
X122292866Y-33302289D01*
X122312486Y-33351103D01*
X122320018Y-33368933D01*
X122321447Y-33379560D01*
X122319719Y-33380949D01*
X122307677Y-33376415D01*
X122286864Y-33364100D01*
X122259942Y-33345934D01*
X122229577Y-33323848D01*
X122198432Y-33299771D01*
X122169173Y-33275634D01*
X122147136Y-33255911D01*
X122074519Y-33177435D01*
X122013983Y-33090994D01*
X121966035Y-32997950D01*
X121931184Y-32899661D01*
X121909937Y-32797488D01*
X121902802Y-32692789D01*
X121907038Y-32613238D01*
X121922679Y-32512780D01*
X121947658Y-32422202D01*
X121982803Y-32339027D01*
X122021235Y-32272382D01*
X122035551Y-32249589D01*
X122045458Y-32232245D01*
X122049141Y-32223564D01*
X122049004Y-32223170D01*
X122041597Y-32218434D01*
X122025104Y-32208133D01*
X122004844Y-32195579D01*
X121886278Y-32113689D01*
X121777754Y-32021065D01*
X121679828Y-31918597D01*
X121593054Y-31807174D01*
X121517989Y-31687688D01*
X121455188Y-31561027D01*
X121405207Y-31428081D01*
X121368601Y-31289739D01*
X121345926Y-31146893D01*
X121345111Y-31139088D01*
X121343726Y-31117582D01*
X121342471Y-31082508D01*
X121341348Y-31035219D01*
X121340357Y-30977063D01*
X121339496Y-30909391D01*
X121338767Y-30833554D01*
X121338169Y-30750902D01*
X121337702Y-30662785D01*
X121337367Y-30570554D01*
X121337162Y-30475559D01*
X121337089Y-30379151D01*
X121337146Y-30282679D01*
X121337335Y-30187494D01*
X121337654Y-30094947D01*
X121337903Y-30046029D01*
X121945339Y-30046029D01*
X121945432Y-30139680D01*
X121945698Y-30245947D01*
X121946093Y-30365825D01*
X121946278Y-30417866D01*
X121948786Y-31119254D01*
X121969284Y-31194269D01*
X122005429Y-31299810D01*
X122053710Y-31397662D01*
X122113325Y-31486942D01*
X122183473Y-31566767D01*
X122263354Y-31636255D01*
X122352166Y-31694525D01*
X122449109Y-31740694D01*
X122473862Y-31750006D01*
X122577472Y-31779625D01*
X122682744Y-31795370D01*
X122787637Y-31797054D01*
X122875908Y-31787127D01*
X122981140Y-31761178D01*
X123081386Y-31721360D01*
X123175359Y-31668344D01*
X123261771Y-31602800D01*
X123302442Y-31564840D01*
X123375526Y-31481488D01*
X123435613Y-31390819D01*
X123482396Y-31293472D01*
X123515566Y-31190089D01*
X123534627Y-31082989D01*
X123536098Y-31061883D01*
X123537422Y-31027193D01*
X123538601Y-30980336D01*
X123539634Y-30922731D01*
X123540521Y-30855794D01*
X123541262Y-30780944D01*
X123541857Y-30699598D01*
X123542307Y-30613175D01*
X123542610Y-30523091D01*
X123542768Y-30430766D01*
X123542780Y-30337615D01*
X123542646Y-30245059D01*
X123542366Y-30154513D01*
X123541941Y-30067396D01*
X123541369Y-29985126D01*
X123540652Y-29909120D01*
X123539788Y-29840797D01*
X123538779Y-29781573D01*
X123537624Y-29732868D01*
X123536324Y-29696098D01*
X123534877Y-29672681D01*
X123534627Y-29670226D01*
X123515576Y-29563226D01*
X123483503Y-29462026D01*
X123439367Y-29367496D01*
X123384122Y-29280501D01*
X123318726Y-29201912D01*
X123244136Y-29132594D01*
X123161307Y-29073416D01*
X123071196Y-29025245D01*
X122974759Y-28988950D01*
X122872953Y-28965397D01*
X122766735Y-28955455D01*
X122746443Y-28955176D01*
X122635442Y-28961910D01*
X122530375Y-28982415D01*
X122431062Y-29016764D01*
X122337323Y-29065029D01*
X122248978Y-29127281D01*
X122195189Y-29174491D01*
X122123911Y-29250496D01*
X122065777Y-29331327D01*
X122019078Y-29419676D01*
X121987104Y-29502686D01*
X121980109Y-29524131D01*
X121973909Y-29544270D01*
X121968459Y-29564098D01*
X121963716Y-29584608D01*
X121959633Y-29606795D01*
X121956168Y-29631654D01*
X121953275Y-29660178D01*
X121950911Y-29693363D01*
X121949031Y-29732203D01*
X121947591Y-29777692D01*
X121946546Y-29830825D01*
X121945852Y-29892595D01*
X121945464Y-29963999D01*
X121945339Y-30046029D01*
X121337903Y-30046029D01*
X121338105Y-30006387D01*
X121338686Y-29923166D01*
X121339398Y-29846633D01*
X121340241Y-29778139D01*
X121341215Y-29719035D01*
X121342320Y-29670669D01*
X121343555Y-29634394D01*
X121344921Y-29611559D01*
X121345147Y-29609286D01*
X121367208Y-29467279D01*
X121401854Y-29332505D01*
X121449539Y-29203369D01*
X121479174Y-29138864D01*
X121549939Y-29011188D01*
X121631996Y-28892888D01*
X121724565Y-28784534D01*
X121826862Y-28686695D01*
X121938107Y-28599941D01*
X122057515Y-28524840D01*
X122184306Y-28461963D01*
X122317698Y-28411878D01*
X122456907Y-28375156D01*
X122550918Y-28358611D01*
X122618168Y-28351733D01*
X122694536Y-28348396D01*
X122775381Y-28348487D01*
G37*
G36*
X121104666Y-88972975D02*
G01*
X121069034Y-88972270D01*
X121041777Y-88970275D01*
X121008459Y-88965856D01*
X120984643Y-88961602D01*
X120893158Y-88935534D01*
X120808784Y-88896517D01*
X120732413Y-88845254D01*
X120664932Y-88782446D01*
X120607232Y-88708796D01*
X120561251Y-88627241D01*
X120535493Y-88565078D01*
X120518607Y-88504556D01*
X120508896Y-88438976D01*
X120506811Y-88412570D01*
X120508122Y-88319139D01*
X120523703Y-88228446D01*
X120552883Y-88141882D01*
X120594990Y-88060836D01*
X120649353Y-87986698D01*
X120715299Y-87920859D01*
X120761915Y-87884671D01*
X120823754Y-87847314D01*
X120891666Y-87816866D01*
X120961463Y-87794766D01*
X121028953Y-87782457D01*
X121065284Y-87780371D01*
X121104666Y-87780240D01*
X121104666Y-88972975D01*
G37*
G36*
X124422194Y-87780293D02*
G01*
X124458240Y-87783172D01*
X124502430Y-87790874D01*
X124549202Y-87802112D01*
X124592996Y-87815603D01*
X124619108Y-87825789D01*
X124658589Y-87845803D01*
X124702847Y-87872361D01*
X124746024Y-87901675D01*
X124782260Y-87929956D01*
X124787991Y-87935003D01*
X124847102Y-87998190D01*
X124896489Y-88071079D01*
X124935269Y-88151248D01*
X124962556Y-88236278D01*
X124977468Y-88323748D01*
X124979121Y-88411236D01*
X124975499Y-88448523D01*
X124955814Y-88541426D01*
X124923122Y-88628174D01*
X124878417Y-88707692D01*
X124822694Y-88778907D01*
X124756946Y-88840746D01*
X124682168Y-88892135D01*
X124599353Y-88932000D01*
X124509497Y-88959269D01*
X124500804Y-88961129D01*
X124468401Y-88966995D01*
X124437360Y-88971232D01*
X124414115Y-88972969D01*
X124413134Y-88972975D01*
X124382812Y-88972975D01*
X124382812Y-87780240D01*
X124422194Y-87780293D01*
G37*
G36*
X122743739Y-87889485D02*
G01*
X122787013Y-87889890D01*
X122819083Y-87891055D01*
X122843747Y-87893489D01*
X122864804Y-87897700D01*
X122886050Y-87904196D01*
X122904863Y-87911050D01*
X122981955Y-87947591D01*
X123051464Y-87995543D01*
X123111911Y-88053350D01*
X123161811Y-88119453D01*
X123199683Y-88192295D01*
X123215794Y-88237830D01*
X123229601Y-88307178D01*
X123232964Y-88382204D01*
X123226195Y-88458127D01*
X123209606Y-88530165D01*
X123193993Y-88571991D01*
X123153380Y-88646057D01*
X123101966Y-88710809D01*
X123041293Y-88765463D01*
X122972902Y-88809234D01*
X122898336Y-88841339D01*
X122819134Y-88860993D01*
X122736839Y-88867414D01*
X122652991Y-88859817D01*
X122634968Y-88856289D01*
X122561879Y-88833239D01*
X122491938Y-88797127D01*
X122427248Y-88749861D01*
X122369912Y-88693346D01*
X122322035Y-88629488D01*
X122285719Y-88560192D01*
X122274265Y-88529456D01*
X122266536Y-88503774D01*
X122261343Y-88479902D01*
X122258219Y-88453751D01*
X122256695Y-88421228D01*
X122256300Y-88378243D01*
X122256305Y-88372857D01*
X122256670Y-88329780D01*
X122257945Y-88297729D01*
X122260642Y-88272734D01*
X122265271Y-88250822D01*
X122272343Y-88228022D01*
X122276403Y-88216567D01*
X122305601Y-88148892D01*
X122341790Y-88090412D01*
X122388376Y-88035754D01*
X122395577Y-88028445D01*
X122449816Y-87980454D01*
X122507171Y-87943151D01*
X122572998Y-87913140D01*
X122583698Y-87909143D01*
X122607362Y-87900981D01*
X122628196Y-87895398D01*
X122649984Y-87891929D01*
X122676511Y-87890109D01*
X122711561Y-87889472D01*
X122743739Y-87889485D01*
G37*
G36*
X122775381Y-86348487D02*
G01*
X122856061Y-86351893D01*
X122931936Y-86358501D01*
X122998366Y-86368198D01*
X123006291Y-86369724D01*
X123146729Y-86405131D01*
X123281536Y-86453954D01*
X123409844Y-86515535D01*
X123530783Y-86589215D01*
X123643483Y-86674335D01*
X123747076Y-86770237D01*
X123840693Y-86876262D01*
X123923464Y-86991752D01*
X123994520Y-87116047D01*
X123996555Y-87120092D01*
X124045524Y-87227485D01*
X124083228Y-87332555D01*
X124101256Y-87396676D01*
X124108421Y-87424975D01*
X124114749Y-87450610D01*
X124120297Y-87474665D01*
X124125121Y-87498225D01*
X124129278Y-87522374D01*
X124132825Y-87548196D01*
X124135819Y-87576776D01*
X124138317Y-87609198D01*
X124140375Y-87646547D01*
X124142050Y-87689906D01*
X124143399Y-87740360D01*
X124144479Y-87798994D01*
X124145346Y-87866891D01*
X124146058Y-87945136D01*
X124146670Y-88034814D01*
X124147241Y-88137009D01*
X124147826Y-88252804D01*
X124148008Y-88289414D01*
X124148638Y-88426921D01*
X124149042Y-88550432D01*
X124149159Y-88660953D01*
X124148926Y-88759492D01*
X124148283Y-88847054D01*
X124147166Y-88924646D01*
X124145514Y-88993274D01*
X124143266Y-89053944D01*
X124140360Y-89107663D01*
X124136734Y-89155438D01*
X124132325Y-89198273D01*
X124127073Y-89237177D01*
X124120916Y-89273155D01*
X124113791Y-89307214D01*
X124105638Y-89340359D01*
X124096393Y-89373598D01*
X124085996Y-89407936D01*
X124077730Y-89434004D01*
X124029257Y-89561225D01*
X123967369Y-89684379D01*
X123893306Y-89801887D01*
X123808312Y-89912170D01*
X123713629Y-90013648D01*
X123610501Y-90104741D01*
X123500169Y-90183869D01*
X123475953Y-90198969D01*
X123430845Y-90226370D01*
X123460791Y-90265429D01*
X123488621Y-90306914D01*
X123516719Y-90357801D01*
X123542516Y-90412760D01*
X123563444Y-90466458D01*
X123573581Y-90499526D01*
X123584335Y-90556278D01*
X123589907Y-90621416D01*
X123590225Y-90689216D01*
X123585216Y-90753957D01*
X123577354Y-90799585D01*
X123558546Y-90865401D01*
X123532332Y-90934647D01*
X123501665Y-90999897D01*
X123487636Y-91025230D01*
X123465947Y-91060931D01*
X123442587Y-91096533D01*
X123416404Y-91133485D01*
X123386251Y-91173238D01*
X123350977Y-91217243D01*
X123309432Y-91266950D01*
X123260466Y-91323809D01*
X123202931Y-91389271D01*
X123167002Y-91429709D01*
X123098171Y-91507919D01*
X123039053Y-91577375D01*
X122988487Y-91639659D01*
X122945314Y-91696357D01*
X122908375Y-91749053D01*
X122876511Y-91799333D01*
X122848564Y-91848779D01*
X122823373Y-91898978D01*
X122822728Y-91900342D01*
X122786667Y-91976720D01*
X122763302Y-91939877D01*
X122739602Y-91899404D01*
X122723357Y-91862692D01*
X122713313Y-91825076D01*
X122708216Y-91781890D01*
X122706812Y-91729768D01*
X122708209Y-91677394D01*
X122713290Y-91633086D01*
X122723307Y-91592535D01*
X122739509Y-91551435D01*
X122763147Y-91505475D01*
X122780863Y-91474718D01*
X122814350Y-91412505D01*
X122836728Y-91356884D01*
X122848664Y-91305153D01*
X122850827Y-91254610D01*
X122845777Y-91212166D01*
X122826215Y-91145412D01*
X122793880Y-91083852D01*
X122750474Y-91029759D01*
X122697698Y-90985405D01*
X122659047Y-90962811D01*
X122630157Y-90949097D01*
X122607702Y-90940732D01*
X122585879Y-90936405D01*
X122558886Y-90934807D01*
X122534087Y-90934611D01*
X122497860Y-90935335D01*
X122471609Y-90938076D01*
X122450352Y-90943690D01*
X122430327Y-90952422D01*
X122386012Y-90980145D01*
X122345504Y-91016047D01*
X122313129Y-91055953D01*
X122300507Y-91077785D01*
X122283720Y-91127308D01*
X122276966Y-91183870D01*
X122280073Y-91243516D01*
X122292866Y-91302289D01*
X122312486Y-91351103D01*
X122320018Y-91368933D01*
X122321447Y-91379560D01*
X122319719Y-91380949D01*
X122307677Y-91376415D01*
X122286864Y-91364100D01*
X122259942Y-91345934D01*
X122229577Y-91323848D01*
X122198432Y-91299771D01*
X122169173Y-91275634D01*
X122147136Y-91255911D01*
X122074519Y-91177435D01*
X122013983Y-91090994D01*
X121966035Y-90997950D01*
X121931184Y-90899661D01*
X121909937Y-90797488D01*
X121902802Y-90692789D01*
X121907038Y-90613238D01*
X121922679Y-90512780D01*
X121947658Y-90422202D01*
X121982803Y-90339027D01*
X122021235Y-90272382D01*
X122035551Y-90249589D01*
X122045458Y-90232245D01*
X122049141Y-90223564D01*
X122049004Y-90223170D01*
X122041597Y-90218434D01*
X122025104Y-90208133D01*
X122004844Y-90195579D01*
X121886278Y-90113689D01*
X121777754Y-90021065D01*
X121679828Y-89918597D01*
X121593054Y-89807174D01*
X121517989Y-89687688D01*
X121455188Y-89561027D01*
X121405207Y-89428081D01*
X121368601Y-89289739D01*
X121345926Y-89146893D01*
X121345111Y-89139088D01*
X121343726Y-89117582D01*
X121342471Y-89082508D01*
X121341348Y-89035219D01*
X121340357Y-88977063D01*
X121339496Y-88909391D01*
X121338767Y-88833554D01*
X121338169Y-88750902D01*
X121337702Y-88662785D01*
X121337367Y-88570554D01*
X121337162Y-88475559D01*
X121337089Y-88379151D01*
X121337146Y-88282679D01*
X121337335Y-88187494D01*
X121337654Y-88094947D01*
X121337903Y-88046029D01*
X121945339Y-88046029D01*
X121945432Y-88139680D01*
X121945698Y-88245947D01*
X121946093Y-88365825D01*
X121946278Y-88417866D01*
X121948786Y-89119254D01*
X121969284Y-89194269D01*
X122005429Y-89299810D01*
X122053710Y-89397662D01*
X122113325Y-89486942D01*
X122183473Y-89566767D01*
X122263354Y-89636255D01*
X122352166Y-89694525D01*
X122449109Y-89740694D01*
X122473862Y-89750006D01*
X122577472Y-89779625D01*
X122682744Y-89795370D01*
X122787637Y-89797054D01*
X122875908Y-89787127D01*
X122981140Y-89761178D01*
X123081386Y-89721360D01*
X123175359Y-89668344D01*
X123261771Y-89602800D01*
X123302442Y-89564840D01*
X123375526Y-89481488D01*
X123435613Y-89390819D01*
X123482396Y-89293472D01*
X123515566Y-89190089D01*
X123534627Y-89082989D01*
X123536098Y-89061883D01*
X123537422Y-89027193D01*
X123538601Y-88980336D01*
X123539634Y-88922731D01*
X123540521Y-88855794D01*
X123541262Y-88780944D01*
X123541857Y-88699598D01*
X123542307Y-88613175D01*
X123542610Y-88523091D01*
X123542768Y-88430766D01*
X123542780Y-88337615D01*
X123542646Y-88245059D01*
X123542366Y-88154513D01*
X123541941Y-88067396D01*
X123541369Y-87985126D01*
X123540652Y-87909120D01*
X123539788Y-87840797D01*
X123538779Y-87781573D01*
X123537624Y-87732868D01*
X123536324Y-87696098D01*
X123534877Y-87672681D01*
X123534627Y-87670226D01*
X123515576Y-87563226D01*
X123483503Y-87462026D01*
X123439367Y-87367496D01*
X123384122Y-87280501D01*
X123318726Y-87201912D01*
X123244136Y-87132594D01*
X123161307Y-87073416D01*
X123071196Y-87025245D01*
X122974759Y-86988950D01*
X122872953Y-86965397D01*
X122766735Y-86955455D01*
X122746443Y-86955176D01*
X122635442Y-86961910D01*
X122530375Y-86982415D01*
X122431062Y-87016764D01*
X122337323Y-87065029D01*
X122248978Y-87127281D01*
X122195189Y-87174491D01*
X122123911Y-87250496D01*
X122065777Y-87331327D01*
X122019078Y-87419676D01*
X121987104Y-87502686D01*
X121980109Y-87524131D01*
X121973909Y-87544270D01*
X121968459Y-87564098D01*
X121963716Y-87584608D01*
X121959633Y-87606795D01*
X121956168Y-87631654D01*
X121953275Y-87660178D01*
X121950911Y-87693363D01*
X121949031Y-87732203D01*
X121947591Y-87777692D01*
X121946546Y-87830825D01*
X121945852Y-87892595D01*
X121945464Y-87963999D01*
X121945339Y-88046029D01*
X121337903Y-88046029D01*
X121338105Y-88006387D01*
X121338686Y-87923166D01*
X121339398Y-87846633D01*
X121340241Y-87778139D01*
X121341215Y-87719035D01*
X121342320Y-87670669D01*
X121343555Y-87634394D01*
X121344921Y-87611559D01*
X121345147Y-87609286D01*
X121367208Y-87467279D01*
X121401854Y-87332505D01*
X121449539Y-87203369D01*
X121479174Y-87138864D01*
X121549939Y-87011188D01*
X121631996Y-86892888D01*
X121724565Y-86784534D01*
X121826862Y-86686695D01*
X121938107Y-86599941D01*
X122057515Y-86524840D01*
X122184306Y-86461963D01*
X122317698Y-86411878D01*
X122456907Y-86375156D01*
X122550918Y-86358611D01*
X122618168Y-86351733D01*
X122694536Y-86348396D01*
X122775381Y-86348487D01*
G37*
D11*
%TO.C,U7*%
X98850000Y-93900500D02*
X97850000Y-93900500D01*
X97200000Y-93250500D01*
X97200000Y-92250500D01*
X98850000Y-92250500D01*
X98850000Y-93900500D01*
G36*
X98850000Y-93900500D02*
G01*
X97850000Y-93900500D01*
X97200000Y-93250500D01*
X97200000Y-92250500D01*
X98850000Y-92250500D01*
X98850000Y-93900500D01*
G37*
X98850000Y-35900500D02*
X97850000Y-35900500D01*
X97200000Y-35250500D01*
X97200000Y-34250500D01*
X98850000Y-34250500D01*
X98850000Y-35900500D01*
G36*
X98850000Y-35900500D02*
G01*
X97850000Y-35900500D01*
X97200000Y-35250500D01*
X97200000Y-34250500D01*
X98850000Y-34250500D01*
X98850000Y-35900500D01*
G37*
%TD*%
D12*
%TO.C,R22*%
X199325000Y-72500500D03*
X197675000Y-72500500D03*
%TD*%
D13*
%TO.C,R19*%
X113500000Y-31800500D03*
X113500000Y-30150500D03*
%TD*%
D14*
%TO.C,S7*%
X180300000Y-86200500D03*
X176700000Y-86200500D03*
X180300000Y-84750500D03*
X176700000Y-84750500D03*
%TD*%
D15*
%TO.C,C20*%
X173025000Y-73225520D03*
X174575000Y-73225520D03*
%TD*%
D16*
%TO.C,C22*%
X182550000Y-94735500D03*
X182550000Y-93185500D03*
%TD*%
%TO.C,C12*%
X113200000Y-66500500D03*
X113200000Y-64950500D03*
%TD*%
D17*
%TO.C,LED5*%
X143025000Y-41550540D03*
X143025000Y-42500500D03*
X143975000Y-42500500D03*
X143975000Y-41550540D03*
%TD*%
D12*
%TO.C,R16*%
X197465000Y-107460500D03*
X195815000Y-107460500D03*
%TD*%
%TO.C,R18*%
X199325000Y-46500500D03*
X197675000Y-46500500D03*
%TD*%
D13*
%TO.C,R28*%
X161720000Y-60785500D03*
X161720000Y-59135500D03*
%TD*%
D17*
%TO.C,LED8*%
X173025000Y-41550540D03*
X173025000Y-42500500D03*
X173975000Y-42500500D03*
X173975000Y-41550540D03*
%TD*%
%TO.C,LED6*%
X153025000Y-99550540D03*
X153025000Y-100500500D03*
X153975000Y-100500500D03*
X153975000Y-99550540D03*
%TD*%
D18*
%TO.C,REF\u002A\u002A*%
X106500000Y-77000500D03*
%TD*%
D16*
%TO.C,C27*%
X115100000Y-89750500D03*
X115100000Y-88200500D03*
%TD*%
D17*
%TO.C,LED3*%
X123025000Y-99550540D03*
X123025000Y-100500500D03*
X123975000Y-100500500D03*
X123975000Y-99550540D03*
%TD*%
D13*
%TO.C,R1*%
X95600000Y-48025500D03*
X95600000Y-46375500D03*
%TD*%
D16*
%TO.C,C21*%
X188550000Y-65735500D03*
X188550000Y-64185500D03*
%TD*%
D14*
%TO.C,S3*%
X120300000Y-57200500D03*
X116700000Y-57200500D03*
X120300000Y-55750500D03*
X116700000Y-55750500D03*
%TD*%
D12*
%TO.C,R32*%
X189427187Y-90207986D03*
X187777187Y-90207986D03*
%TD*%
D15*
%TO.C,C20*%
X173025000Y-44225520D03*
X174575000Y-44225520D03*
%TD*%
D17*
%TO.C,LED7*%
X163025000Y-70550540D03*
X163025000Y-71500500D03*
X163975000Y-71500500D03*
X163975000Y-70550540D03*
%TD*%
%TO.C,LED2*%
X113025000Y-99550540D03*
X113025000Y-100500500D03*
X113975000Y-100500500D03*
X113975000Y-99550540D03*
%TD*%
D19*
%TO.C,R12*%
X108175000Y-33000500D03*
X109825000Y-33000500D03*
%TD*%
D20*
%TO.C,S2*%
X109825000Y-56400300D03*
X108175000Y-56400300D03*
X108175000Y-59600700D03*
X109825000Y-59600700D03*
%TD*%
D16*
%TO.C,C21*%
X188550000Y-36735500D03*
X188550000Y-35185500D03*
%TD*%
D21*
%TO.C,KiKit_TO_3*%
X88500000Y-115001500D03*
%TD*%
D22*
%TO.C,C13*%
X107600000Y-35525500D03*
X107600000Y-37075500D03*
%TD*%
D15*
%TO.C,C24*%
X123025000Y-73225520D03*
X124575000Y-73225520D03*
%TD*%
%TO.C,C16*%
X103025000Y-73225520D03*
X104575000Y-73225520D03*
%TD*%
D14*
%TO.C,S7*%
X180300000Y-57200500D03*
X176700000Y-57200500D03*
X180300000Y-55750500D03*
X176700000Y-55750500D03*
%TD*%
D12*
%TO.C,R30*%
X178350000Y-30200500D03*
X176700000Y-30200500D03*
%TD*%
D14*
%TO.C,S6*%
X165300000Y-86200500D03*
X161700000Y-86200500D03*
X165300000Y-84750500D03*
X161700000Y-84750500D03*
%TD*%
D17*
%TO.C,LED7*%
X163025000Y-99550540D03*
X163025000Y-100500500D03*
X163975000Y-100500500D03*
X163975000Y-99550540D03*
%TD*%
D23*
%TO.C,D5*%
X199980000Y-77210500D03*
X199980000Y-78610500D03*
%TD*%
D24*
%TO.C,C9*%
X97275000Y-72000500D03*
X95725000Y-72000500D03*
%TD*%
D14*
%TO.C,S3*%
X120300000Y-28200500D03*
X116700000Y-28200500D03*
X120300000Y-26750500D03*
X116700000Y-26750500D03*
%TD*%
D25*
%TO.C,KiKit_FID_T_2*%
X206500000Y-22000000D03*
%TD*%
D16*
%TO.C,C10*%
X111700000Y-66500500D03*
X111700000Y-64950500D03*
%TD*%
D14*
%TO.C,S5*%
X150300000Y-86125500D03*
X146700000Y-86125500D03*
X150300000Y-84675500D03*
X146700000Y-84675500D03*
%TD*%
D15*
%TO.C,C25*%
X143025000Y-73225520D03*
X144575000Y-73225520D03*
%TD*%
D14*
%TO.C,S5*%
X150300000Y-57125500D03*
X146700000Y-57125500D03*
X150300000Y-55675500D03*
X146700000Y-55675500D03*
%TD*%
D17*
%TO.C,LED4*%
X133025000Y-70550540D03*
X133025000Y-71500500D03*
X133975000Y-71500500D03*
X133975000Y-70550540D03*
%TD*%
D15*
%TO.C,C17*%
X113025000Y-102225520D03*
X114575000Y-102225520D03*
%TD*%
D12*
%TO.C,R22*%
X199325000Y-101500500D03*
X197675000Y-101500500D03*
%TD*%
D17*
%TO.C,LED4*%
X133025000Y-99550540D03*
X133025000Y-100500500D03*
X133975000Y-100500500D03*
X133975000Y-99550540D03*
%TD*%
D15*
%TO.C,C28*%
X183025000Y-102225520D03*
X184575000Y-102225520D03*
%TD*%
D26*
%TO.C,U7*%
X96000000Y-68000500D03*
X96800000Y-68000500D03*
X97600000Y-68000500D03*
X98400000Y-68000500D03*
X99200000Y-68000500D03*
X100000000Y-68000500D03*
X100800000Y-68000500D03*
X101600000Y-68000500D03*
X102400000Y-68000500D03*
X103200000Y-68000500D03*
X104000000Y-68000500D03*
D27*
X104900000Y-66900500D03*
X104900000Y-66100500D03*
X104900000Y-65300500D03*
X104900000Y-64500500D03*
X104900000Y-63700500D03*
X104900000Y-62900500D03*
X104900000Y-62100500D03*
X104900000Y-61300500D03*
X104900000Y-60500500D03*
X104900000Y-59700500D03*
X104900000Y-58900500D03*
X104900000Y-58100500D03*
X104900000Y-57300500D03*
D26*
X104000000Y-56200500D03*
X103200000Y-56200500D03*
X102400000Y-56200500D03*
X101600000Y-56200500D03*
X100800000Y-56200500D03*
X100000000Y-56200500D03*
X99200000Y-56200500D03*
X98400000Y-56200500D03*
X97600000Y-56200500D03*
X96800000Y-56200500D03*
X96000000Y-56200500D03*
D27*
X95100000Y-57300500D03*
X95100000Y-58100500D03*
X95100000Y-58900500D03*
X95100000Y-59700500D03*
X95100000Y-60500500D03*
X95100000Y-61300500D03*
X95100000Y-62100500D03*
X95100000Y-62900500D03*
X95100000Y-63700500D03*
X95100000Y-64500500D03*
X95100000Y-65300500D03*
X95100000Y-66100500D03*
X95100000Y-66900500D03*
D28*
X100000000Y-64075500D03*
X101975000Y-64075500D03*
X98025000Y-62100500D03*
X100000000Y-62100500D03*
X101975000Y-62100500D03*
X98025000Y-60125500D03*
X100000000Y-60125500D03*
X101975000Y-60125500D03*
D29*
X95050000Y-56150500D03*
X104950000Y-56150500D03*
X104950000Y-68050500D03*
X95050000Y-68050500D03*
%TD*%
D13*
%TO.C,R26*%
X146645000Y-31665500D03*
X146645000Y-30015500D03*
%TD*%
D17*
%TO.C,LED10*%
X193025000Y-70550540D03*
X193025000Y-71500500D03*
X193975000Y-71500500D03*
X193975000Y-70550540D03*
%TD*%
D15*
%TO.C,C26*%
X163025000Y-102225520D03*
X164575000Y-102225520D03*
%TD*%
D13*
%TO.C,R26*%
X146645000Y-89665500D03*
X146645000Y-88015500D03*
%TD*%
D15*
%TO.C,C25*%
X143025000Y-44225520D03*
X144575000Y-44225520D03*
%TD*%
D13*
%TO.C,R11*%
X110390000Y-98515500D03*
X110390000Y-96865500D03*
%TD*%
D30*
%TO.C,P1*%
X203300000Y-76800500D03*
X203300000Y-71020500D03*
D31*
X202225000Y-77110500D03*
X202225000Y-76310500D03*
D32*
X202225000Y-75160500D03*
X202225000Y-74160500D03*
X202225000Y-73660500D03*
X202225000Y-72660500D03*
D31*
X202225000Y-71510500D03*
X202225000Y-70710500D03*
D32*
X202225000Y-72160500D03*
X202225000Y-73160500D03*
X202225000Y-74660500D03*
X202225000Y-75660500D03*
D33*
X202800000Y-78230500D03*
X202800000Y-69590500D03*
D34*
X206980000Y-78230500D03*
X206980000Y-69590500D03*
%TD*%
D15*
%TO.C,C19*%
X153025000Y-102225520D03*
X154575000Y-102225520D03*
%TD*%
D18*
%TO.C,REF\u002A\u002A*%
X126500000Y-59000500D03*
%TD*%
D15*
%TO.C,C28*%
X183025000Y-73225520D03*
X184575000Y-73225520D03*
%TD*%
D13*
%TO.C,R1*%
X95600000Y-77025500D03*
X95600000Y-75375500D03*
%TD*%
D35*
%TO.C,R31*%
X191002187Y-61207986D03*
X191002187Y-62857986D03*
%TD*%
D14*
%TO.C,S4*%
X135300000Y-57200500D03*
X131700000Y-57200500D03*
X135300000Y-55750500D03*
X131700000Y-55750500D03*
%TD*%
D36*
%TO.C,LS1*%
X205955000Y-61740500D03*
X195005000Y-61740500D03*
%TD*%
D16*
%TO.C,C32*%
X160120000Y-89735500D03*
X160120000Y-88185500D03*
%TD*%
D25*
%TO.C,KiKit_FID_T_1*%
X90500000Y-22000000D03*
%TD*%
D17*
%TO.C,LED5*%
X143025000Y-70550540D03*
X143025000Y-71500500D03*
X143975000Y-71500500D03*
X143975000Y-70550540D03*
%TD*%
D13*
%TO.C,R26*%
X146645000Y-60665500D03*
X146645000Y-59015500D03*
%TD*%
D15*
%TO.C,C18*%
X133025000Y-44225520D03*
X134575000Y-44225520D03*
%TD*%
D14*
%TO.C,S6*%
X165300000Y-57200500D03*
X161700000Y-57200500D03*
X165300000Y-55750500D03*
X161700000Y-55750500D03*
%TD*%
D24*
%TO.C,C30*%
X133300000Y-60800500D03*
X131750000Y-60800500D03*
%TD*%
%TO.C,C33*%
X178300000Y-31800500D03*
X176750000Y-31800500D03*
%TD*%
D17*
%TO.C,LED10*%
X193025000Y-41550540D03*
X193025000Y-42500500D03*
X193975000Y-42500500D03*
X193975000Y-41550540D03*
%TD*%
D18*
%TO.C,REF\u002A\u002A*%
X190270000Y-57770500D03*
%TD*%
%TO.C,REF\u002A\u002A*%
X190500000Y-48000500D03*
%TD*%
D35*
%TO.C,R4*%
X101200000Y-103000520D03*
X101200000Y-104650520D03*
%TD*%
D13*
%TO.C,R5*%
X101200000Y-72250520D03*
X101200000Y-70600520D03*
%TD*%
D15*
%TO.C,C17*%
X113025000Y-44225520D03*
X114575000Y-44225520D03*
%TD*%
D37*
%TO.C,U6*%
X186965000Y-36685500D03*
X186965000Y-35735500D03*
X186965000Y-34785500D03*
X184365000Y-34785500D03*
X184365000Y-36685500D03*
%TD*%
D12*
%TO.C,R17*%
X199325000Y-42000500D03*
X197675000Y-42000500D03*
%TD*%
D15*
%TO.C,C17*%
X113025000Y-73225520D03*
X114575000Y-73225520D03*
%TD*%
D13*
%TO.C,R5*%
X101200000Y-101250520D03*
X101200000Y-99600520D03*
%TD*%
D12*
%TO.C,R32*%
X189427187Y-32207986D03*
X187777187Y-32207986D03*
%TD*%
D13*
%TO.C,R25*%
X143445000Y-89665500D03*
X143445000Y-88015500D03*
%TD*%
D25*
%TO.C,KiKit_FID_T_4*%
X206500000Y-113001500D03*
%TD*%
D17*
%TO.C,LED1*%
X103025000Y-41550540D03*
X103025000Y-42500500D03*
X103975000Y-42500500D03*
X103975000Y-41550540D03*
%TD*%
%TO.C,LED6*%
X153025000Y-41550540D03*
X153025000Y-42500500D03*
X153975000Y-42500500D03*
X153975000Y-41550540D03*
%TD*%
D16*
%TO.C,C10*%
X111700000Y-37500500D03*
X111700000Y-35950500D03*
%TD*%
D24*
%TO.C,C11*%
X97275000Y-99500500D03*
X95725000Y-99500500D03*
%TD*%
D19*
%TO.C,R21*%
X197675000Y-103000500D03*
X199325000Y-103000500D03*
%TD*%
D25*
%TO.C,KiKit_FID_T_3*%
X90500000Y-113001500D03*
%TD*%
D36*
%TO.C,LS1*%
X205955000Y-32740500D03*
X195005000Y-32740500D03*
%TD*%
D17*
%TO.C,LED3*%
X123025000Y-41550540D03*
X123025000Y-42500500D03*
X123975000Y-42500500D03*
X123975000Y-41550540D03*
%TD*%
D15*
%TO.C,C24*%
X123025000Y-102225520D03*
X124575000Y-102225520D03*
%TD*%
D17*
%TO.C,LED1*%
X103025000Y-70550540D03*
X103025000Y-71500500D03*
X103975000Y-71500500D03*
X103975000Y-70550540D03*
%TD*%
D18*
%TO.C,REF\u002A\u002A*%
X170500000Y-88000500D03*
%TD*%
D13*
%TO.C,R1*%
X95600000Y-106025500D03*
X95600000Y-104375500D03*
%TD*%
D30*
%TO.C,P1*%
X203300000Y-105800500D03*
X203300000Y-100020500D03*
D31*
X202225000Y-106110500D03*
X202225000Y-105310500D03*
D32*
X202225000Y-104160500D03*
X202225000Y-103160500D03*
X202225000Y-102660500D03*
X202225000Y-101660500D03*
D31*
X202225000Y-100510500D03*
X202225000Y-99710500D03*
D32*
X202225000Y-101160500D03*
X202225000Y-102160500D03*
X202225000Y-103660500D03*
X202225000Y-104660500D03*
D33*
X202800000Y-107230500D03*
X202800000Y-98590500D03*
D34*
X206980000Y-107230500D03*
X206980000Y-98590500D03*
%TD*%
D16*
%TO.C,C27*%
X115100000Y-60750500D03*
X115100000Y-59200500D03*
%TD*%
D24*
%TO.C,C9*%
X97275000Y-101000500D03*
X95725000Y-101000500D03*
%TD*%
D37*
%TO.C,U6*%
X186965000Y-94685500D03*
X186965000Y-93735500D03*
X186965000Y-92785500D03*
X184365000Y-92785500D03*
X184365000Y-94685500D03*
%TD*%
D16*
%TO.C,C31*%
X145045000Y-60615500D03*
X145045000Y-59065500D03*
%TD*%
D18*
%TO.C,REF\u002A\u002A*%
X170500000Y-59000500D03*
%TD*%
D20*
%TO.C,S2*%
X109825000Y-85400300D03*
X108175000Y-85400300D03*
X108175000Y-88600700D03*
X109825000Y-88600700D03*
%TD*%
D13*
%TO.C,R28*%
X161720000Y-31785500D03*
X161720000Y-30135500D03*
%TD*%
D35*
%TO.C,R4*%
X101200000Y-74000520D03*
X101200000Y-75650520D03*
%TD*%
D14*
%TO.C,S6*%
X165300000Y-28200500D03*
X161700000Y-28200500D03*
X165300000Y-26750500D03*
X161700000Y-26750500D03*
%TD*%
D17*
%TO.C,LED6*%
X153025000Y-70550540D03*
X153025000Y-71500500D03*
X153975000Y-71500500D03*
X153975000Y-70550540D03*
%TD*%
D16*
%TO.C,C31*%
X145045000Y-89615500D03*
X145045000Y-88065500D03*
%TD*%
D18*
%TO.C,REF\u002A\u002A*%
X190500000Y-106000500D03*
%TD*%
D19*
%TO.C,R21*%
X197675000Y-45000500D03*
X199325000Y-45000500D03*
%TD*%
D15*
%TO.C,C26*%
X163025000Y-73225520D03*
X164575000Y-73225520D03*
%TD*%
D18*
%TO.C,REF\u002A\u002A*%
X126500000Y-30000500D03*
%TD*%
D15*
%TO.C,C18*%
X133025000Y-102225520D03*
X134575000Y-102225520D03*
%TD*%
D13*
%TO.C,R25*%
X143445000Y-60665500D03*
X143445000Y-59015500D03*
%TD*%
D12*
%TO.C,R32*%
X189427187Y-61207986D03*
X187777187Y-61207986D03*
%TD*%
D38*
%TO.C,Q1*%
X97425000Y-75350500D03*
X97425000Y-77250500D03*
X99300000Y-76300500D03*
%TD*%
D15*
%TO.C,C29*%
X193025000Y-102225520D03*
X194575000Y-102225520D03*
%TD*%
%TO.C,C26*%
X163025000Y-44225520D03*
X164575000Y-44225520D03*
%TD*%
D12*
%TO.C,R30*%
X178350000Y-88200500D03*
X176700000Y-88200500D03*
%TD*%
D16*
%TO.C,C32*%
X160120000Y-60735500D03*
X160120000Y-59185500D03*
%TD*%
D13*
%TO.C,R11*%
X110390000Y-40515500D03*
X110390000Y-38865500D03*
%TD*%
%TO.C,R27*%
X158520000Y-31785500D03*
X158520000Y-30135500D03*
%TD*%
D14*
%TO.C,S7*%
X180300000Y-28200500D03*
X176700000Y-28200500D03*
X180300000Y-26750500D03*
X176700000Y-26750500D03*
%TD*%
D16*
%TO.C,C22*%
X182550000Y-65735500D03*
X182550000Y-64185500D03*
%TD*%
D17*
%TO.C,LED8*%
X173025000Y-99550540D03*
X173025000Y-100500500D03*
X173975000Y-100500500D03*
X173975000Y-99550540D03*
%TD*%
D35*
%TO.C,R31*%
X191002187Y-90207986D03*
X191002187Y-91857986D03*
%TD*%
D39*
%TO.C,TP2*%
X115400000Y-66525500D03*
%TD*%
D16*
%TO.C,C31*%
X145045000Y-31615500D03*
X145045000Y-30065500D03*
%TD*%
D38*
%TO.C,Q1*%
X97425000Y-46350500D03*
X97425000Y-48250500D03*
X99300000Y-47300500D03*
%TD*%
D13*
%TO.C,R11*%
X110390000Y-69515500D03*
X110390000Y-67865500D03*
%TD*%
%TO.C,R20*%
X116700000Y-31800500D03*
X116700000Y-30150500D03*
%TD*%
D18*
%TO.C,REF\u002A\u002A*%
X126500000Y-88000500D03*
%TD*%
D17*
%TO.C,LED9*%
X183025000Y-70550540D03*
X183025000Y-71500500D03*
X183975000Y-71500500D03*
X183975000Y-70550540D03*
%TD*%
%TO.C,LED9*%
X183025000Y-99550540D03*
X183025000Y-100500500D03*
X183975000Y-100500500D03*
X183975000Y-99550540D03*
%TD*%
D13*
%TO.C,R27*%
X158520000Y-60785500D03*
X158520000Y-59135500D03*
%TD*%
D12*
%TO.C,R23*%
X133350000Y-91400500D03*
X131700000Y-91400500D03*
%TD*%
D13*
%TO.C,R19*%
X113500000Y-89800500D03*
X113500000Y-88150500D03*
%TD*%
D15*
%TO.C,C25*%
X143025000Y-102225520D03*
X144575000Y-102225520D03*
%TD*%
D20*
%TO.C,S2*%
X109825000Y-27400300D03*
X108175000Y-27400300D03*
X108175000Y-30600700D03*
X109825000Y-30600700D03*
%TD*%
D15*
%TO.C,C29*%
X193025000Y-44225520D03*
X194575000Y-44225520D03*
%TD*%
D38*
%TO.C,Q1*%
X97425000Y-104350500D03*
X97425000Y-106250500D03*
X99300000Y-105300500D03*
%TD*%
D12*
%TO.C,R17*%
X199325000Y-100000500D03*
X197675000Y-100000500D03*
%TD*%
D17*
%TO.C,LED2*%
X113025000Y-70550540D03*
X113025000Y-71500500D03*
X113975000Y-71500500D03*
X113975000Y-70550540D03*
%TD*%
D19*
%TO.C,R12*%
X108175000Y-62000500D03*
X109825000Y-62000500D03*
%TD*%
D17*
%TO.C,LED9*%
X183025000Y-41550540D03*
X183025000Y-42500500D03*
X183975000Y-42500500D03*
X183975000Y-41550540D03*
%TD*%
D12*
%TO.C,R16*%
X197465000Y-49460500D03*
X195815000Y-49460500D03*
%TD*%
D18*
%TO.C,REF\u002A\u002A*%
X190500000Y-77000500D03*
%TD*%
D16*
%TO.C,C27*%
X115100000Y-31750500D03*
X115100000Y-30200500D03*
%TD*%
D15*
%TO.C,C19*%
X153025000Y-44225520D03*
X154575000Y-44225520D03*
%TD*%
D12*
%TO.C,R29*%
X178350000Y-91400500D03*
X176700000Y-91400500D03*
%TD*%
D16*
%TO.C,C12*%
X113200000Y-37500500D03*
X113200000Y-35950500D03*
%TD*%
D22*
%TO.C,C13*%
X107600000Y-64525500D03*
X107600000Y-66075500D03*
%TD*%
D12*
%TO.C,R16*%
X197465000Y-78460500D03*
X195815000Y-78460500D03*
%TD*%
D14*
%TO.C,S4*%
X135300000Y-86200500D03*
X131700000Y-86200500D03*
X135300000Y-84750500D03*
X131700000Y-84750500D03*
%TD*%
D12*
%TO.C,R29*%
X178350000Y-62400500D03*
X176700000Y-62400500D03*
%TD*%
D36*
%TO.C,LS1*%
X205955000Y-90740500D03*
X195005000Y-90740500D03*
%TD*%
D13*
%TO.C,R20*%
X116700000Y-60800500D03*
X116700000Y-59150500D03*
%TD*%
D23*
%TO.C,D5*%
X199980000Y-106210500D03*
X199980000Y-107610500D03*
%TD*%
%TO.C,D5*%
X199980000Y-48210500D03*
X199980000Y-49610500D03*
%TD*%
D24*
%TO.C,C11*%
X97275000Y-41500500D03*
X95725000Y-41500500D03*
%TD*%
D15*
%TO.C,C16*%
X103025000Y-44225520D03*
X104575000Y-44225520D03*
%TD*%
D24*
%TO.C,C33*%
X178300000Y-89800500D03*
X176750000Y-89800500D03*
%TD*%
D12*
%TO.C,R24*%
X133350000Y-59200500D03*
X131700000Y-59200500D03*
%TD*%
D15*
%TO.C,C19*%
X153025000Y-73225520D03*
X154575000Y-73225520D03*
%TD*%
D14*
%TO.C,S4*%
X135300000Y-28200500D03*
X131700000Y-28200500D03*
X135300000Y-26750500D03*
X131700000Y-26750500D03*
%TD*%
D12*
%TO.C,R24*%
X133350000Y-88200500D03*
X131700000Y-88200500D03*
%TD*%
D16*
%TO.C,C10*%
X111700000Y-95500500D03*
X111700000Y-93950500D03*
%TD*%
D17*
%TO.C,LED8*%
X173025000Y-70550540D03*
X173025000Y-71500500D03*
X173975000Y-71500500D03*
X173975000Y-70550540D03*
%TD*%
D12*
%TO.C,R23*%
X133350000Y-62400500D03*
X131700000Y-62400500D03*
%TD*%
D21*
%TO.C,KiKit_TO_1*%
X88500000Y-20000000D03*
%TD*%
D26*
%TO.C,U7*%
X96000000Y-97000500D03*
X96800000Y-97000500D03*
X97600000Y-97000500D03*
X98400000Y-97000500D03*
X99200000Y-97000500D03*
X100000000Y-97000500D03*
X100800000Y-97000500D03*
X101600000Y-97000500D03*
X102400000Y-97000500D03*
X103200000Y-97000500D03*
X104000000Y-97000500D03*
D27*
X104900000Y-95900500D03*
X104900000Y-95100500D03*
X104900000Y-94300500D03*
X104900000Y-93500500D03*
X104900000Y-92700500D03*
X104900000Y-91900500D03*
X104900000Y-91100500D03*
X104900000Y-90300500D03*
X104900000Y-89500500D03*
X104900000Y-88700500D03*
X104900000Y-87900500D03*
X104900000Y-87100500D03*
X104900000Y-86300500D03*
D26*
X104000000Y-85200500D03*
X103200000Y-85200500D03*
X102400000Y-85200500D03*
X101600000Y-85200500D03*
X100800000Y-85200500D03*
X100000000Y-85200500D03*
X99200000Y-85200500D03*
X98400000Y-85200500D03*
X97600000Y-85200500D03*
X96800000Y-85200500D03*
X96000000Y-85200500D03*
D27*
X95100000Y-86300500D03*
X95100000Y-87100500D03*
X95100000Y-87900500D03*
X95100000Y-88700500D03*
X95100000Y-89500500D03*
X95100000Y-90300500D03*
X95100000Y-91100500D03*
X95100000Y-91900500D03*
X95100000Y-92700500D03*
X95100000Y-93500500D03*
X95100000Y-94300500D03*
X95100000Y-95100500D03*
X95100000Y-95900500D03*
D28*
X100000000Y-93075500D03*
X101975000Y-93075500D03*
X98025000Y-91100500D03*
X100000000Y-91100500D03*
X101975000Y-91100500D03*
X98025000Y-89125500D03*
X100000000Y-89125500D03*
X101975000Y-89125500D03*
D29*
X95050000Y-85150500D03*
X104950000Y-85150500D03*
X104950000Y-97050500D03*
X95050000Y-97050500D03*
%TD*%
D12*
%TO.C,R22*%
X199325000Y-43500500D03*
X197675000Y-43500500D03*
%TD*%
D13*
%TO.C,R27*%
X158520000Y-89785500D03*
X158520000Y-88135500D03*
%TD*%
D15*
%TO.C,C18*%
X133025000Y-73225520D03*
X134575000Y-73225520D03*
%TD*%
D18*
%TO.C,REF\u002A\u002A*%
X106500000Y-48000500D03*
%TD*%
D12*
%TO.C,R23*%
X133350000Y-33400500D03*
X131700000Y-33400500D03*
%TD*%
D15*
%TO.C,C20*%
X173025000Y-102225520D03*
X174575000Y-102225520D03*
%TD*%
D12*
%TO.C,R29*%
X178350000Y-33400500D03*
X176700000Y-33400500D03*
%TD*%
%TO.C,R24*%
X133350000Y-30200500D03*
X131700000Y-30200500D03*
%TD*%
D15*
%TO.C,C29*%
X193025000Y-73225520D03*
X194575000Y-73225520D03*
%TD*%
D21*
%TO.C,KiKit_TO_2*%
X208500000Y-20000000D03*
%TD*%
D18*
%TO.C,REF\u002A\u002A*%
X190270000Y-86770500D03*
%TD*%
D35*
%TO.C,R4*%
X101200000Y-45000520D03*
X101200000Y-46650520D03*
%TD*%
D13*
%TO.C,R28*%
X161720000Y-89785500D03*
X161720000Y-88135500D03*
%TD*%
D16*
%TO.C,C21*%
X188550000Y-94735500D03*
X188550000Y-93185500D03*
%TD*%
D17*
%TO.C,LED10*%
X193025000Y-99550540D03*
X193025000Y-100500500D03*
X193975000Y-100500500D03*
X193975000Y-99550540D03*
%TD*%
D12*
%TO.C,R18*%
X199325000Y-75500500D03*
X197675000Y-75500500D03*
%TD*%
D19*
%TO.C,R21*%
X197675000Y-74000500D03*
X199325000Y-74000500D03*
%TD*%
D12*
%TO.C,R30*%
X178350000Y-59200500D03*
X176700000Y-59200500D03*
%TD*%
D18*
%TO.C,REF\u002A\u002A*%
X190270000Y-28770500D03*
%TD*%
D17*
%TO.C,LED7*%
X163025000Y-41550540D03*
X163025000Y-42500500D03*
X163975000Y-42500500D03*
X163975000Y-41550540D03*
%TD*%
D16*
%TO.C,C32*%
X160120000Y-31735500D03*
X160120000Y-30185500D03*
%TD*%
D24*
%TO.C,C30*%
X133300000Y-31800500D03*
X131750000Y-31800500D03*
%TD*%
D18*
%TO.C,REF\u002A\u002A*%
X106500000Y-106000500D03*
%TD*%
D39*
%TO.C,TP2*%
X115400000Y-37525500D03*
%TD*%
D17*
%TO.C,LED5*%
X143025000Y-99550540D03*
X143025000Y-100500500D03*
X143975000Y-100500500D03*
X143975000Y-99550540D03*
%TD*%
D15*
%TO.C,C24*%
X123025000Y-44225520D03*
X124575000Y-44225520D03*
%TD*%
D12*
%TO.C,R18*%
X199325000Y-104500500D03*
X197675000Y-104500500D03*
%TD*%
D16*
%TO.C,C22*%
X182550000Y-36735500D03*
X182550000Y-35185500D03*
%TD*%
D13*
%TO.C,R20*%
X116700000Y-89800500D03*
X116700000Y-88150500D03*
%TD*%
D24*
%TO.C,C11*%
X97275000Y-70500500D03*
X95725000Y-70500500D03*
%TD*%
%TO.C,C9*%
X97275000Y-43000500D03*
X95725000Y-43000500D03*
%TD*%
D39*
%TO.C,TP2*%
X115400000Y-95525500D03*
%TD*%
D15*
%TO.C,C28*%
X183025000Y-44225520D03*
X184575000Y-44225520D03*
%TD*%
D24*
%TO.C,C30*%
X133300000Y-89800500D03*
X131750000Y-89800500D03*
%TD*%
D17*
%TO.C,LED3*%
X123025000Y-70550540D03*
X123025000Y-71500500D03*
X123975000Y-71500500D03*
X123975000Y-70550540D03*
%TD*%
D37*
%TO.C,U6*%
X186965000Y-65685500D03*
X186965000Y-64735500D03*
X186965000Y-63785500D03*
X184365000Y-63785500D03*
X184365000Y-65685500D03*
%TD*%
D30*
%TO.C,P1*%
X203300000Y-47800500D03*
X203300000Y-42020500D03*
D31*
X202225000Y-48110500D03*
X202225000Y-47310500D03*
D32*
X202225000Y-46160500D03*
X202225000Y-45160500D03*
X202225000Y-44660500D03*
X202225000Y-43660500D03*
D31*
X202225000Y-42510500D03*
X202225000Y-41710500D03*
D32*
X202225000Y-43160500D03*
X202225000Y-44160500D03*
X202225000Y-45660500D03*
X202225000Y-46660500D03*
D33*
X202800000Y-49230500D03*
X202800000Y-40590500D03*
D34*
X206980000Y-49230500D03*
X206980000Y-40590500D03*
%TD*%
D24*
%TO.C,C33*%
X178300000Y-60800500D03*
X176750000Y-60800500D03*
%TD*%
D19*
%TO.C,R12*%
X108175000Y-91000500D03*
X109825000Y-91000500D03*
%TD*%
D26*
%TO.C,U7*%
X96000000Y-39000500D03*
X96800000Y-39000500D03*
X97600000Y-39000500D03*
X98400000Y-39000500D03*
X99200000Y-39000500D03*
X100000000Y-39000500D03*
X100800000Y-39000500D03*
X101600000Y-39000500D03*
X102400000Y-39000500D03*
X103200000Y-39000500D03*
X104000000Y-39000500D03*
D27*
X104900000Y-37900500D03*
X104900000Y-37100500D03*
X104900000Y-36300500D03*
X104900000Y-35500500D03*
X104900000Y-34700500D03*
X104900000Y-33900500D03*
X104900000Y-33100500D03*
X104900000Y-32300500D03*
X104900000Y-31500500D03*
X104900000Y-30700500D03*
X104900000Y-29900500D03*
X104900000Y-29100500D03*
X104900000Y-28300500D03*
D26*
X104000000Y-27200500D03*
X103200000Y-27200500D03*
X102400000Y-27200500D03*
X101600000Y-27200500D03*
X100800000Y-27200500D03*
X100000000Y-27200500D03*
X99200000Y-27200500D03*
X98400000Y-27200500D03*
X97600000Y-27200500D03*
X96800000Y-27200500D03*
X96000000Y-27200500D03*
D27*
X95100000Y-28300500D03*
X95100000Y-29100500D03*
X95100000Y-29900500D03*
X95100000Y-30700500D03*
X95100000Y-31500500D03*
X95100000Y-32300500D03*
X95100000Y-33100500D03*
X95100000Y-33900500D03*
X95100000Y-34700500D03*
X95100000Y-35500500D03*
X95100000Y-36300500D03*
X95100000Y-37100500D03*
X95100000Y-37900500D03*
D28*
X100000000Y-35075500D03*
X101975000Y-35075500D03*
X98025000Y-33100500D03*
X100000000Y-33100500D03*
X101975000Y-33100500D03*
X98025000Y-31125500D03*
X100000000Y-31125500D03*
X101975000Y-31125500D03*
D29*
X95050000Y-27150500D03*
X104950000Y-27150500D03*
X104950000Y-39050500D03*
X95050000Y-39050500D03*
%TD*%
D13*
%TO.C,R19*%
X113500000Y-60800500D03*
X113500000Y-59150500D03*
%TD*%
D17*
%TO.C,LED1*%
X103025000Y-99550540D03*
X103025000Y-100500500D03*
X103975000Y-100500500D03*
X103975000Y-99550540D03*
%TD*%
D12*
%TO.C,R17*%
X199325000Y-71000500D03*
X197675000Y-71000500D03*
%TD*%
D14*
%TO.C,S5*%
X150300000Y-28125500D03*
X146700000Y-28125500D03*
X150300000Y-26675500D03*
X146700000Y-26675500D03*
%TD*%
D22*
%TO.C,C13*%
X107600000Y-93525500D03*
X107600000Y-95075500D03*
%TD*%
D17*
%TO.C,LED2*%
X113025000Y-41550540D03*
X113025000Y-42500500D03*
X113975000Y-42500500D03*
X113975000Y-41550540D03*
%TD*%
D14*
%TO.C,S3*%
X120300000Y-86200500D03*
X116700000Y-86200500D03*
X120300000Y-84750500D03*
X116700000Y-84750500D03*
%TD*%
D15*
%TO.C,C16*%
X103025000Y-102225520D03*
X104575000Y-102225520D03*
%TD*%
D35*
%TO.C,R31*%
X191002187Y-32207986D03*
X191002187Y-33857986D03*
%TD*%
D13*
%TO.C,R5*%
X101200000Y-43250520D03*
X101200000Y-41600520D03*
%TD*%
%TO.C,R25*%
X143445000Y-31665500D03*
X143445000Y-30015500D03*
%TD*%
D18*
%TO.C,REF\u002A\u002A*%
X170500000Y-30000500D03*
%TD*%
D17*
%TO.C,LED4*%
X133025000Y-41550540D03*
X133025000Y-42500500D03*
X133975000Y-42500500D03*
X133975000Y-41550540D03*
%TD*%
D16*
%TO.C,C12*%
X113200000Y-95500500D03*
X113200000Y-93950500D03*
%TD*%
M02*
